<?xml version="1.0" encoding="iso-8859-1"?>
<!-- Generator: Adobe Illustrator 19.0.0, SVG Export Plug-In . SVG Version: 6.00 Build 0)  -->
<svg xmlns="http://www.w3.org/2000/svg" xmlns:xlink="http://www.w3.org/1999/xlink" version="1.1" id="Layer_1" x="0px" y="0px" viewBox="0 0 512 512" style="enable-background:new 0 0 512 512;" xml:space="preserve" width="512" height="512">
<g id="XMLID_904_">
	<g id="XMLID_14_">
		<path id="XMLID_4147_" d="M493.015,179.586c-9.908-12.209-23.072-21.455-37.762-26.666c1.628-8.207,2.451-16.585,2.451-25.013    C457.704,57.379,400.324,0,329.796,0c-31.817,0-62.312,11.758-85.868,33.109c-19.29,17.484-32.657,40.204-38.583,65.171    c-18.342-9.755-40.463-10.697-59.962-1.815c-22.121,10.075-36.741,30.803-39.327,54.185c-6.804-1.731-13.806-2.604-20.941-2.604    C38.183,148.046,0,186.229,0,233.162s38.183,85.116,85.116,85.116h91.011c5.523,0,10-4.477,10-10s-4.477-10-10-10H85.116    C49.211,298.278,20,269.067,20,233.162c0-35.905,29.211-65.116,65.116-65.116c9.308,0,18.318,1.94,26.782,5.767    c3.276,1.482,7.098,1.089,10.006-1.028c2.908-2.117,4.455-5.633,4.05-9.207c-2.333-20.643,8.806-40.299,27.718-48.912    c17.476-7.959,37.935-4.732,52.122,8.22c2.788,2.545,6.77,3.304,10.296,1.962c3.527-1.341,6-4.554,6.392-8.307    C228.239,61.504,274.373,20,329.796,20c59.5,0,107.908,48.407,107.908,107.908c0,7.503-0.773,14.955-2.298,22.238    c-2.459-0.654-5.04-1.007-7.702-1.007c-14.082,0-25.923,9.755-29.135,22.861h-93.434c-3.212-13.106-15.053-22.861-29.135-22.861    c-16.542,0-30,13.458-30,30V482c0,16.542,13.458,30,30,30s30-13.458,30-30v-10h91.704v10c0,16.542,13.458,30,30,30    s30-13.458,30-30v-20c0-5.523-4.477-10-10-10s-10,4.477-10,10v20c0,5.514-4.486,10-10,10s-10-4.486-10-10V179.139    c0-5.514,4.486-10,10-10s10,4.486,10,10V382c0,5.523,4.477,10,10,10s10-4.477,10-10v-69.492    c14.525-5.669,27.465-15.374,36.958-27.851C506.004,269.747,512,251.94,512,233.162C512,213.699,505.257,194.672,493.015,179.586z     M306,292v-20h91.704v20H306z M397.704,312v20H306v-20H397.704z M306,252v-20h91.704v20H306z M306,352h91.704v20H306V352z     M397.704,212H306v-20h91.704V212z M306,392h91.704v20H306V392z M286,482c0,5.514-4.486,10-10,10s-10-4.486-10-10V179.139    c0-5.514,4.486-10,10-10s10,4.486,10,10V482z M306,452v-20h91.704v20H306z M457.704,290.521V179.139    c0-1.147-0.071-2.277-0.197-3.391C478.201,186.885,492,208.885,492,233.162C492,257.322,478.402,279.33,457.704,290.521z"/>
		<path id="XMLID_4156_" d="M216.13,298.28c-2.63,0-5.21,1.07-7.07,2.93c-1.87,1.86-2.93,4.44-2.93,7.07s1.06,5.21,2.93,7.07    c1.86,1.86,4.44,2.93,7.07,2.93s5.21-1.07,7.07-2.93c1.86-1.86,2.93-4.44,2.93-7.07s-1.07-5.21-2.93-7.07    C221.34,299.35,218.76,298.28,216.13,298.28z"/>
		<path id="XMLID_4157_" d="M447.7,412c-2.63,0-5.21,1.07-7.07,2.93c-1.86,1.86-2.93,4.44-2.93,7.07c0,2.63,1.07,5.21,2.93,7.07    s4.44,2.93,7.07,2.93c2.64,0,5.21-1.07,7.07-2.93c1.87-1.86,2.93-4.44,2.93-7.07c0-2.63-1.06-5.21-2.93-7.07    C452.91,413.07,450.34,412,447.7,412z"/>
	</g>
</g>















</svg>
