<?xml version="1.0" encoding="iso-8859-1"?>
<!-- Generator: Adobe Illustrator 19.0.0, SVG Export Plug-In . SVG Version: 6.00 Build 0)  -->
<svg xmlns="http://www.w3.org/2000/svg" xmlns:xlink="http://www.w3.org/1999/xlink" version="1.1" id="Layer_1" x="0px" y="0px" viewBox="0 0 512 512" style="enable-background:new 0 0 512 512;" xml:space="preserve" width="512" height="512">
<g id="XMLID_926_">
	<g id="XMLID_189_">
		<path id="XMLID_230_" d="M479.223,200.87l-35.669-7.799c9.796-9.363,15.917-22.54,15.917-37.128v-33.82    c4.012-5.776,6.371-12.781,6.371-20.33v-27.4c0-5.523-4.478-10-10-10h-55.212c-24.226,0-43.935,19.708-43.935,43.934v19.199    c0,0.461,0.042,0.912,0.103,1.356c-0.06,0.443-0.102,0.891-0.102,1.35v25.712c0,14.57,6.105,27.732,15.879,37.093l-35.66,7.823    c-11.072,2.429-20.463,9.142-26.341,18.511l-3.814-0.834c-1.966-0.43-3.614-1.646-4.652-3.266    c18.918-14.104,31.194-36.647,31.194-62.005V96.27c6.502-8.663,10.36-19.419,10.36-31.06V20.655c0-5.523-4.478-10-10-10h-89.782    c-35.94,0-65.18,29.24-65.18,65.18v31.219c0,0.757,0.091,1.491,0.251,2.2c-0.16,0.709-0.251,1.443-0.251,2.2v41.811    c0,25.241,12.163,47.692,30.933,61.809c-1.025,1.722-2.728,3.022-4.774,3.471l-3.5,0.768c-5.919-9.317-15.405-16.06-26.301-18.442    l-35.669-7.799c9.796-9.363,15.917-22.54,15.917-37.128v-33.82c4.012-5.776,6.371-12.781,6.371-20.33v-27.4    c0-5.523-4.478-10-10-10H96.464c-24.225,0-43.934,19.708-43.934,43.934v19.199c0,0.46,0.042,0.909,0.102,1.353    c-0.06,0.444-0.102,0.893-0.102,1.353v25.712c0,14.57,6.105,27.732,15.88,37.093l-35.661,7.823C13.772,205.021,0,222.143,0,241.57    v64.004c0,5.523,4.478,10,10,10h83.279v65.08c0,5.523,4.478,10,10,10h73.723l-48.451,48.451c-0.001,0.002-0.003,0.003-0.004,0.005    l-16.482,16.482c-1.875,1.875-2.929,4.419-2.929,7.071c0,2.652,1.054,5.196,2.929,7.071l28.683,28.682    c1.953,1.953,4.512,2.929,7.071,2.929s5.118-0.977,7.071-2.929l23.467-23.467c3.905-3.905,3.905-10.237,0-14.143    c-3.906-3.905-10.236-3.905-14.143,0l-16.396,16.396l-14.54-14.54l9.41-9.411c0.001-0.002,0.003-0.003,0.005-0.005L252.281,343.66    l35.425,35.426c1.876,1.875,4.419,2.929,7.071,2.929s5.195-1.054,7.071-2.929l59.904-59.905c3.905-3.905,3.905-10.237,0-14.142    l-5.538-5.538l53.148-10.696l-10.696,53.149l-8.23-8.231c-1.875-1.875-4.419-2.929-7.071-2.929s-5.195,1.054-7.071,2.929    l-81.517,81.516l-35.425-35.426c-1.876-1.875-4.419-2.929-7.071-2.929s-5.195,1.054-7.071,2.929l-24.426,24.426    c-3.905,3.905-3.905,10.237,0,14.142c3.906,3.905,10.236,3.905,14.143,0l17.354-17.355l35.425,35.426    c1.876,1.875,4.419,2.929,7.071,2.929s5.195-1.054,7.071-2.929l45.798-45.797h61.074c5.522,0,10-4.477,10-10v-36.566    c0-0.11-0.013-0.217-0.017-0.326l5.468-27.169H502c5.522,0,10-4.477,10-10v-65.005C512,222.147,498.215,205.022,479.223,200.87z     M430.108,137.525c3.239,0,6.375-0.441,9.361-1.253v19.671c0,17.307-14.08,31.387-31.388,31.387    c-17.307,0-31.387-14.08-31.387-31.387v-18.418H430.108z M410.425,261.698c-2.725-4.696-6.053-8.966-9.854-12.745l-15.125-39.1    c2.427-1.316,4.558-3.092,6.273-5.21c5.144,1.733,10.643,2.687,16.364,2.687c5.654,0,11.091-0.931,16.184-2.626    c1.705,2.088,3.815,3.842,6.217,5.144L410.425,261.698z M376.694,108.326c0-13.197,10.737-23.934,23.935-23.934h45.212v17.4    c0,8.675-7.058,15.732-15.732,15.732h-53.414V108.326z M341.199,220.394l24.777-5.435l7.019,18.145    c-0.879-0.234-1.758-0.469-2.651-0.665l-37.528-8.205C335.261,222.399,338.104,221.073,341.199,220.394z M198.699,75.835    c0-24.913,20.268-45.18,45.18-45.18h79.782V65.21c0,17.559-14.285,31.844-31.844,31.844h-93.118V75.835z M198.699,153.265v-36.211    h93.118c7.661,0,14.933-1.684,21.483-4.68v40.89c0,31.596-25.705,57.301-57.301,57.301S198.699,184.86,198.699,153.265z     M256,230.565c10.132,0,19.806-1.979,28.681-5.539c3.441,5.894,9.019,10.468,15.769,12.507L266,326.587v-54.029    c0-5.523-4.478-10-10-10s-10,4.477-10,10v49.183c-0.274,0.221-0.539,0.455-0.79,0.706l-0.864,0.864l-33.18-85.77    c6.797-2.055,12.41-6.679,15.844-12.638C235.969,228.543,245.75,230.565,256,230.565z M179.074,224.201l-37.46,8.218    c-0.959,0.21-1.91,0.45-2.855,0.705l7.033-18.181l24.995,5.465C173.815,221.071,176.632,222.385,179.074,224.201z     M135.306,155.943c0,17.307-14.08,31.387-31.388,31.387S72.53,173.25,72.53,155.943v-18.418h53.414    c3.239,0,6.375-0.441,9.361-1.253V155.943z M87.554,204.643c5.144,1.733,10.643,2.687,16.364,2.687    c5.654,0,11.091-0.931,16.183-2.626c1.706,2.088,3.815,3.842,6.217,5.144l-15.244,39.406c-1.478,1.491-2.89,3.05-4.212,4.694    c-2.029,2.522-3.836,5.201-5.432,7.992l-20.149-52.087C83.708,208.537,85.839,206.761,87.554,204.643z M72.53,108.326    c0-13.197,10.736-23.934,23.934-23.934h45.213v17.4c0,8.675-7.058,15.732-15.732,15.732H72.53V108.326z M20,295.575V241.57    c0-10.105,7.164-19.011,17.034-21.177l24.778-5.435l30.087,77.778c0.35,0.904,0.82,1.723,1.38,2.456v0.382H20z M113.279,370.655    v-78.15c0-19.351,13.719-36.405,32.619-40.551l45.535-9.989l37.45,96.809l-31.881,31.881H113.279z M328.879,300.451l11.66,11.66    l-45.762,45.762l-14.015-14.015l39.424-101.914l45.887,10.033c11.429,2.499,21.21,9.716,27.021,19.702l-59.117,11.897    c-3.613,0.727-6.534,3.383-7.6,6.911C325.312,294.016,326.272,297.844,328.879,300.451z M367.646,370.655l15.719-15.719    l14.353,14.354c0.316,0.317,0.653,0.607,1.003,0.874v0.491H367.646z M492,296.593h-63.803l3.74-18.585    c0.66-3.282-0.365-6.677-2.732-9.044c-0.035-0.035-0.075-0.063-0.11-0.097l20.86-53.924l24.996,5.465    c9.879,2.16,17.049,11.067,17.049,21.18V296.593z"/>
		<path id="XMLID_1099_" d="M199.569,429.59c-2.63,0-5.21,1.07-7.069,2.93c-1.86,1.87-2.931,4.44-2.931,7.07    c0,2.64,1.07,5.21,2.931,7.08c1.859,1.86,4.439,2.92,7.069,2.92c2.631,0,5.21-1.06,7.07-2.92c1.86-1.87,2.93-4.44,2.93-7.08    c0-2.63-1.069-5.2-2.93-7.07C204.779,430.66,202.2,429.59,199.569,429.59z"/>
	</g>
</g>















</svg>
