<?xml version="1.0" encoding="iso-8859-1"?>
<!-- Generator: Adobe Illustrator 19.0.0, SVG Export Plug-In . SVG Version: 6.00 Build 0)  -->
<svg xmlns="http://www.w3.org/2000/svg" xmlns:xlink="http://www.w3.org/1999/xlink" version="1.1" id="Layer_1" x="0px" y="0px" viewBox="0 0 512 512" style="enable-background:new 0 0 512 512;" xml:space="preserve" width="512" height="512">
<g id="XMLID_2024_">
	<g id="XMLID_252_">
		<path id="XMLID_273_" d="M367.219,492h-0.117c-5.523,0-10,4.477-10,10s4.477,10,10,10h0.117c5.523,0,10-4.477,10-10    S372.742,492,367.219,492z"/>
		<path id="XMLID_276_" d="M507.649,188.08l-59.653-40.839V30c0-16.542-13.458-30-30-30h-324c-16.542,0-30,13.458-30,30v119.237    L4.543,187.951C1.709,189.796,0,192.949,0,196.331v280.043C0,496.019,15.981,512,35.625,512h291.477c5.523,0,10-4.477,10-10    s-4.477-10-10-10H53.49l20-20h88.844c5.523,0,10-4.477,10-10s-4.477-10-10-10H93.49l86.085-86.085    c0.002-0.002,0.003-0.003,0.005-0.005s0.003-0.003,0.005-0.005l29.691-29.691c12.479-12.479,29.072-19.353,46.721-19.353    s34.242,6.873,46.721,19.353L458.503,492h-51.401c-5.523,0-10,4.477-10,10s4.477,10,10,10h69.272    C496.019,512,512,496.019,512,476.375V196.331C512,193.031,510.372,189.944,507.649,188.08z M486.411,197.778l-38.415,38.415    v-64.714L486.411,197.778z M63.996,236.185l-38.204-38.204l38.204-24.877V236.185z M20,476.375V220.474l138.366,138.366    L27.547,489.658c-0.014,0.014-0.025,0.029-0.039,0.043C23.015,486.953,20,482.016,20,476.375z M255.996,296.862    c-22.991,0-44.606,8.953-60.863,25.21l-22.625,22.624l-88.512-88.512V30c0-5.514,4.486-10,10-10h324c5.514,0,10,4.486,10,10    v226.192L339.488,344.7l-22.628-22.628C300.602,305.815,278.987,296.862,255.996,296.862z M484.49,489.702L353.631,358.843    L492,220.474v255.901C492,482.016,488.984,486.954,484.49,489.702z"/>
		<path id="XMLID_281_" d="M341.212,167.677H326.97c-5.523,0-10,4.477-10,10c0,2.787,1.142,5.305,2.981,7.119L307.3,197.447    l-9.357-9.356c-3.905-3.905-10.237-3.904-14.142,0l-21.495,21.495c-3.905,3.905-3.905,10.237,0,14.143    c1.953,1.953,4.512,2.929,7.071,2.929s5.119-0.976,7.071-2.929l14.424-14.424l9.357,9.356c3.905,3.905,10.237,3.905,14.142,0    l19.722-19.722c1.813,1.839,4.332,2.982,7.119,2.982c5.523,0,10-4.477,10-10v-14.242    C351.212,172.154,346.735,167.677,341.212,167.677z"/>
		<path id="XMLID_574_" d="M390.461,197.167c0-46.961-38.206-85.167-85.167-85.167c-14.93,0-28.968,3.874-41.182,10.651V93.539    c3.64-5.338,5.772-11.783,5.772-18.718V50c0-5.523-4.477-10-10-10h-50.018c-22.465,0-40.741,18.276-40.741,40.741v17.393    c0,0.416,0.033,0.823,0.083,1.226c-0.049,0.402-0.083,0.81-0.083,1.226v23.293c0,12.839,5.13,24.497,13.437,33.054l-30.617,6.716    c-17.619,3.865-30.407,19.763-30.407,37.801v49.108c0,5.523,4.477,10,10,10H245.5c0.897,0,1.761-0.129,2.588-0.35    c15.129,13.742,35.207,22.128,57.207,22.128C352.256,282.333,390.461,244.128,390.461,197.167z M189.126,123.877v-15.744h47.447    c2.594,0,5.115-0.308,7.54-0.871v16.615c0,15.16-12.333,27.493-27.493,27.493C201.459,151.371,189.126,139.037,189.126,123.877z     M189.126,80.741c0-11.437,9.305-20.741,20.741-20.741h40.018v14.822c0,7.34-5.972,13.312-13.312,13.312h-47.447V80.741z     M141.539,201.448c0-8.716,6.179-16.398,14.692-18.266l35.233-7.729c4.236-0.929,7.91-3.235,10.623-6.366    c4.583,1.477,9.465,2.283,14.533,2.283c2.633,0,5.212-0.225,7.73-0.639c-2.727,8.328-4.221,17.208-4.221,26.435    c0,15.839,4.36,30.673,11.922,43.39h-90.512V201.448z M305.295,262.333c-35.933,0-65.167-29.234-65.167-65.167    S269.362,132,305.295,132s65.167,29.233,65.167,65.167S341.228,262.333,305.295,262.333z"/>
		<path id="XMLID_1069_" d="M195.26,454.93c-1.86,1.86-2.93,4.44-2.93,7.07c0,2.63,1.07,5.21,2.93,7.07s4.44,2.93,7.07,2.93    c2.64,0,5.21-1.07,7.07-2.93c1.87-1.86,2.93-4.44,2.93-7.07c0-2.63-1.06-5.21-2.93-7.07c-1.86-1.86-4.43-2.93-7.07-2.93    C199.7,452,197.12,453.07,195.26,454.93z"/>
	</g>
</g>















</svg>
