<?xml version="1.0" encoding="iso-8859-1"?>
<!-- Generator: Adobe Illustrator 19.0.0, SVG Export Plug-In . SVG Version: 6.00 Build 0)  -->
<svg xmlns="http://www.w3.org/2000/svg" xmlns:xlink="http://www.w3.org/1999/xlink" version="1.1" id="Layer_1" x="0px" y="0px" viewBox="0 0 512 512" style="enable-background:new 0 0 512 512;" xml:space="preserve" width="512" height="512">
<g id="XMLID_2599_">
	<path id="XMLID_282_" d="M255.854,438c-5.523,0-10-4.477-10-10v-79.428c0-5.523,4.477-10,10-10s10,4.477,10,10V428   C265.854,433.523,261.377,438,255.854,438z"/>
</g>
<g id="XMLID_1578_">
	<g id="XMLID_2343_">
		<g id="XMLID_296_">
			<path id="XMLID_297_" d="M392.06,448.839C352.121,477.075,305.072,492,256,492c-27.156,0-53.776-4.573-79.118-13.593     c-5.204-1.852-10.922,0.865-12.774,6.068c-1.852,5.203,0.865,10.922,6.068,12.774C197.677,507.037,226.552,512,256,512     c53.23,0,104.271-16.193,147.606-46.83c4.509-3.188,5.581-9.429,2.393-13.938S396.57,445.65,392.06,448.839z"/>
			<path id="XMLID_298_" d="M111.197,67.135c2.044,0,4.107-0.625,5.885-1.922C157.63,35.634,205.667,20,256,20     c30.535,0,60.247,5.748,88.309,17.083c5.12,2.071,10.949-0.406,13.017-5.527c2.069-5.121-0.406-10.949-5.527-13.017     C321.346,6.237,289.114,0,256,0c-54.599,0-106.711,16.963-150.705,49.056c-4.461,3.254-5.44,9.51-2.186,13.972     C105.068,65.711,108.111,67.135,111.197,67.135z"/>
			<path id="XMLID_301_" d="M460.465,101.965c11.345-16.362,9.747-39.046-4.818-53.612c-16.376-16.375-43.021-16.375-59.397,0     c-16.375,16.375-16.375,43.021,0,59.397c8.188,8.188,18.943,12.281,29.698,12.281c6.702,0,13.404-1.591,19.485-4.771     C475.919,156.151,492,204.64,492,256c0,30.72-5.815,60.599-17.284,88.806c-2.08,5.116,0.381,10.95,5.497,13.03     c1.234,0.501,2.509,0.739,3.763,0.739c3.948,0,7.688-2.354,9.267-6.236C505.689,321.728,512,289.315,512,256     C512,199.717,494.199,146.608,460.465,101.965z M410.392,93.608c-8.578-8.578-8.578-22.535,0-31.113     c4.29-4.29,9.922-6.434,15.557-6.434c5.633,0,11.268,2.145,15.556,6.434c8.578,8.578,8.578,22.535,0,31.112     S418.969,102.185,410.392,93.608z"/>
			<path id="XMLID_304_" d="M90.052,399.948c-6.313,0-12.391,1.531-17.811,4.414c-0.283-0.531-0.611-1.047-1-1.535     C37.719,360.704,20,309.931,20,256c0-25.049,3.904-49.707,11.604-73.287c1.714-5.25-1.152-10.896-6.402-12.61     c-5.25-1.716-10.896,1.152-12.61,6.402C4.236,202.093,0,228.839,0,256c0,58.502,19.223,113.581,55.592,159.281     c0.707,0.888,1.537,1.617,2.443,2.195c-3.889,6.057-5.983,13.101-5.983,20.471c0,10.15,3.953,19.693,11.13,26.87     c7.177,7.178,16.72,11.13,26.87,11.13s19.693-3.953,26.87-11.13c7.178-7.177,11.13-16.72,11.13-26.87s-3.953-19.693-11.13-26.87     C109.745,403.901,100.202,399.948,90.052,399.948z M102.78,450.676L102.78,450.676c-3.4,3.4-7.92,5.272-12.728,5.272     s-9.328-1.872-12.728-5.272c-3.4-3.399-5.272-7.92-5.272-12.728s1.872-9.328,5.272-12.728c3.399-3.4,7.92-5.272,12.728-5.272     s9.328,1.872,12.728,5.272c3.4,3.399,5.272,7.92,5.272,12.728S106.18,447.276,102.78,450.676z"/>
			<path id="XMLID_305_" d="M82.05,92.05c2.64,0,5.21-1.07,7.07-2.93c1.86-1.86,2.93-4.44,2.93-7.07s-1.07-5.21-2.93-7.07     c-1.86-1.86-4.43-2.93-7.07-2.93c-2.63,0-5.21,1.07-7.07,2.93c-1.86,1.86-2.93,4.44-2.93,7.07s1.07,5.21,2.93,7.07     C76.84,90.98,79.42,92.05,82.05,92.05z"/>
			<path id="XMLID_306_" d="M429.95,419.95c-2.63,0-5.21,1.07-7.07,2.93s-2.93,4.43-2.93,7.07c0,2.63,1.07,5.21,2.93,7.07     c1.86,1.86,4.43,2.93,7.07,2.93c2.63,0,5.21-1.07,7.07-2.93c1.86-1.86,2.93-4.44,2.93-7.07s-1.07-5.21-2.93-7.07     C435.16,421.02,432.58,419.95,429.95,419.95z"/>
			<path id="XMLID_1059_" d="M74,256c0,100.282,81.527,181.879,181.782,181.997c0.024,0,0.048,0.003,0.072,0.003     c0.012,0,0.024-0.001,0.036-0.001c0.037,0,0.073,0.001,0.11,0.001c100.355,0,182-81.645,182-182S356.355,74,256,74     S74,155.645,74,256z M215.367,232.16h67.58c4.795,0,9.398-0.827,13.686-2.331v27.097c0,22.405-18.228,40.633-40.633,40.633     s-40.633-18.228-40.633-40.633V232.16z M304.427,190.679c0,11.845-9.636,21.481-21.48,21.481h-67.58v-13.487     c0-17.377,14.137-31.514,31.514-31.514h57.546V190.679z M360.9,379.344c-24.778,21.104-55.965,34.887-90.194,37.982l35.129-90.81     l32.449,7.095c13.104,2.865,22.614,14.68,22.614,28.094v17.605C360.898,379.32,360.9,379.332,360.9,379.344z M256,317.559     c7.231,0,14.169-1.277,20.605-3.61c2.418,3.389,5.726,6.124,9.621,7.82l-30.372,78.514l-30.369-78.507     c3.926-1.711,7.258-4.477,9.68-7.906C241.665,316.256,248.683,317.559,256,317.559z M205.88,326.532l35.112,90.766     c-34.11-3.148-65.187-16.913-89.892-37.955c0-0.012,0.002-0.023,0.002-0.035v-17.627c0-13.404,9.503-25.217,22.595-28.089     L205.88,326.532z M418,256c0,39.157-13.967,75.113-37.177,103.151c-1.154-21.674-16.886-40.405-38.267-45.079l-47.838-10.459     c-0.019-0.004-0.036-0.013-0.055-0.017c13.413-11.131,21.971-27.918,21.971-46.669v-42.086c4.898-6.81,7.794-15.151,7.794-24.161     v-33.521c0-5.523-4.477-10-10-10h-67.546c-28.405,0-51.514,23.109-51.514,51.514v23.487c0,0.565,0.058,1.116,0.148,1.655     c-0.09,0.54-0.148,1.09-0.148,1.655v31.456c0,18.717,8.529,35.477,21.9,46.608c-0.091,0.029-0.179,0.065-0.273,0.086     l-47.582,10.438c-21.369,4.688-37.091,23.426-38.236,45.092C107.966,331.112,94,295.157,94,256c0-89.327,72.673-162,162-162     S418,166.673,418,256z"/>
		</g>
	</g>
</g>















</svg>
