<?xml version="1.0" encoding="iso-8859-1"?>
<!-- Generator: Adobe Illustrator 19.0.0, SVG Export Plug-In . SVG Version: 6.00 Build 0)  -->
<svg xmlns="http://www.w3.org/2000/svg" xmlns:xlink="http://www.w3.org/1999/xlink" version="1.1" id="Layer_1" x="0px" y="0px" viewBox="0 0 512 512" style="enable-background:new 0 0 512 512;" xml:space="preserve" width="512" height="512">
<g id="XMLID_1906_">
	<g id="XMLID_321_">
		<path id="XMLID_324_" d="M502,348H366v-90v-69.977c0-20.398-14.463-38.365-34.391-42.722l-39.17-8.564    c10.825-9.894,17.628-24.119,17.628-39.905V60.615c4.268-6.076,6.784-13.468,6.784-21.441V10c0-5.523-4.477-10-10-10h-58.788    c-25.437,0-46.131,20.694-46.131,46.131v20.442c0,0.491,0.047,0.969,0.115,1.441c-0.068,0.472-0.115,0.95-0.115,1.441v27.377    c0,15.766,6.786,29.975,17.588,39.867l-39.159,8.59C160.451,149.656,146,167.621,146,188.004V258v90H10c-5.523,0-10,4.477-10,10    v144c0,5.523,4.477,10,10,10h146h200h146c5.523,0,10-4.477,10-10v-32c0-5.523-4.477-10-10-10s-10,4.477-10,10v22H366V368h126v22    c0,5.523,4.477,10,10,10s10-4.477,10-10v-32C512,352.477,507.523,348,502,348z M346,188.023V248h-76.113l30.617-89.028    l26.833,5.867C338.151,167.204,346,176.954,346,188.023z M221.932,76.573h57.521c3.687,0,7.248-0.545,10.615-1.544v21.802    c0,18.785-15.283,34.068-34.068,34.068s-34.068-15.283-34.068-34.068V76.573z M238.343,147.923    c5.537,1.919,11.474,2.976,17.657,2.976c6.108,0,11.976-1.033,17.457-2.908c2.008,2.564,4.591,4.668,7.572,6.111L266,197.803    v-8.144c0-5.523-4.477-10-10-10s-10,4.477-10,10v8.883l-15.281-44.434C233.727,152.651,236.328,150.52,238.343,147.923z     M221.932,46.131c0-14.409,11.723-26.131,26.131-26.131h48.788v19.174c0,9.594-7.805,17.399-17.399,17.399h-57.521V46.131z     M166,188.004c0-11.062,7.842-20.811,18.646-23.181l26.601-5.835L241.859,248H166V188.004z M20,368h126v124H20V368z M166,358    v-49.346h89.873c5.523,0,10-4.477,10-10s-4.477-10-10-10H166V268h180v90v134H166V358z"/>
		<path id="XMLID_1038_" d="M408,34.415c5.523,0,10-4.477,10-10V10c0-5.523-4.477-10-10-10s-10,4.477-10,10v14.415    C398,29.938,402.477,34.415,408,34.415z"/>
		<path id="XMLID_1039_" d="M408,100c5.523,0,10-4.477,10-10V75.585c0-5.523-4.477-10-10-10s-10,4.477-10,10V90    C398,95.523,402.477,100,408,100z"/>
		<path id="XMLID_1040_" d="M433.585,60H448c5.523,0,10-4.477,10-10s-4.477-10-10-10h-14.415c-5.523,0-10,4.477-10,10    S428.063,60,433.585,60z"/>
		<path id="XMLID_1044_" d="M368,60h14.415c5.523,0,10-4.477,10-10s-4.477-10-10-10H368c-5.523,0-10,4.477-10,10S362.477,60,368,60z    "/>
		<path id="XMLID_1051_" d="M79.5,186.622c5.523,0,10-4.477,10-10v-14.415c0-5.523-4.477-10-10-10s-10,4.477-10,10v14.415    C69.5,182.145,73.977,186.622,79.5,186.622z"/>
		<path id="XMLID_1052_" d="M79.5,252.208c5.523,0,10-4.477,10-10v-14.415c0-5.523-4.477-10-10-10s-10,4.477-10,10v14.415    C69.5,247.73,73.977,252.208,79.5,252.208z"/>
		<path id="XMLID_1053_" d="M105.085,212.208H119.5c5.523,0,10-4.477,10-10s-4.477-10-10-10h-14.415c-5.523,0-10,4.477-10,10    S99.563,212.208,105.085,212.208z"/>
		<path id="XMLID_1054_" d="M39.5,212.208h14.415c5.523,0,10-4.477,10-10s-4.477-10-10-10H39.5c-5.523,0-10,4.477-10,10    S33.977,212.208,39.5,212.208z"/>
		<path id="XMLID_1055_" d="M295.87,288.65c-2.63,0-5.21,1.07-7.07,2.93c-1.86,1.86-2.93,4.44-2.93,7.07c0,2.64,1.07,5.21,2.93,7.07    c1.86,1.87,4.44,2.93,7.07,2.93c2.64,0,5.21-1.06,7.07-2.93c1.87-1.86,2.93-4.43,2.93-7.07c0-2.63-1.06-5.2-2.93-7.07    C301.08,289.72,298.51,288.65,295.87,288.65z"/>
		<path id="XMLID_1056_" d="M502,420c-2.63,0-5.21,1.07-7.07,2.93c-1.86,1.86-2.93,4.44-2.93,7.07c0,2.63,1.07,5.21,2.93,7.07    c1.86,1.86,4.44,2.93,7.07,2.93c2.63,0,5.21-1.07,7.07-2.93S512,432.63,512,430c0-2.63-1.07-5.21-2.93-7.07    C507.21,421.07,504.63,420,502,420z"/>
	</g>
</g>















</svg>
