<?xml version="1.0" encoding="iso-8859-1"?>
<!-- Generator: Adobe Illustrator 19.0.0, SVG Export Plug-In . SVG Version: 6.00 Build 0)  -->
<svg xmlns="http://www.w3.org/2000/svg" xmlns:xlink="http://www.w3.org/1999/xlink" version="1.1" id="Layer_1" x="0px" y="0px" viewBox="0 0 512 512" style="enable-background:new 0 0 512 512;" xml:space="preserve" width="512" height="512">
<g id="XMLID_2003_">
	<g id="XMLID_338_">
		<path id="XMLID_341_" d="M504.134,179.518l-70.33-70.33l-49.851-49.851c-0.005-0.005-0.01-0.011-0.015-0.016    c-0.002-0.002-0.005-0.004-0.008-0.007L332.482,7.867C327.409,2.794,320.665,0,313.491,0s-13.918,2.793-18.992,7.866    l-45.704,45.704l-18.489-18.489c-8.091-8.091-21.256-8.091-29.347,0l-10.367,10.367L88.078,147.963    c-8.091,8.091-8.091,21.256,0,29.347l18.489,18.489l-45.704,45.704c-5.073,5.073-7.867,11.817-7.867,18.991    s2.793,13.918,7.866,18.992l35.031,35.031l-52.836,52.836c-3.905,3.905-3.905,10.237,0,14.143    c1.953,1.953,4.512,2.929,7.071,2.929s5.119-0.976,7.071-2.929l52.836-52.836l2.28,2.28c0,0,0.001,0.001,0.001,0.002    c0.001,0.001,0.002,0.002,0.003,0.003l27.296,27.296L2.929,494.929c-3.905,3.905-3.905,10.237,0,14.143    C4.882,511.024,7.441,512,10,512s5.119-0.976,7.071-2.929L153.76,372.383l29.762,29.762l-63.129,63.129    c-3.905,3.905-3.905,10.237,0,14.143c1.952,1.953,4.512,2.929,7.071,2.929s5.119-0.977,7.071-2.929l63.129-63.13l34.851,34.85    c5.073,5.073,11.817,7.866,18.991,7.866s13.918-2.794,18.991-7.866l153.413-153.412c3.905-3.905,3.905-10.237,0-14.143    c-3.905-3.905-10.237-3.905-14.143,0L256.354,436.996c-1.295,1.295-3.017,2.008-4.849,2.008c-1.832,0-3.554-0.713-4.85-2.008    l-41.919-41.919c-0.001-0.001-0.001-0.002-0.002-0.003s-0.002-0.002-0.003-0.002l-54.389-54.39    c4.528-1.31,8.874-3.47,12.789-6.496l78.064-60.322l5.698,5.698c1.875,1.875,4.419,2.929,7.071,2.929s5.196-1.054,7.071-2.929    l4.849-4.849l10.213,10.214c8.522,8.522,19.717,12.783,30.912,12.783c11.194,0,22.389-4.261,30.912-12.783    c8.257-8.257,12.804-19.235,12.804-30.912s-4.547-22.655-12.804-30.911l-10.213-10.214l4.849-4.849    c3.905-3.905,3.905-10.237,0-14.142l-5.698-5.698l60.322-78.064c3.027-3.917,5.181-8.265,6.491-12.794l25.989,25.989l70.33,70.33    c1.295,1.295,2.008,3.017,2.008,4.849c0,1.832-0.713,3.554-2.009,4.849l-23.656,23.656c-3.905,3.905-3.905,10.237,0,14.143    c1.953,1.953,4.512,2.929,7.071,2.929s5.119-0.976,7.071-2.929l23.656-23.656c5.073-5.073,7.866-11.818,7.866-18.992    S509.207,184.591,504.134,179.518z M102.22,163.168c-0.293-0.292-0.293-0.77,0-1.062L204.735,59.591l10.367-10.367    c0.054-0.055,0.22-0.22,0.531-0.22s0.477,0.165,0.531,0.22l18.489,18.489L120.71,181.657L102.22,163.168z M244.267,248.65    l57.379-57.379l9.698,9.699l-4.844,4.844c-0.002,0.002-0.003,0.003-0.005,0.005l-47.681,47.681    c-0.002,0.002-0.003,0.003-0.005,0.005l-4.844,4.845L244.267,248.65z M323.78,237.245c4.479,4.479,6.946,10.435,6.946,16.769    c0,6.335-2.467,12.291-6.946,16.77c-9.246,9.247-24.292,9.247-33.539,0l-10.213-10.214l33.539-33.539L323.78,237.245z     M371.357,97.908l-58.755,76.035l-3.885-3.885c-1.875-1.875-4.419-2.929-7.071-2.929c-2.652,0-5.196,1.054-7.071,2.929    l-71.521,71.521c-3.905,3.905-3.905,10.237,0,14.142l3.885,3.885l-76.035,58.755c-7.358,5.687-17.866,5.016-24.442-1.561    c-0.001-0.001-0.002-0.002-0.003-0.003l-51.453-51.453c-1.295-1.295-2.009-3.017-2.009-4.849c0-1.832,0.713-3.554,2.009-4.849    L308.642,22.008c1.295-1.295,3.017-2.008,4.849-2.008c1.832,0,3.554,0.713,4.849,2.008l51.459,51.459    C376.372,80.043,377.042,90.549,371.357,97.908z"/>
		<path id="XMLID_1018_" d="M97.81,492c-2.63,0-5.21,1.07-7.07,2.93c-1.86,1.86-2.93,4.44-2.93,7.07c0,2.63,1.07,5.21,2.93,7.07    s4.44,2.93,7.07,2.93c2.63,0,5.21-1.07,7.07-2.93s2.93-4.44,2.93-7.07c0-2.63-1.07-5.21-2.93-7.07    C103.02,493.07,100.44,492,97.81,492z"/>
		<path id="XMLID_1019_" d="M445.06,252.31c-2.63,0-5.21,1.07-7.07,2.93s-2.93,4.44-2.93,7.07c0,2.63,1.07,5.21,2.93,7.07    s4.44,2.93,7.07,2.93c2.64,0,5.21-1.07,7.07-2.93c1.87-1.86,2.93-4.44,2.93-7.07c0-2.63-1.06-5.21-2.93-7.07    C450.27,253.38,447.7,252.31,445.06,252.31z"/>
	</g>
</g>















</svg>
