<?xml version="1.0" encoding="iso-8859-1"?>
<!-- Generator: Adobe Illustrator 19.0.0, SVG Export Plug-In . SVG Version: 6.00 Build 0)  -->
<svg xmlns="http://www.w3.org/2000/svg" xmlns:xlink="http://www.w3.org/1999/xlink" version="1.1" id="Layer_1" x="0px" y="0px" viewBox="0 0 512 512" style="enable-background:new 0 0 512 512;" xml:space="preserve" width="512" height="512">
<g id="XMLID_1674_">
	<g id="XMLID_358_">
		<path id="XMLID_361_" d="M185.609,423.301l-39.169-8.564c10.825-9.894,17.628-24.119,17.628-39.905v-36.217    c4.268-6.076,6.784-13.468,6.784-21.441V288c0-5.523-4.477-10-10-10h-58.788c-25.437,0-46.131,20.694-46.131,46.131v20.442    c0,0.491,0.047,0.969,0.115,1.441c-0.068,0.472-0.115,0.95-0.115,1.441v27.377c0,15.766,6.786,29.975,17.588,39.867l-39.159,8.59    C14.451,427.656,0,445.621,0,466.004V502c0,5.523,4.477,10,10,10h200c5.523,0,10-4.477,10-10v-35.977    C220,445.626,205.537,427.658,185.609,423.301z M75.932,354.573h57.521c3.687,0,7.248-0.545,10.615-1.544v21.802    c0,18.785-15.283,34.068-34.068,34.068s-34.068-15.283-34.068-34.068V354.573z M92.343,425.923    c5.537,1.919,11.474,2.976,17.657,2.976c6.108,0,11.976-1.033,17.457-2.908c1.715,2.19,3.851,4.04,6.295,5.435l-23.878,48.088    l-23.876-48.083C88.466,430.021,90.62,428.144,92.343,425.923z M75.932,324.131c0-14.409,11.723-26.131,26.131-26.131h48.788    v19.174c0,9.594-7.805,17.399-17.399,17.399H75.932V324.131z M20,466.004c0-11.062,7.842-20.811,18.646-23.181l27.665-6.069    L93.743,492H20V466.004z M200,492h-73.997l27.439-55.26l27.895,6.099C192.151,445.204,200,454.954,200,466.023V492z"/>
		<path id="XMLID_368_" d="M185.609,145.301l-39.169-8.564c10.825-9.894,17.628-24.119,17.628-39.905V60.615    c4.268-6.076,6.784-13.468,6.784-21.441V10c0-5.523-4.477-10-10-10h-58.788C76.626,0,55.932,20.694,55.932,46.131v20.442    c0,0.491,0.047,0.969,0.115,1.441c-0.068,0.472-0.115,0.95-0.115,1.441v27.377c0,15.766,6.786,29.975,17.588,39.867l-39.159,8.59    C14.451,149.656,0,167.621,0,188.004V224c0,5.523,4.477,10,10,10h200c5.523,0,10-4.477,10-10v-35.977    C220,167.626,205.537,149.658,185.609,145.301z M75.932,76.573h57.521c3.687,0,7.248-0.545,10.615-1.544v21.802    c0,18.785-15.283,34.068-34.068,34.068s-34.068-15.283-34.068-34.068V76.573z M92.343,147.923    c5.537,1.919,11.474,2.976,17.657,2.976c6.108,0,11.976-1.033,17.457-2.908c1.715,2.19,3.851,4.04,6.295,5.435l-23.878,48.088    l-23.876-48.083C88.466,152.021,90.62,150.144,92.343,147.923z M75.932,46.131C75.932,31.723,87.655,20,102.063,20h48.788v19.174    c0,9.594-7.805,17.399-17.399,17.399H75.932V46.131z M20,188.004c0-11.062,7.842-20.811,18.646-23.181l27.665-6.069L93.743,214H20    V188.004z M200,214h-73.997l27.439-55.26l27.895,6.099C192.151,167.204,200,176.954,200,188.023V214z"/>
		<path id="XMLID_373_" d="M494.458,389.307c-0.727-3.613-3.383-6.534-6.911-7.6c-3.529-1.067-7.357-0.105-9.963,2.501    l-14.354,14.354l-10.815-10.816c-3.905-3.904-10.238-3.904-14.142,0c-3.906,3.905-3.906,10.237,0,14.142l17.886,17.887    c3.906,3.906,10.238,3.906,14.142,0l8.232-8.231l10.696,53.149l-53.149-10.696l5.538-5.538c3.905-3.905,3.905-10.237,0-14.143    l-59.904-59.904c-1.875-1.875-4.419-2.929-7.071-2.929s-5.196,1.054-7.071,2.929l-35.425,35.426l-61.856-61.857l-9.415-9.416    l14.541-14.54l16.396,16.396l33.263,33.264c1.875,1.875,4.419,2.929,7.071,2.929s5.196-1.054,7.071-2.929l35.425-35.426    l7.061,7.061c3.905,3.904,10.237,3.904,14.143,0c3.905-3.905,3.905-10.237,0-14.143l-14.132-14.132    c-1.875-1.875-4.419-2.929-7.071-2.929s-5.196,1.054-7.071,2.929l-35.425,35.426l-26.192-26.193l0,0c0,0,0,0,0,0l-23.467-23.467    c-3.904-3.904-10.236-3.904-14.142,0l-28.683,28.682c-3.905,3.905-3.906,10.237,0,14.142l16.481,16.482    c0.002,0.002,0.003,0.003,0.005,0.005l68.928,68.928c1.875,1.875,4.419,2.929,7.071,2.929s5.196-1.054,7.071-2.929l35.425-35.426    l45.762,45.762l-11.66,11.66c-2.606,2.606-3.568,6.435-2.502,9.963s3.986,6.184,7.6,6.911l86.184,17.344    c0.656,0.132,1.317,0.197,1.973,0.197c2.625,0,5.177-1.035,7.071-2.929c2.367-2.367,3.393-5.762,2.732-9.044L494.458,389.307z"/>
		<path id="XMLID_1015_" d="M268.345,209.188c1.953,1.953,4.512,2.929,7.071,2.929s5.118-0.976,7.071-2.929l23.467-23.467    c0,0,0,0,0,0l0,0l26.192-26.193l35.425,35.426c1.953,1.953,4.512,2.929,7.071,2.929c2.559,0,5.119-0.977,7.071-2.929    l19.607-19.607c3.905-3.905,3.906-10.237,0-14.142c-3.905-3.906-10.237-3.904-14.142,0l-12.537,12.536l-35.425-35.426    c-1.875-1.875-4.419-2.929-7.071-2.929s-5.196,1.054-7.071,2.929l-33.263,33.264l-16.396,16.396l-14.541-14.54l9.415-9.416    l61.856-61.857l35.425,35.426c1.875,1.875,4.419,2.929,7.071,2.929s5.196-1.054,7.071-2.929l59.904-59.904    c3.905-3.905,3.905-10.237,0-14.143l-5.538-5.538l53.149-10.696l-10.696,53.149l-8.232-8.231c-3.905-3.905-10.237-3.905-14.142,0    l-12.411,12.41c-3.905,3.905-3.905,10.237,0,14.143s10.237,3.905,14.143,0l5.339-5.34l14.354,14.354    c2.605,2.606,6.437,3.566,9.963,2.501c3.528-1.066,6.184-3.986,6.911-7.6l17.345-86.184c0.661-3.282-0.365-6.677-2.732-9.044    c-2.367-2.368-5.759-3.394-9.044-2.732l-86.184,17.344c-3.613,0.727-6.534,3.383-7.6,6.911s-0.104,7.357,2.502,9.963l11.66,11.66    l-45.762,45.762l-35.425-35.426c-1.875-1.875-4.419-2.929-7.071-2.929s-5.196,1.054-7.071,2.929l-68.928,68.928    c-0.002,0.002-0.003,0.003-0.005,0.005l-16.481,16.482c-3.905,3.905-3.905,10.237,0,14.142L268.345,209.188z"/>
		<path id="XMLID_1016_" d="M432.61,140.07c0-2.64-1.07-5.21-2.93-7.08c-1.86-1.86-4.44-2.93-7.07-2.93s-5.21,1.07-7.07,2.93    c-1.86,1.87-2.93,4.44-2.93,7.08c0,2.63,1.07,5.21,2.93,7.07c1.86,1.86,4.44,2.92,7.07,2.92s5.21-1.06,7.07-2.92    C431.54,145.28,432.61,142.7,432.61,140.07z"/>
		<path id="XMLID_1017_" d="M410.071,359.381l-0.082,0.082c-3.905,3.905-3.905,10.237,0,14.143c1.953,1.953,4.512,2.929,7.071,2.929    s5.119-0.976,7.071-2.929l0.082-0.082c3.905-3.905,3.905-10.237,0-14.143C420.309,355.476,413.977,355.476,410.071,359.381z"/>
	</g>
</g>















</svg>
