<?xml version="1.0" encoding="iso-8859-1"?>
<!-- Generator: Adobe Illustrator 19.0.0, SVG Export Plug-In . SVG Version: 6.00 Build 0)  -->
<svg xmlns="http://www.w3.org/2000/svg" xmlns:xlink="http://www.w3.org/1999/xlink" version="1.1" id="Layer_1" x="0px" y="0px" viewBox="0 0 511.993 511.993" style="enable-background:new 0 0 511.993 511.993;" xml:space="preserve" width="512" height="512">
<g id="XMLID_1214_">
	<g id="XMLID_387_">
		<path id="XMLID_390_" d="M394.948,355.652c-43.102-10.124-86.141,1.135-115.127,30.121c-5.186,5.186-9.794,10.829-13.824,16.834    V275.635c71.443-5.141,128-64.905,128-137.635c0-76.093-61.906-138-138-138s-138,61.907-138,138    c0,72.73,56.557,132.494,128,137.635v126.973c-4.03-6.006-8.638-11.648-13.824-16.834    c-28.986-28.985-72.025-40.246-115.127-30.121c-3.694,0.868-6.58,3.753-7.448,7.448c-10.123,43.102,1.137,86.14,30.122,115.126    c21.98,21.979,52.038,33.766,84.079,33.766c10.213,0,20.63-1.198,31.048-3.645c0.395-0.093,0.775-0.22,1.15-0.357    c0.375,0.137,0.755,0.264,1.15,0.357c10.421,2.448,20.832,3.645,31.048,3.645c32.038,0,62.101-11.788,84.079-33.767    c28.985-28.986,40.245-72.023,30.122-115.125C401.528,359.405,398.642,356.52,394.948,355.652z M276.05,122.816    c2.624,0,5.175-0.314,7.627-0.888v16.761c0,15.263-12.418,27.68-27.681,27.68s-27.681-12.417-27.681-27.68v-15.873H276.05z     M331.502,228.606c-16.89,14.099-37.764,23.576-60.664,26.463l23.839-61.626l22.006,4.812c8.586,1.877,14.818,9.619,14.818,18.408    V228.606z M241.376,184.067c4.61,1.489,9.521,2.302,14.621,2.302c5.038,0,9.894-0.792,14.457-2.247    c1.378,1.584,3.002,2.952,4.825,4.038l-19.39,50.122L236.5,188.165C238.345,187.065,239.987,185.676,241.376,184.067z     M289.477,89.389c0,7.404-6.023,13.428-13.427,13.428h-47.734v-7.479c0-11.521,9.373-20.894,20.895-20.894h40.267V89.389z     M217.104,193.458l23.823,61.584c-22.811-2.92-43.602-12.383-60.437-26.435v-11.959c0-8.783,6.227-16.523,14.806-18.405    L217.104,193.458z M137.996,138c0-65.065,52.935-118,118-118s118,52.935,118,118c0,26.382-8.704,50.769-23.389,70.442    c-3.2-14.547-14.691-26.454-29.652-29.725l-30.86-6.748c8.395-8.599,13.582-20.343,13.582-33.281v-30.506    c3.657-5.359,5.8-11.83,5.8-18.794V64.443c0-5.523-4.478-10-10-10H249.21c-22.55,0-40.895,18.345-40.895,40.894v17.479    c0,0.418,0.034,0.827,0.083,1.232c-0.05,0.405-0.083,0.814-0.083,1.232v23.409c0,12.922,5.175,24.652,13.552,33.249l-30.856,6.769    c-14.95,3.279-26.433,15.19-29.627,29.732C146.699,188.766,137.996,164.381,137.996,138z M153.862,464.084    c-22.69-22.692-32.225-56.052-26.073-90.242c34.188-6.15,67.551,3.382,90.241,26.073c19.897,19.896,29.675,47.991,27.635,77.66    l-30.62-30.62c-3.906-3.905-10.236-3.905-14.143,0c-3.905,3.905-3.905,10.237,0,14.143l30.62,30.62    C201.858,493.757,173.758,483.979,153.862,464.084z M358.131,464.084c-19.896,19.895-47.994,29.671-77.66,27.634l30.619-30.619    c3.905-3.905,3.905-10.237,0-14.143c-3.906-3.905-10.236-3.905-14.143,0l-30.619,30.619c-2.038-29.668,7.74-57.765,27.635-77.66    c22.691-22.691,56.052-32.224,90.241-26.073C390.356,408.033,380.822,441.393,358.131,464.084z"/>
		<path id="XMLID_398_" d="M325.457,418.447l-0.126,0.126c-3.905,3.905-3.905,10.237,0,14.143c1.953,1.953,4.512,2.929,7.071,2.929    s5.118-0.976,7.071-2.929l0.126-0.126c3.905-3.905,3.905-10.237,0-14.143C335.694,414.542,329.364,414.542,325.457,418.447z"/>
		<path id="XMLID_1001_" d="M186.535,418.447c-3.906-3.905-10.236-3.905-14.143,0c-3.905,3.905-3.905,10.237,0,14.143l0.126,0.126    c1.953,1.953,4.512,2.929,7.071,2.929s5.118-0.976,7.071-2.929c3.905-3.905,3.905-10.237,0-14.143L186.535,418.447z"/>
		<path id="XMLID_1004_" d="M447.996,14c-5.522,0-10,4.477-10,10v14.415c0,5.523,4.478,10,10,10s10-4.477,10-10V24    C457.996,18.477,453.519,14,447.996,14z"/>
		<path id="XMLID_1005_" d="M447.996,79.585c-5.522,0-10,4.477-10,10V104c0,5.523,4.478,10,10,10s10-4.477,10-10V89.585    C457.996,84.063,453.519,79.585,447.996,79.585z"/>
		<path id="XMLID_1007_" d="M487.996,54h-14.414c-5.522,0-10,4.477-10,10s4.478,10,10,10h14.414c5.522,0,10-4.477,10-10    S493.519,54,487.996,54z"/>
		<path id="XMLID_1009_" d="M422.41,54h-14.414c-5.522,0-10,4.477-10,10s4.478,10,10,10h14.414c5.522,0,10-4.477,10-10    S427.933,54,422.41,54z"/>
		<path id="XMLID_1011_" d="M63.996,246.386c-5.522,0-10,4.477-10,10v14.415c0,5.523,4.478,10,10,10s10-4.477,10-10v-14.415    C73.996,250.863,69.519,246.386,63.996,246.386z"/>
		<path id="XMLID_1012_" d="M63.996,311.972c-5.522,0-10,4.477-10,10v14.415c0,5.523,4.478,10,10,10s10-4.477,10-10v-14.415    C73.996,316.449,69.519,311.972,63.996,311.972z"/>
		<path id="XMLID_1013_" d="M113.996,296.386c0-5.523-4.478-10-10-10H89.582c-5.522,0-10,4.477-10,10s4.478,10,10,10h14.414    C109.519,306.386,113.996,301.909,113.996,296.386z"/>
		<path id="XMLID_1014_" d="M38.41,286.386H23.996c-5.522,0-10,4.477-10,10s4.478,10,10,10H38.41c5.522,0,10-4.477,10-10    S43.933,286.386,38.41,286.386z"/>
	</g>
</g>















</svg>
