<?xml version="1.0" encoding="iso-8859-1"?>
<!-- Generator: Adobe Illustrator 19.0.0, SVG Export Plug-In . SVG Version: 6.00 Build 0)  -->
<svg xmlns="http://www.w3.org/2000/svg" xmlns:xlink="http://www.w3.org/1999/xlink" version="1.1" id="Layer_1" x="0px" y="0px" viewBox="0 0 512 512" style="enable-background:new 0 0 512 512;" xml:space="preserve" width="512" height="512">
<g id="XMLID_1235_">
	<g id="XMLID_412_">
		<path id="XMLID_415_" d="M440,0H136c-16.542,0-30,13.458-30,30v17.999H72c-16.542,0-30,13.458-30,30v98.695    c0,5.523,4.478,10,10,10s10-4.477,10-10V77.999c0-5.514,4.486-10,10-10h304c5.514,0,10,4.486,10,10v326h-58    c-16.542,0-30,13.458-30,30v58H160.4H72c-5.514,0-10-4.486-10-10V256.694c0-5.523-4.478-10-10-10s-10,4.477-10,10v225.305    c0,16.542,13.458,30,30,30h88.4h147.588c0.003,0,0.007,0,0.01,0c2.603,0,5.16-1.017,7.073-2.929l45.113-45.113H440    c16.542,0,30-13.458,30-30v-39.333c0-5.523-4.478-10-10-10s-10,4.477-10,10v39.333c0,5.514-4.486,10-10,10h-59.815l22.887-22.887    c1.911-1.911,2.903-4.467,2.905-7.067c0.008-0.001,0.016-0.003,0.024-0.004v-336c0-16.542-13.458-30-30-30H126V30    c0-5.514,4.486-10,10-10h304c5.514,0,10,4.486,10,10v284.625c0,5.523,4.478,10,10,10s10-4.477,10-10V30    C470,13.458,456.542,0,440,0z M318,433.999c0-5.514,4.486-10,10-10h43.857L318,477.857V433.999z"/>
		<path id="XMLID_416_" d="M52,226.689c2.63,0,5.21-1.06,7.069-2.92c1.86-1.87,2.931-4.44,2.931-7.07c0-2.64-1.07-5.21-2.931-7.08    c-1.859-1.86-4.439-2.93-7.069-2.93s-5.21,1.07-7.07,2.93c-1.86,1.87-2.93,4.44-2.93,7.08c0,2.63,1.069,5.2,2.93,7.07    C46.79,225.629,49.37,226.689,52,226.689z"/>
		<path id="XMLID_419_" d="M224,96.063c-65.065,0-118,52.935-118,118c0,65.02,52.86,117.924,117.863,117.998    c0.015,0,0.03,0.002,0.045,0.002c0.008,0,0.015-0.001,0.023-0.001c0.023,0,0.046,0.001,0.069,0.001c65.065,0,118-52.935,118-118    S289.065,96.063,224,96.063z M240.92,202.813c1.66,0,3.286-0.143,4.873-0.406v12.236c0,12.017-9.776,21.793-21.793,21.793    s-21.793-9.776-21.793-21.793v-11.83H240.92z M286.145,289.781c-13.278,10.918-29.466,18.419-47.207,21.144l18.673-48.271    l17.261,3.774c6.532,1.428,11.273,7.318,11.273,14.005V289.781z M212.156,254.717c3.758,1.113,7.73,1.72,11.844,1.72    c4.063,0,7.988-0.594,11.705-1.68c0.806,0.83,1.696,1.578,2.649,2.245l-14.446,37.344l-14.445-37.34    C210.433,256.326,211.338,255.564,212.156,254.717z M250.686,173.047c0,5.385-4.381,9.767-9.767,9.767h-38.713v-4.748    c0-8.859,7.208-16.067,16.067-16.067h32.412V173.047z M190.21,262.668l18.655,48.225c-17.665-2.75-33.782-10.234-47.011-21.112    v-9.361c0-6.682,4.737-12.571,11.265-14.003L190.21,262.668z M304.468,269.93c-3.703-11.362-13.229-20.395-25.324-23.039    l-23.394-5.115c6.254-7.307,10.043-16.783,10.043-27.132v-25.273c3.089-4.691,4.894-10.299,4.894-16.324v-21.048    c0-5.523-4.478-10-10-10h-42.412c-19.888,0-36.067,16.18-36.067,36.067v14.748c0,0.351,0.019,0.698,0.054,1.04    c-0.035,0.342-0.054,0.688-0.054,1.04v19.751c0,10.337,3.781,19.803,10.021,27.106l-23.394,5.132    c-12.086,2.651-21.605,11.686-25.305,23.044C132.486,254.068,126,234.81,126,214.063c0-54.038,43.963-98,98-98s98,43.962,98,98    C322,234.811,315.512,254.071,304.468,269.93z"/>
		<path id="XMLID_995_" d="M242.635,372.251c-1.876-1.875-4.419-2.929-7.071-2.929s-5.195,1.054-7.071,2.929l-37.1,37.1    c-3.905,3.905-3.905,10.237,0,14.142c1.953,1.953,4.512,2.929,7.071,2.929s5.118-0.977,7.071-2.929l30.028-30.029l19.617,19.618    c1.876,1.875,4.419,2.929,7.071,2.929s5.195-1.054,7.071-2.929l44.672-44.673c1.651,3.252,5.018,5.485,8.915,5.485    c5.522,0,10-4.477,10-10v-18.542c0-5.523-4.478-10-10-10h-18.542c-5.522,0-10,4.477-10,10c0,3.896,2.233,7.264,5.485,8.914    l-37.601,37.602L242.635,372.251z"/>
		<path id="XMLID_996_" d="M106.2,423.999h36.917c5.522,0,10-4.477,10-10s-4.478-10-10-10H106.2c-5.522,0-10,4.477-10,10    S100.677,423.999,106.2,423.999z"/>
		<path id="XMLID_997_" d="M96.2,373.999c0,5.523,4.478,10,10,10h73.834c5.522,0,10-4.477,10-10s-4.478-10-10-10H106.2    C100.677,363.999,96.2,368.476,96.2,373.999z"/>
		<path id="XMLID_998_" d="M460,344.619c-2.63,0-5.21,1.07-7.07,2.93c-1.86,1.87-2.93,4.44-2.93,7.07c0,2.64,1.069,5.21,2.93,7.08    c1.86,1.86,4.44,2.93,7.07,2.93s5.21-1.07,7.069-2.93c1.86-1.87,2.931-4.44,2.931-7.08c0-2.63-1.07-5.2-2.931-7.07    C465.21,345.689,462.63,344.619,460,344.619z"/>
	</g>
</g>















</svg>
