<?xml version="1.0" encoding="iso-8859-1"?>
<!-- Generator: Adobe Illustrator 19.0.0, SVG Export Plug-In . SVG Version: 6.00 Build 0)  -->
<svg xmlns="http://www.w3.org/2000/svg" xmlns:xlink="http://www.w3.org/1999/xlink" version="1.1" id="Layer_1" x="0px" y="0px" viewBox="0 0 512 512" style="enable-background:new 0 0 512 512;" xml:space="preserve" width="512" height="512">
<g id="XMLID_1034_">
	<g id="XMLID_225_">
		<path id="XMLID_226_" d="M406.357,104.995c2.554,0,5.107-0.972,7.06-2.917l13.039-12.995c1.882-1.876,2.94-4.425,2.94-7.083    V39.657c0-5.523-4.478-10-10-10s-10,4.477-10,10v38.191l-10.099,10.064c-3.911,3.898-3.922,10.23-0.023,14.142    C401.229,104.015,403.792,104.995,406.357,104.995z"/>
		<path id="XMLID_447_" d="M486.5,397c14.061,0,25.5-11.439,25.5-25.5v-129c0-14.061-11.439-25.5-25.5-25.5H418    c-5.522,0-10,4.477-10,10s4.478,10,10,10h68.5c3.033,0,5.5,2.467,5.5,5.5v129c0,3.033-2.467,5.5-5.5,5.5H408v-50    c0-16.542-13.458-30-30-30s-30,13.458-30,30v50h-78.594c-3.033,0-5.5-2.467-5.5-5.5v-129c0-3.033,2.467-5.5,5.5-5.5H338    c5.522,0,10-4.477,10-10s-4.478-10-10-10h-68.594c-14.061,0-25.5,11.439-25.5,25.5v99.522    c-6.548-6.337-14.824-10.954-24.137-12.99l-49.835-10.896c-0.283-0.062-0.547-0.168-0.8-0.291    c14.203-11.513,23.303-29.086,23.303-48.751v-43.975c5.102-7.045,8.12-15.693,8.12-25.036v-34.919c0-5.523-4.478-10-10-10h-70.365    c-29.36,0-53.246,23.886-53.246,53.246v24.467c0,0.589,0.061,1.163,0.159,1.724c-0.098,0.561-0.159,1.135-0.159,1.724v32.768    c0,19.613,9.051,37.146,23.188,48.661c-0.305,0.172-0.633,0.311-0.987,0.388L39.58,329.017C16.646,334.048,0,354.742,0,378.221    V462v40c0,5.523,4.478,10,10,10h492c5.522,0,10-4.477,10-10v-40c0-5.523-4.478-10-10-10h-62v-5c0-17.093-13.906-31-31-31h-1v-19    H486.5z M269.406,397H348v19h-1c-17.094,0-31,13.907-31,31v5h-56.616v-57.055C262.462,396.266,265.85,397,269.406,397z     M239.384,378.244V452h-95.83l38.113-110.827l33.831,7.397C229.338,351.597,239.384,364.076,239.384,378.244z M86.946,208.41    c0-18.332,14.914-33.246,33.246-33.246h60.365v24.919c0,12.569-10.226,22.794-22.795,22.794H86.946V208.41z M86.946,242.877    h70.816c5.153,0,10.096-0.916,14.675-2.593v28.809c0,23.57-19.176,42.746-42.745,42.746c-23.57,0-42.746-19.176-42.746-42.746    V242.877z M129.692,331.84c7.593,0,14.874-1.357,21.616-3.839c2.642,3.808,6.375,6.834,10.791,8.576l-22.407,65.153v-21.529    c0-5.523-4.478-10-10-10s-10,4.477-10,10v22.415l-22.709-66.033c4.452-1.757,8.215-4.819,10.86-8.674    C114.651,330.446,122.011,331.84,129.692,331.84z M20,378.221c0-14.157,10.037-26.635,23.865-29.669l33.554-7.36L115.526,452H20    V378.221z M492,492H20v-20h229.384H326h104h62V492z M420,447v5h-84v-5c0-6.065,4.935-11,11-11h11h40h11    C415.065,436,420,440.935,420,447z M368,416v-89c0-5.514,4.486-10,10-10s10,4.486,10,10v89H368z"/>
		<path id="XMLID_456_" d="M370.93,219.93c-1.86,1.86-2.93,4.44-2.93,7.07c0,2.63,1.069,5.21,2.93,7.07S375.37,237,378,237    s5.21-1.07,7.069-2.93c1.86-1.86,2.931-4.44,2.931-7.07c0-2.63-1.07-5.21-2.931-7.07C383.21,218.07,380.63,217,378,217    S372.79,218.07,370.93,219.93z"/>
		<path id="XMLID_457_" d="M211,64c2.63,0,5.21-1.07,7.069-2.93C219.93,59.21,221,56.63,221,54c0-2.63-1.07-5.21-2.931-7.07    C216.21,45.07,213.63,44,211,44s-5.21,1.07-7.07,2.93c-1.86,1.86-2.93,4.44-2.93,7.07c0,2.63,1.069,5.21,2.93,7.07    S208.37,64,211,64z"/>
		<path id="XMLID_460_" d="M251,64h88.47c-1.304,5.797-2.015,11.815-2.015,18c0,9.087,1.508,17.824,4.25,26H267.58    c-5.522,0-10,4.477-10,10s4.478,10,10,10h83.92c0.036,0,0.07-0.005,0.106-0.005C366.373,149.708,391.274,164,419.455,164    c45.215,0,82-36.785,82-82s-36.785-82-82-82c-31.506,0-58.902,17.872-72.629,44H251c-5.522,0-10,4.477-10,10S245.478,64,251,64z     M419.455,20c34.187,0,62,27.813,62,62s-27.813,62-62,62s-62-27.813-62-62S385.269,20,419.455,20z"/>
	</g>
</g>















</svg>
