<?xml version="1.0" encoding="iso-8859-1"?>
<!-- Generator: Adobe Illustrator 19.0.0, SVG Export Plug-In . SVG Version: 6.00 Build 0)  -->
<svg xmlns="http://www.w3.org/2000/svg" xmlns:xlink="http://www.w3.org/1999/xlink" version="1.1" id="Layer_1" x="0px" y="0px" viewBox="0 0 512 512" style="enable-background:new 0 0 512 512;" xml:space="preserve" width="512" height="512">
<g id="XMLID_994_">
	<g id="XMLID_210_">
		<path id="XMLID_462_" d="M428,0H299.6H152c-0.001,0.008-0.002,0.015-0.004,0.023c-2.6,0.002-5.156,0.994-7.067,2.905l-88,88    c-1.909,1.91-2.901,4.463-2.905,7.061C54.016,97.993,54.008,97.997,54,98v384c0,16.542,13.458,30,30,30h344    c16.542,0,30-13.458,30-30v-98.695c0-5.523-4.478-10-10-10s-10,4.477-10,10V482c0,5.514-4.486,10-10,10H84    c-5.514,0-10-4.486-10-10V108h58c16.542,0,30-13.458,30-30V20h137.6H428c5.514,0,10,4.486,10,10v273.305c0,5.523,4.478,10,10,10    s10-4.477,10-10V30C458,13.458,444.542,0,428,0z M142,78c0,5.514-4.486,10-10,10H88.143L142,34.142V78z"/>
		<path id="XMLID_466_" d="M448,333.3c-2.63,0-5.21,1.07-7.07,2.93c-1.86,1.87-2.93,4.44-2.93,7.08c0,2.63,1.069,5.21,2.93,7.06    c1.86,1.87,4.44,2.93,7.07,2.93s5.21-1.06,7.069-2.93c1.86-1.86,2.931-4.43,2.931-7.06c0-2.64-1.07-5.21-2.931-7.08    C453.21,334.37,450.63,333.3,448,333.3z"/>
		<path id="XMLID_469_" d="M389.172,105.038c-13.303-19.271-31.79-34.028-53.463-42.675c-5.131-2.047-10.947,0.452-12.994,5.583    c-2.047,5.129,0.453,10.947,5.582,12.994C365.78,95.894,390,131.638,390,172c0,20.749-6.487,40.008-17.532,55.868    c-3.703-11.362-13.229-20.394-25.324-23.039l-23.394-5.115c6.253-7.307,10.043-16.783,10.043-27.132v-25.273    c3.089-4.691,4.894-10.3,4.894-16.324v-21.048c0-5.523-4.478-10-10-10h-42.412c-19.888,0-36.067,16.18-36.067,36.067v14.748    c0,0.351,0.019,0.698,0.054,1.039c-0.035,0.342-0.054,0.688-0.054,1.039v19.751c0,10.337,3.781,19.802,10.021,27.106    l-23.395,5.132c-12.086,2.652-21.605,11.687-25.305,23.044C200.486,212.005,194,192.747,194,172    c0-40.362,24.22-76.106,61.704-91.062c5.129-2.047,7.629-7.864,5.582-12.994c-2.046-5.129-7.861-7.628-12.994-5.583    c-21.673,8.647-40.16,23.404-53.464,42.675C181.202,124.776,174,147.932,174,172c0,65.02,52.86,117.924,117.863,117.998    c0.015,0,0.03,0.002,0.045,0.002c0.008,0,0.015-0.001,0.023-0.001c0.023,0,0.046,0.001,0.069,0.001c65.065,0,118-52.935,118-118    C410,147.932,402.798,124.776,389.172,105.038z M354.146,238.372v9.347c-13.278,10.918-29.466,18.419-47.208,21.144l18.673-48.27    l17.26,3.774C349.404,225.795,354.146,231.686,354.146,238.372z M313.793,172.582c0,12.017-9.776,21.792-21.793,21.792    s-21.793-9.776-21.793-21.792v-11.83h38.713c1.66,0,3.286-0.143,4.873-0.406V172.582z M280.156,212.654    c3.757,1.113,7.73,1.72,11.844,1.72c4.063,0,7.988-0.594,11.705-1.68c0.807,0.83,1.696,1.578,2.65,2.245l-14.446,37.344    l-14.445-37.34C278.434,214.263,279.338,213.501,280.156,212.654z M270.207,136.003c0-8.859,7.208-16.067,16.067-16.067h32.412    v11.048c0,5.386-4.381,9.767-9.767,9.767h-38.713V136.003z M241.119,224.355l17.091-3.749l18.655,48.225    c-17.665-2.75-33.782-10.234-47.011-21.112v-9.361C229.854,231.676,234.592,225.787,241.119,224.355z"/>
		<path id="XMLID_476_" d="M380,318H220.956c-16.542,0-30,13.458-30,30s13.458,30,30,30H380c16.542,0,30-13.458,30-30    S396.542,318,380,318z M210.956,348c0-5.514,4.486-10,10-10H344v20H220.956C215.442,358,210.956,353.514,210.956,348z M380,358    h-16v-20h16c5.514,0,10,4.486,10,10S385.514,358,380,358z"/>
		<path id="XMLID_480_" d="M380,398H220.956c-16.542,0-30,13.458-30,30s13.458,30,30,30H380c16.542,0,30-13.458,30-30    S396.542,398,380,398z M210.956,428c0-5.514,4.486-10,10-10H310v20h-89.044C215.442,438,210.956,433.514,210.956,428z M380,438    h-50v-20h50c5.514,0,10,4.486,10,10S385.514,438,380,438z"/>
		<path id="XMLID_780_" d="M152,398h-40c-5.522,0-10,4.477-10,10v40c0,5.523,4.478,10,10,10h40c5.522,0,10-4.477,10-10v-40    C162,402.477,157.522,398,152,398z M142,438h-20v-20h20V438z"/>
		<path id="XMLID_927_" d="M162,328c0-5.523-4.478-10-10-10h-40c-5.522,0-10,4.477-10,10v40c0,5.523,4.478,10,10,10h40    c5.522,0,10-4.477,10-10V328z M142,358h-20v-20h20V358z"/>
		<path id="XMLID_944_" d="M169.667,260c0-5.523-4.478-10-10-10H112c-5.522,0-10,4.477-10,10s4.478,10,10,10h47.667    C165.189,270,169.667,265.523,169.667,260z"/>
		<path id="XMLID_990_" d="M112,222h33.5c5.522,0,10-4.477,10-10s-4.478-10-10-10H112c-5.522,0-10,4.477-10,10S106.478,222,112,222z    "/>
		<path id="XMLID_992_" d="M112,174h33.5c5.522,0,10-4.477,10-10s-4.478-10-10-10H112c-5.522,0-10,4.477-10,10S106.478,174,112,174z    "/>
		<path id="XMLID_993_" d="M299.069,71.07C300.93,69.21,302,66.63,302,64c0-2.63-1.07-5.21-2.931-7.07    C297.21,55.07,294.63,54,292,54s-5.21,1.07-7.07,2.93c-1.86,1.86-2.93,4.44-2.93,7.07c0,2.63,1.069,5.21,2.93,7.07    S289.37,74,292,74S297.21,72.93,299.069,71.07z"/>
	</g>
</g>















</svg>
