<?xml version="1.0" encoding="iso-8859-1"?>
<!-- Generator: Adobe Illustrator 19.0.0, SVG Export Plug-In . SVG Version: 6.00 Build 0)  -->
<svg xmlns="http://www.w3.org/2000/svg" xmlns:xlink="http://www.w3.org/1999/xlink" version="1.1" id="Layer_1" x="0px" y="0px" viewBox="0 0 512 512" style="enable-background:new 0 0 512 512;" xml:space="preserve" width="512" height="512">
<g id="XMLID_817_">
	<g id="XMLID_490_">
		<path id="XMLID_517_" d="M398.332,259.513c0-57.011-46.382-103.393-103.394-103.393s-103.393,46.382-103.393,103.393    c0,29.59,12.498,56.314,32.489,75.178c0.347,0.374,0.719,0.727,1.125,1.048c18.404,16.862,42.91,27.167,69.779,27.167    c26.869,0,51.374-10.305,69.779-27.167c0.408-0.321,0.78-0.675,1.128-1.05C385.834,315.825,398.332,289.102,398.332,259.513z     M294.938,176.12c45.983,0,83.394,37.41,83.394,83.393c0,19.204-6.542,36.898-17.491,51.011    c-8.653-13.541-21.133-23.917-35.71-29.965c5.868-6.91,9.42-15.847,9.42-25.602v-7.403c0-21.842-17.77-39.612-39.613-39.612    c-21.842,0-39.612,17.77-39.612,39.612v7.403c0,9.755,3.551,18.691,9.419,25.601c-14.578,6.048-27.057,16.424-35.71,29.965    c-10.949-14.113-17.49-31.807-17.49-51.01C211.545,213.53,248.955,176.12,294.938,176.12z M275.326,254.957v-7.403    c0-10.814,8.798-19.612,19.612-19.612s19.613,8.798,19.613,19.612v7.403c0,10.814-8.798,19.612-19.613,19.612    S275.326,265.771,275.326,254.957z M243.616,325.17c8.523-15.858,23.712-26.733,41.323-29.745V301c0,5.522,4.477,10,10,10    s10-4.478,10-10v-5.575c17.61,3.013,32.798,13.888,41.322,29.745c-14.164,11.096-31.977,17.736-51.323,17.736    C275.592,342.906,257.779,336.266,243.616,325.17z"/>
		<path id="XMLID_1103_" d="M501.402,422.406l-87.045-87.045c13.982-21.937,22.094-47.962,22.094-75.849    c0-29.418-9.027-56.766-24.451-79.427V30c0-16.542-13.458-30-30-30H246c-5.523,0-10,4.477-10,10s4.477,10,10,10h136    c5.514,0,10,4.486,10,10v126.632C366.643,132.697,332.477,118,294.938,118c-53.597,0-100.328,29.951-124.34,73.994H91.819    c-5.523,0-10,4.477-10,10s4.477,10,10,10h69.823c-4.065,11.37-6.716,23.405-7.737,35.896H91.819c-5.523,0-10,4.477-10,10    c0,5.522,4.477,10,10,10h61.861c0.736,12.539,3.11,24.644,6.914,36.104H91.819c-5.523,0-10,4.478-10,10s4.477,10,10,10h77.17    c6.852,13.328,15.76,25.432,26.299,35.896H91.819c-5.523,0-10,4.478-10,10s4.477,10,10,10h128.803    c21.613,13.391,47.075,21.136,74.315,21.136c23.92,0,46.469-5.974,66.245-16.496L392,415.347V482c0,5.514-4.486,10-10,10H30    c-5.514,0-10-4.486-10-10V111.127h61c16.542,0,30-13.458,30-30V20h55c5.523,0,10-4.477,10-10s-4.477-10-10-10h-64    c-2.652,0-5.196,1.054-7.071,2.929l-92,92C1.054,96.804,0,99.348,0,102v380c0,16.542,13.458,30,30,30h352    c16.542,0,30-13.458,30-30v-46.653l38.23,38.23c7.055,7.055,16.319,10.581,25.586,10.581c9.265,0,18.533-3.528,25.585-10.581    c6.834-6.834,10.598-15.92,10.598-25.585C512,438.326,508.236,429.24,501.402,422.406z M81,91.127H35.015L91,35.142v45.985    C91,86.641,86.514,91.127,81,91.127z M173.425,259.513c0-67.002,54.51-121.513,121.513-121.513s121.513,54.51,121.513,121.513    c0,67.002-54.511,121.513-121.513,121.513S173.425,326.515,173.425,259.513z M402.305,351.594l14.729,14.729l-22.886,22.887    l-15.6-15.6C387.281,367.193,395.255,359.802,402.305,351.594z M487.26,459.435c-6.309,6.311-16.576,6.312-22.887,0    l-56.082-56.082l22.886-22.887l56.084,56.083c3.056,3.057,4.74,7.12,4.74,11.443C492,452.314,490.316,456.378,487.26,459.435z"/>
		<path id="XMLID_1107_" d="M272.4,433.06c1.86-1.85,2.93-4.43,2.93-7.069c0-2.631-1.07-5.21-2.93-7.07s-4.44-2.93-7.07-2.93    c-2.64,0-5.21,1.069-7.08,2.93c-1.86,1.87-2.92,4.439-2.92,7.07c0,2.64,1.06,5.21,2.92,7.069c1.87,1.87,4.44,2.931,7.08,2.931    C267.96,435.99,270.54,434.93,272.4,433.06z"/>
		<path id="XMLID_1108_" d="M225.326,435.994c5.523,0,10-4.478,10-10s-4.477-10-10-10H91.819c-5.523,0-10,4.478-10,10    s4.477,10,10,10H225.326z"/>
		<path id="XMLID_1109_" d="M206,20c2.63,0,5.21-1.07,7.07-2.93S216,12.63,216,10c0-2.63-1.07-5.21-2.93-7.07    C211.21,1.07,208.63,0,206,0c-2.63,0-5.21,1.07-7.07,2.93C197.07,4.79,196,7.37,196,10c0,2.63,1.07,5.21,2.93,7.07    C200.79,18.93,203.37,20,206,20z"/>
	</g>
</g>















</svg>
