<?xml version="1.0" encoding="iso-8859-1"?>
<!-- Generator: Adobe Illustrator 19.0.0, SVG Export Plug-In . SVG Version: 6.00 Build 0)  -->
<svg xmlns="http://www.w3.org/2000/svg" xmlns:xlink="http://www.w3.org/1999/xlink" version="1.1" id="Layer_1" x="0px" y="0px" viewBox="0 0 512 512" style="enable-background:new 0 0 512 512;" xml:space="preserve" width="512" height="512">
<g id="XMLID_1074_">
	<g id="XMLID_2071_">
		<g id="XMLID_506_">
			<path id="XMLID_528_" d="M489,40h-22.75V23.25C466.25,10.43,455.82,0,443,0h-46c-12.82,0-23.25,10.43-23.25,23.25V40H351     c-12.682,0-23,10.318-23,23v102c0,12.682,10.318,23,23,23h138c12.682,0,23-10.318,23-23V63C512,50.318,501.682,40,489,40z      M393.75,23.25c0-1.792,1.458-3.25,3.25-3.25h46c1.792,0,3.25,1.458,3.25,3.25V40h-52.5V23.25z M351,60h32.75h72.5H489     c1.654,0,3,1.346,3,3v41h-44.167V94c0-5.523-4.477-10-10-10h-40c-5.523,0-10,4.477-10,10v10H348V63C348,61.346,349.346,60,351,60     z M427.833,114c0,5.514-4.486,10-10,10s-10-4.486-10-10v-10h20V114z M489,168H351c-1.654,0-3-1.346-3-3v-41h41.554     c4.128,11.639,15.243,20,28.28,20s24.152-8.361,28.28-20H492v41C492,166.654,490.654,168,489,168z"/>
			<path id="XMLID_540_" d="M502,236H338c-5.523,0-10,4.477-10,10v78H174c-5.523,0-10,4.478-10,10v54H10c-5.523,0-10,4.478-10,10     v104c0,5.522,4.477,10,10,10h492c5.523,0,10-4.478,10-10V246C512,240.477,507.523,236,502,236z M492,492H20v-84h144v45.988     c0,5.522,4.477,10,10,10s10-4.478,10-10V398v-54h144v37.369c0,5.522,4.477,10,10,10s10-4.478,10-10V334v-78h144V492z"/>
			<path id="XMLID_793_" d="M338,411.37c-2.63,0-5.21,1.069-7.07,2.93c-1.86,1.86-2.93,4.44-2.93,7.07s1.07,5.21,2.93,7.069     c1.86,1.86,4.44,2.931,7.07,2.931c2.63,0,5.21-1.07,7.07-2.931c1.86-1.859,2.93-4.439,2.93-7.069s-1.07-5.21-2.93-7.07     S340.63,411.37,338,411.37z"/>
			<path id="XMLID_916_" d="M31.613,281.509c1.953,1.952,4.512,2.929,7.071,2.929s5.119-0.977,7.071-2.929l44.257-44.258     c0.002-0.002,0.003-0.003,0.005-0.005l26.192-26.193l35.425,35.426c1.875,1.875,4.419,2.929,7.071,2.929s5.196-1.054,7.071-2.929     l19.607-19.607c3.905-3.905,3.905-10.237,0-14.143c-3.905-3.905-10.237-3.905-14.143,0l-12.536,12.537l-35.425-35.426     c-1.875-1.875-4.419-2.929-7.071-2.929s-5.196,1.054-7.071,2.929l-33.264,33.264c-0.002,0.002-0.003,0.003-0.005,0.005     l-37.186,37.187l-14.541-14.541l9.416-9.416c0.002-0.002,0.003-0.003,0.005-0.005l82.646-82.646l35.425,35.426     c1.875,1.875,4.419,2.929,7.071,2.929s5.196-1.054,7.071-2.929l59.904-59.904c1.875-1.875,2.929-4.419,2.929-7.071     s-1.054-5.196-2.929-7.071l-5.538-5.538l53.149-10.696l-10.696,53.149l-8.231-8.232c-1.875-1.875-4.419-2.929-7.071-2.929     s-5.196,1.054-7.071,2.929l-12.411,12.411c-3.905,3.905-3.905,10.237,0,14.142s10.237,3.905,14.142,0l5.339-5.34l14.354,14.354     c2.606,2.606,6.435,3.568,9.963,2.501c3.528-1.066,6.184-3.986,6.911-7.6l17.345-86.184c0.661-3.282-0.365-6.677-2.732-9.044     c-2.367-2.366-5.759-3.392-9.044-2.732l-86.184,17.345c-3.613,0.727-6.534,3.383-7.6,6.911s-0.104,7.357,2.502,9.963l11.66,11.66     L158.706,167.9l-35.425-35.426c-3.905-3.905-10.237-3.905-14.143,0l-89.723,89.723c-0.003,0.003-0.006,0.007-0.009,0.01     L2.93,238.685c-1.875,1.875-2.929,4.419-2.929,7.071c0,2.652,1.054,5.196,2.929,7.071L31.613,281.509z"/>
			<path id="XMLID_917_" d="M199.6,184.52c-1.86,1.86-2.93,4.44-2.93,7.07c0,2.64,1.07,5.21,2.93,7.07     c1.86,1.86,4.44,2.93,7.07,2.93c2.64,0,5.21-1.07,7.07-2.93c1.86-1.86,2.93-4.44,2.93-7.07s-1.07-5.21-2.93-7.07     c-1.86-1.86-4.43-2.93-7.07-2.93C204.04,181.59,201.46,182.66,199.6,184.52z"/>
		</g>
	</g>
</g>















</svg>
