<?xml version="1.0" encoding="iso-8859-1"?>
<!-- Generator: Adobe Illustrator 19.0.0, SVG Export Plug-In . SVG Version: 6.00 Build 0)  -->
<svg xmlns="http://www.w3.org/2000/svg" xmlns:xlink="http://www.w3.org/1999/xlink" version="1.1" id="Layer_1" x="0px" y="0px" viewBox="0 0 512 512" style="enable-background:new 0 0 512 512;" xml:space="preserve" width="512" height="512">
<g id="XMLID_1796_">
	<g id="XMLID_525_">
		<path id="XMLID_556_" d="M462,148H335.593l76.816-132.999c1.787-3.094,1.788-6.906,0.001-10.001c-1.786-3.094-5.088-5-8.661-5    h-77.833c-3.572,0-6.873,1.905-8.66,4.999L256,111.059L194.743,4.999C192.957,1.905,189.656,0,186.083,0H108.25    c-3.573,0-6.875,1.906-8.661,5c-1.786,3.095-1.786,6.907,0.001,10.001L199.509,188H184c-18.748,0-34,15.252-34,34s15.252,34,34,34    h144c18.748,0,34-15.252,34-34s-15.252-34-34-34h-27.561l-11.552-20h29.357c0.005,0,0.01,0.001,0.015,0.001    s0.01-0.001,0.015-0.001H462c16.542,0,30,13.458,30,30v264c0,16.542-13.458,30-30,30H50c-16.542,0-30-13.458-30-30V198    c0-16.542,13.458-30,30-30h63.75c5.523,0,10-4.477,10-10s-4.477-10-10-10H50c-27.57,0-50,22.43-50,50v264c0,27.57,22.43,50,50,50    h412c27.57,0,50-22.43,50-50V198C512,170.43,489.57,148,462,148z M342,222c0,7.72-6.28,14-14,14H184c-7.72,0-14-6.28-14-14    s6.28-14,14-14h32.833h77.833H328C335.72,208,342,214.28,342,222z M222.606,188L125.574,20h54.737l97.032,168H222.606z     M267.548,131.053L331.689,20h54.737l-73.93,128h-35.16L267.548,131.053z"/>
		<path id="XMLID_782_" d="M91.909,314.353V330.4c0,0.384,0.026,0.76,0.068,1.133c-0.042,0.371-0.068,0.747-0.068,1.13v21.492    c0,11.561,4.423,22.106,11.665,30.038l-26.91,5.904C60.055,393.74,48,408.726,48,425.73v28.258c0,5.522,4.477,10,10,10h157.009    c5.523,0,10-4.478,10-10v-28.243c0-17.017-12.065-32.005-28.688-35.64l-26.912-5.884c7.257-7.935,11.692-18.491,11.692-30.066    v-27.758c3.361-5.01,5.325-11.032,5.325-17.506v-22.903c0-5.522-4.477-10-10-10h-46.151    C109.12,275.988,91.909,293.198,91.909,314.353z M123.338,396.765c4.163,1.289,8.585,1.985,13.167,1.985    c4.525,0,8.892-0.682,13.01-1.941c0.863,0.938,1.819,1.788,2.857,2.539l-15.967,32.155l-15.965-32.151    C121.494,398.588,122.464,397.721,123.338,396.765z M161.1,354.155c0,13.562-11.033,24.595-24.595,24.595    s-24.595-11.033-24.595-24.595V340.4h43.006c2.116,0,4.184-0.213,6.184-0.613V354.155z M68,425.73    c0-7.683,5.446-14.452,12.949-16.099l20.078-4.405l19.247,38.761H68V425.73z M205.009,425.745v18.243h-52.474l19.253-38.774    l20.26,4.43C199.559,411.286,205.009,418.058,205.009,425.745z M166.425,308.892c0,6.346-5.163,11.509-11.509,11.509h-43.007    v-6.048c0-10.126,8.238-18.364,18.365-18.364h36.151V308.892z"/>
		<path id="XMLID_973_" d="M348.416,317.352c-1.875-1.875-4.419-2.929-7.071-2.929s-5.196,1.054-7.071,2.929l-37.1,37.101    c-3.905,3.905-3.905,10.237,0,14.143c1.953,1.952,4.512,2.929,7.071,2.929s5.119-0.977,7.071-2.929l30.029-30.029l19.617,19.617    c1.875,1.875,4.419,2.929,7.071,2.929c2.652,0,5.196-1.054,7.071-2.929l44.673-44.673c1.651,3.252,5.018,5.485,8.914,5.485    c5.523,0,10-4.478,10-10v-18.542c0-5.522-4.477-10-10-10h-18.542c-5.523,0-10,4.478-10,10c0,3.896,2.233,7.264,5.485,8.914    l-37.602,37.601L348.416,317.352z"/>
		<path id="XMLID_974_" d="M425.833,403.988h-105.75c-5.523,0-10,4.478-10,10s4.477,10,10,10h105.75c5.523,0,10-4.478,10-10    S431.356,403.988,425.833,403.988z"/>
		<path id="XMLID_975_" d="M287.16,461.06c1.86-1.859,2.92-4.439,2.92-7.069c0-2.631-1.06-5.21-2.92-7.07    c-1.87-1.86-4.45-2.93-7.08-2.93c-2.63,0-5.21,1.069-7.07,2.93s-2.93,4.439-2.93,7.07c0,2.63,1.07,5.21,2.93,7.069    c1.86,1.86,4.44,2.931,7.07,2.931C282.72,463.99,285.29,462.92,287.16,461.06z"/>
		<path id="XMLID_976_" d="M425.833,443.988h-105.75c-5.523,0-10,4.478-10,10s4.477,10,10,10h105.75c5.523,0,10-4.478,10-10    S431.356,443.988,425.833,443.988z"/>
		<path id="XMLID_977_" d="M160.82,165.07c1.86-1.86,2.93-4.44,2.93-7.07c0-2.63-1.07-5.21-2.93-7.07    c-1.86-1.86-4.44-2.93-7.07-2.93c-2.63,0-5.21,1.07-7.07,2.93c-1.86,1.86-2.93,4.44-2.93,7.07c0,2.63,1.07,5.21,2.93,7.07    c1.86,1.86,4.44,2.93,7.07,2.93C156.38,168,158.96,166.93,160.82,165.07z"/>
	</g>
</g>















</svg>
