<?xml version="1.0" encoding="iso-8859-1"?>
<!-- Generator: Adobe Illustrator 19.0.0, SVG Export Plug-In . SVG Version: 6.00 Build 0)  -->
<svg xmlns="http://www.w3.org/2000/svg" xmlns:xlink="http://www.w3.org/1999/xlink" version="1.1" id="Layer_1" x="0px" y="0px" viewBox="0 0 512 512" style="enable-background:new 0 0 512 512;" xml:space="preserve" width="512" height="512">
<g id="XMLID_1585_">
	<g id="XMLID_569_">
		<path id="XMLID_570_" d="M50,362.39c2.63,0,5.21-1.07,7.069-2.93c1.86-1.86,2.931-4.44,2.931-7.07s-1.07-5.21-2.931-7.07    c-1.859-1.859-4.439-2.93-7.069-2.93s-5.21,1.07-7.07,2.93c-1.86,1.86-2.93,4.44-2.93,7.07s1.069,5.21,2.93,7.07    C44.79,361.319,47.37,362.39,50,362.39z"/>
		<path id="XMLID_606_" d="M502,324h-23.5V170h17.426c3.572,0,6.874-1.906,8.66-5s1.786-6.906,0-10L449.16,59    c-1.786-3.094-5.088-5-8.66-5s-6.874,1.906-8.66,5l-55.426,96c-1.786,3.094-1.786,6.906,0,10s5.088,5,8.66,5H402.5v84    c0,5.523,4.478,10,10,10s10-4.478,10-10v-94c0-5.523-4.478-10-10-10h-10.105L440.5,84l38.105,66H468.5c-5.522,0-10,4.477-10,10    v164h-46H379c-5.522,0-10,4.478-10,10v38H256c-5.522,0-10,4.478-10,10v22h-55.343c1.506-3.708,2.344-7.757,2.344-12V277.844    c0-27.57-22.43-50-50-50h-11.824v-12.184c4.206,1.885,8.86,2.943,13.759,2.943h51.882c16.333,0,29.62-13.288,29.62-29.621    s-13.287-29.621-29.62-29.621h-25.713v-11.252c0-30.246-20.459-55.788-48.26-63.558c6.339-7.947,10.141-18.002,10.141-28.934    v-9.124C132.985,20.856,112.129,0,86.493,0C60.856,0,40,20.856,40,46.493v9.124c0,10.738,3.669,20.63,9.806,28.509    C21.218,91.364,0,117.302,0,148.109v51.819c0,24.129,17.211,44.311,40,48.923v63.54c0,5.522,4.478,10,10,10s10-4.478,10-10    v-64.547h61.177h21.824c16.542,0,30,13.458,30,30V392c0,6.617-5.383,12-12,12s-12-5.383-12-12V289.917c0-5.522-4.478-10-10-10    H93.938c-5.522,0-10,4.478-10,10v142.114c0,6.6-5.369,11.969-11.969,11.969S60,438.631,60,432.031v-39.641c0-5.522-4.478-10-10-10    s-10,4.478-10,10v39.641c0,4.231,0.834,8.269,2.333,11.969H10c-5.522,0-10,4.478-10,10v48c0,5.522,4.478,10,10,10h123h123h123h123    c5.522,0,10-4.478,10-10V334C512,328.478,507.522,324,502,324z M60,46.493C60,31.885,71.885,20,86.493,20    c14.607,0,26.492,11.885,26.492,26.493v9.124c0,14.608-11.885,26.493-26.492,26.493C71.885,82.109,60,70.224,60,55.616V46.493z     M50,148.263c-5.522,0-10,4.477-10,10v69.884c-11.636-4.101-20-15.199-20-28.219v-51.819c0-25.364,20.636-46,46-46h39.104    c25.364,0,46,20.636,46,46v21.252c0,5.523,4.478,10,10,10h35.713c5.305,0,9.62,4.316,9.62,9.621s-4.315,9.621-9.62,9.621h-51.882    c-7.587,0-13.759-6.172-13.759-13.759v-26.581c0-5.523-4.478-10-10-10s-10,4.477-10,10v69.581H60v-69.581    C60,152.74,55.522,148.263,50,148.263z M103.938,432.031V299.917h25.063V392c0,4.296,0.856,8.394,2.399,12.14    c-4.76,0.768-8.4,4.884-8.4,9.86v30h-21.396C103.104,440.3,103.938,436.262,103.938,432.031z M20,464h103v28H20V464z M143,454v-30    h103v68H143V454z M266,414v-22h103v100H266V414z M492,492H389V382v-38h23.5h56H492V492z"/>
		<path id="XMLID_1117_" d="M419.569,301.069c1.86-1.859,2.931-4.439,2.931-7.069s-1.07-5.21-2.931-7.07    c-1.859-1.86-4.439-2.93-7.069-2.93s-5.21,1.069-7.07,2.93s-2.93,4.44-2.93,7.07s1.069,5.21,2.93,7.069    c1.86,1.86,4.44,2.931,7.07,2.931S417.71,302.93,419.569,301.069z"/>
	</g>
</g>















</svg>
