<?xml version="1.0" encoding="iso-8859-1"?>
<!-- Generator: Adobe Illustrator 19.0.0, SVG Export Plug-In . SVG Version: 6.00 Build 0)  -->
<svg xmlns="http://www.w3.org/2000/svg" xmlns:xlink="http://www.w3.org/1999/xlink" version="1.1" id="Layer_1" x="0px" y="0px" viewBox="0 0 512.184 512.184" style="enable-background:new 0 0 512.184 512.184;" xml:space="preserve" width="512" height="512">
<g id="XMLID_1351_">
	<g id="XMLID_595_">
		<path id="XMLID_596_" d="M471.679,280.549l-142.643-76.679l177.872-95.617c4.865-2.615,6.689-8.678,4.073-13.543    c-2.613-4.864-8.678-6.688-13.542-4.073l-130.55,70.179c-9.963-36.46-31.069-69.49-60.268-93.973    c-32.675-27.396-74.165-42.863-116.829-43.552c-50-0.824-97.243,17.774-132.993,52.324    c-35.761,34.56-55.923,81.128-56.771,131.128c-0.775,45.599,14.568,96.686,40.042,133.325    c8.316,11.96,12.712,26.007,12.712,40.621v98.232c0,5.522,4.478,10,10,10s10-4.478,10-10v-98.232    c0-18.716-5.633-36.71-16.29-52.039c-22.85-32.863-37.164-80.582-36.467-121.567c1.56-91.8,77.528-165.311,169.445-163.795    c75.54,1.22,141.572,54.382,159.277,127.281l-45.565,24.494c-3.243,1.743-5.266,5.127-5.266,8.808s2.022,7.065,5.266,8.808    l59.509,31.99l18.154,65.392h-42.352c-5.522,0-10,4.478-10,10v51.787c0,19.089-15.529,34.618-34.618,34.618H263.21    c-19.997,0-36.267,16.27-36.267,36.267v36.189c0,5.522,4.478,10,10,10s10-4.478,10-10v-36.189c0-8.97,7.297-16.267,16.267-16.267    h30.666c30.116,0,54.618-24.502,54.618-54.618v-41.787H394c3.125,0,6.069-1.461,7.961-3.948c1.891-2.487,2.511-5.716,1.675-8.727    l-16.546-59.603l75.122,40.382c1.506,0.811,3.127,1.194,4.726,1.194c3.563,0,7.012-1.909,8.816-5.268    C478.368,289.226,476.545,283.163,471.679,280.549z"/>
		<path id="XMLID_611_" d="M502.184,298.294h-0.01c-5.522,0-9.995,4.478-9.995,10s4.482,10,10.005,10c5.523,0,10-4.478,10-10    S507.708,298.294,502.184,298.294z"/>
		<path id="XMLID_612_" d="M449.85,189.417c-3.906-3.905-10.236-3.905-14.143,0l-25.362,25.362c-3.905,3.905-3.905,10.237,0,14.143    c1.953,1.953,4.512,2.929,7.071,2.929s5.118-0.976,7.071-2.929l18.291-18.292l12.312,12.312c3.906,3.905,10.236,3.905,14.143,0    l24.667-24.666c1.799,2.647,4.833,4.386,8.275,4.386c5.522,0,10-4.477,10-10v-16.804c0-5.523-4.478-10-10-10h-16.804    c-5.522,0-10,4.477-10,10c0,3.442,1.74,6.476,4.386,8.275l-17.595,17.596L449.85,189.417z"/>
		<path id="XMLID_613_" d="M146.677,77.891c-56.702,17.526-95.479,69.307-96.492,128.851c-0.094,5.522,4.307,10.075,9.829,10.168    c0.058,0.001,0.115,0.001,0.173,0.001c5.444,0,9.902-4.366,9.996-9.83c0.864-50.877,33.979-95.116,82.4-110.082    c5.276-1.631,8.231-7.23,6.601-12.507C157.554,79.217,151.957,76.26,146.677,77.891z"/>
		<path id="XMLID_614_" d="M189.627,71.772c-2.63,0-5.2,1.07-7.07,2.93c-1.859,1.86-2.92,4.44-2.92,7.07    c0,2.64,1.061,5.21,2.92,7.08c1.87,1.86,4.44,2.92,7.07,2.92c2.64,0,5.22-1.06,7.07-2.92c1.869-1.87,2.939-4.45,2.939-7.08    c0-2.63-1.07-5.2-2.939-7.07C194.846,72.843,192.266,71.772,189.627,71.772z"/>
	</g>
</g>















</svg>
