<?xml version="1.0" encoding="iso-8859-1"?>
<!-- Generator: Adobe Illustrator 19.0.0, SVG Export Plug-In . SVG Version: 6.00 Build 0)  -->
<svg xmlns="http://www.w3.org/2000/svg" xmlns:xlink="http://www.w3.org/1999/xlink" version="1.1" id="Layer_1" x="0px" y="0px" viewBox="0 0 511.978 511.978" style="enable-background:new 0 0 511.978 511.978;" xml:space="preserve" width="512" height="512">
<g id="XMLID_1707_">
	<g id="XMLID_824_">
		<path id="XMLID_1071_" d="M127.027,45.068c2.63,0,5.21-1.07,7.07-2.93c1.859-1.86,2.93-4.44,2.93-7.07c0-2.63-1.07-5.2-2.93-7.07    c-1.86-1.86-4.44-2.93-7.07-2.93s-5.21,1.07-7.07,2.93c-1.859,1.86-2.93,4.44-2.93,7.07c0,2.64,1.07,5.21,2.93,7.07    C121.817,43.999,124.397,45.068,127.027,45.068z"/>
		<path id="XMLID_1123_" d="M488.978,335.863h-32.793v-18.53c0-12.82-10.43-23.25-23.25-23.25h-59.569    c-5.264-2.494-10.83-4.393-16.545-5.643l-46.177-10.096c18.706-16.418,29.719-40.161,29.719-65.91v-92.14    c0-66.321-53.956-120.276-120.276-120.276h-22.78c-12.19,0-24.224,1.82-35.763,5.409c-5.274,1.641-8.22,7.245-6.579,12.519    c1.641,5.273,7.245,8.219,12.519,6.579c9.615-2.991,19.648-4.507,29.823-4.507h22.78c55.293,0,100.276,44.984,100.276,100.276    v92.14c0,25.421-13.894,48.315-36.345,60.088l-9.924-2.17c-5.765-1.26-9.949-6.457-9.949-12.358c0-0.99-0.149-1.945-0.417-2.848    c22.193-16.732,36.567-43.307,36.567-73.179v-2.993v-28.986v-38.329c0-5.523-4.478-10-10-10s-10,4.477-10,10v14.124    c-1.507-0.289-3.061-0.446-4.651-0.446h-50.584c9.698-9.232,16.909-21.193,20.353-34.923c1.344-5.357-1.909-10.789-7.267-12.133    c-5.354-1.344-10.788,1.91-12.132,7.267c-5.877,23.428-26.851,39.79-51.004,39.79h-2.442h-30.828c-1.59,0-3.144,0.157-4.651,0.446    v-14.124c0-5.523-4.478-10-10-10s-10,4.477-10,10v38.329v28.986v2.993c0,29.695,14.206,56.13,36.175,72.878    c-0.332,0.995-0.518,2.055-0.518,3.161c0,5.896-4.181,11.094-9.939,12.357l-9.628,2.112c-0.209-0.135-0.417-0.27-0.64-0.39    c-21.901-11.897-35.507-34.754-35.507-59.652v-92.14c0-17.343,4.495-34.43,12.999-49.415c2.726-4.803,1.042-10.907-3.762-13.633    c-4.803-2.725-10.906-1.042-13.633,3.762c-10.208,17.988-15.604,38.489-15.604,59.286v92.14c0,25.516,11.042,49.368,29.702,65.843    L60.52,288.415c-17.092,3.749-32.544,13.322-43.512,26.957C6.04,329.005,0,346.151,0,363.649V501.96c0,5.522,4.478,10,10,10    h304.978h92.415h81.585c12.683,0,23-10.317,23-23V358.863C511.978,346.18,501.66,335.863,488.978,335.863z M491.978,358.863    v55.049h-58.252v-14.391c0-5.522-4.478-10-10-10h-48.78c-5.522,0-10,4.478-10,10v14.391h-52.968v-55.049c0-1.654,1.346-3,3-3    h42.793h88.414h42.793C490.632,355.863,491.978,357.208,491.978,358.863z M413.726,423.912c0,7.935-6.456,14.39-14.391,14.39    s-14.39-6.455-14.39-14.39v-14.391h28.78V423.912z M347.771,317.333v18.53h-32.793c-12.683,0-23,10.317-23,23V488.96    c0,1.017,0.073,2.017,0.202,3h-69.706l68.165-197.518l59.356,12.978C348.571,310.429,347.771,313.789,347.771,317.333z     M436.185,317.333v18.53h-68.414v-18.53c0-1.792,1.458-3.25,3.25-3.25h61.914C434.727,314.083,436.185,315.541,436.185,317.333z     M280.293,149.987v28.986c0,2.564-2.087,4.651-4.651,4.651h-52.301c-2.564,0-4.651-2.086-4.651-4.651v-28.986    c0-2.564,2.087-4.651,4.651-4.651h52.301C278.206,145.336,280.293,147.423,280.293,149.987z M141.737,145.336h30.828h2.442h19.031    c2.564,0,4.65,2.086,4.65,4.651v28.986c0,2.564-2.086,4.651-4.65,4.651h-52.302c-2.564,0-4.651-2.086-4.651-4.651v-28.986    C137.086,147.423,139.173,145.336,141.737,145.336z M140.43,203.589c0.433,0.023,0.869,0.035,1.307,0.035h52.302    c5.483,0,10.552-1.801,14.65-4.84c4.099,3.039,9.168,4.84,14.651,4.84h52.301c0.438,0,0.874-0.012,1.307-0.035    c-9.19,28.945-36.311,49.98-68.259,49.98S149.62,232.534,140.43,203.589z M171.777,265.794    c11.299,4.995,23.786,7.775,36.913,7.775c12.955,0,25.288-2.709,36.469-7.581c3.009,11.732,12.461,21.235,24.663,23.902    l1.144,0.25l-52.269,151.457v-97.515c0-5.522-4.478-10-10-10s-10,4.478-10,10v98.98l-52.769-152.909l1.163-0.255    C159.347,287.209,168.826,277.616,171.777,265.794z M20,363.649c0-26.58,18.843-50.005,44.805-55.699l61.454-13.481    l68.155,197.492H79.978v-70c0-5.522-4.478-10-10-10s-10,4.478-10,10v70H20V363.649z M488.978,491.96h-81.585h-92.415    c-1.654,0-3-1.346-3-3v-55.049h54.455c4.294,14.1,17.417,24.39,32.902,24.39s28.609-10.29,32.903-24.39h59.739v55.049    C491.978,490.615,490.632,491.96,488.978,491.96z"/>
		<path id="XMLID_1160_" d="M501.978,118.945h-20.859c-5.522,0-10,4.477-10,10c0,4.528,3.011,8.347,7.138,9.579l-34.533,34.534    l-22.952-22.953c-1.876-1.875-4.419-2.929-7.071-2.929s-5.195,1.054-7.071,2.929l-42.277,42.277    c-3.905,3.905-3.905,10.237,0,14.142c1.953,1.953,4.512,2.929,7.071,2.929c2.559,0,5.118-0.977,7.071-2.929l35.206-35.206    l22.952,22.953c1.876,1.875,4.419,2.929,7.071,2.929s5.195-1.054,7.071-2.929l41.604-41.604c1.231,4.127,5.052,7.138,9.579,7.138    c5.522,0,10-4.477,10-10v-20.859C511.978,123.422,507.5,118.945,501.978,118.945z"/>
		<path id="XMLID_1161_" d="M69.978,391.958c2.63,0,5.21-1.07,7.069-2.93c1.86-1.86,2.931-4.44,2.931-7.07s-1.07-5.21-2.931-7.07    c-1.859-1.859-4.439-2.93-7.069-2.93s-5.21,1.07-7.07,2.93c-1.86,1.86-2.93,4.44-2.93,7.07s1.069,5.21,2.93,7.07    C64.768,390.888,67.348,391.958,69.978,391.958z"/>
	</g>
</g>















</svg>
