<?xml version="1.0" encoding="iso-8859-1"?>
<!-- Generator: Adobe Illustrator 19.0.0, SVG Export Plug-In . SVG Version: 6.00 Build 0)  -->
<svg xmlns="http://www.w3.org/2000/svg" xmlns:xlink="http://www.w3.org/1999/xlink" version="1.1" id="Layer_1" x="0px" y="0px" viewBox="0 0 512 512" style="enable-background:new 0 0 512 512;" xml:space="preserve" width="512" height="512">
<g id="XMLID_895_">
	<g id="XMLID_325_">
		<path id="XMLID_486_" d="M401.069,144.07c1.86-1.86,2.931-4.44,2.931-7.07c0-2.63-1.07-5.21-2.931-7.07    C399.21,128.07,396.63,127,394,127s-5.21,1.07-7.07,2.93c-1.86,1.86-2.93,4.44-2.93,7.07c0,2.63,1.069,5.21,2.93,7.07    S391.37,147,394,147S399.21,145.93,401.069,144.07z"/>
		<path id="XMLID_489_" d="M174,380c20.953,0,38-17.047,38-38s-17.047-38-38-38s-38,17.047-38,38S153.047,380,174,380z M174,324    c9.925,0,18,8.075,18,18s-8.075,18-18,18s-18-8.075-18-18S164.075,324,174,324z"/>
		<path id="XMLID_495_" d="M78,304c-20.953,0-38,17.047-38,38s17.047,38,38,38s38-17.047,38-38S98.953,304,78,304z M78,360    c-9.925,0-18-8.075-18-18s8.075-18,18-18s18,8.075,18,18S87.925,360,78,360z"/>
		<path id="XMLID_498_" d="M78,200c-20.953,0-38,17.047-38,38s17.047,38,38,38s38-17.047,38-38S98.953,200,78,200z M78,256    c-9.925,0-18-8.075-18-18s8.075-18,18-18s18,8.075,18,18S87.925,256,78,256z"/>
		<path id="XMLID_501_" d="M270,276c20.953,0,38-17.047,38-38s-17.047-38-38-38s-38,17.047-38,38S249.047,276,270,276z M270,220    c9.925,0,18,8.075,18,18s-8.075,18-18,18s-18-8.075-18-18S260.075,220,270,220z"/>
		<path id="XMLID_504_" d="M328,238c0,20.953,17.047,38,38,38s38-17.047,38-38s-17.047-38-38-38S328,217.047,328,238z M384,238    c0,9.925-8.075,18-18,18s-18-8.075-18-18s8.075-18,18-18S384,228.075,384,238z"/>
		<path id="XMLID_509_" d="M174,276c20.953,0,38-17.047,38-38s-17.047-38-38-38s-38,17.047-38,38S153.047,276,174,276z M174,220    c9.925,0,18,8.075,18,18s-8.075,18-18,18s-18-8.075-18-18S164.075,220,174,220z"/>
		<path id="XMLID_512_" d="M444,287.134V74c0-16.542-13.458-30-30-30h-24V30c0-16.542-13.458-30-30-30s-30,13.458-30,30v14h-78V30    c0-16.542-13.458-30-30-30s-30,13.458-30,30v14h-78V30c0-16.542-13.458-30-30-30S54,13.458,54,30v14H30C13.458,44,0,57.458,0,74    v360.032c0,5.522,4.478,10,10,10h37.995c5.522,0,10-4.478,10-10s-4.478-10-10-10H20V147h334c5.522,0,10-4.477,10-10    s-4.478-10-10-10H20V74c0-5.514,4.486-10,10-10h24v12.5c0,16.542,13.458,30,30,30s30-13.458,30-30V64h78v12.5    c0,16.542,13.458,30,30,30s30-13.458,30-30V64h78v12.5c0,16.542,13.458,30,30,30s30-13.458,30-30V64h24c5.514,0,10,4.486,10,10    v205.869c-9.583-2.521-19.637-3.869-30-3.869c-37.434,0-70.848,17.524-92.481,44.796C294.686,310.671,283.107,304,270,304    c-20.953,0-38,17.047-38,38s17.047,38,38,38c2.343,0,4.65-0.22,6.907-0.632C276.311,384.163,276,389.046,276,394    c0,10.375,1.352,20.439,3.878,30.032H127.999c-5.522,0-10,4.478-10,10s4.478,10,10,10h159.15    c18.843,40.082,59.583,67.912,106.714,67.966c0.015,0,0.03,0.002,0.045,0.002c0.008,0,0.015-0.001,0.023-0.001    c0.023,0,0.046,0.001,0.069,0.001c65.065,0,118-52.935,118-118C512,346.799,484.138,305.989,444,287.134z M94,76.5    c0,5.514-4.486,10-10,10s-10-4.486-10-10V30c0-5.514,4.486-10,10-10s10,4.486,10,10V76.5z M232,76.5c0,5.514-4.486,10-10,10    s-10-4.486-10-10V30c0-5.514,4.486-10,10-10s10,4.486,10,10V76.5z M370,76.5c0,5.514-4.486,10-10,10s-10-4.486-10-10V30    c0-5.514,4.486-10,10-10s10,4.486,10,10V76.5z M270,360c-9.925,0-18-8.075-18-18s8.075-18,18-18s18,8.075,18,18    c0,0.059,0.008,0.116,0.009,0.174c-1.993,4.06-3.758,8.25-5.281,12.554C279.328,358.128,274.809,360,270,360z M410.92,382.751    c1.66,0,3.286-0.143,4.873-0.406v12.236c0,12.017-9.776,21.793-21.793,21.793s-21.793-9.776-21.793-21.793v-11.83H410.92z     M456.146,469.719c-13.278,10.918-29.466,18.419-47.208,21.144l18.672-48.27l17.261,3.774c6.533,1.428,11.274,7.318,11.274,14.005    V469.719z M382.157,434.655c3.757,1.112,7.73,1.719,11.843,1.719c4.063,0,7.988-0.594,11.706-1.68    c0.806,0.83,1.696,1.578,2.649,2.245l-14.446,37.344l-14.445-37.339C380.434,436.264,381.339,435.502,382.157,434.655z     M420.687,352.984c0,5.386-4.381,9.767-9.767,9.767h-38.713v-4.747c0-8.859,7.208-16.067,16.067-16.067h32.412V352.984z     M360.211,442.606l18.655,48.225c-17.665-2.75-33.782-10.234-47.011-21.112v-9.36c0-6.682,4.737-12.571,11.265-14.003    L360.211,442.606z M474.468,449.868c-3.703-11.361-13.229-20.395-25.324-23.04l-23.394-5.115    c6.254-7.307,10.043-16.783,10.043-27.132v-25.273c3.089-4.691,4.894-10.3,4.894-16.324v-21.048c0-5.522-4.478-10-10-10h-42.412    c-19.888,0-36.067,16.18-36.067,36.067v14.747c0,0.351,0.019,0.698,0.054,1.04c-0.035,0.342-0.054,0.688-0.054,1.04v19.751    c0,10.337,3.781,19.803,10.021,27.107l-23.395,5.133c-12.086,2.651-21.605,11.686-25.305,23.044    C302.486,434.005,296,414.747,296,394c0-54.037,43.963-98,98-98s98,43.963,98,98C492,414.749,485.513,434.008,474.468,449.868z"/>
		<path id="XMLID_530_" d="M88,424.03c-2.63,0-5.21,1.069-7.07,2.93c-1.86,1.859-2.93,4.439-2.93,7.07c0,2.64,1.069,5.21,2.93,7.069    c1.86,1.86,4.44,2.931,7.07,2.931s5.21-1.07,7.069-2.931C96.93,439.24,98,436.66,98,434.03c0-2.631-1.07-5.211-2.931-7.07    C93.21,425.1,90.63,424.03,88,424.03z"/>
	</g>
</g>















</svg>
