<?xml version="1.0" encoding="iso-8859-1"?>
<!-- Generator: Adobe Illustrator 19.0.0, SVG Export Plug-In . SVG Version: 6.00 Build 0)  -->
<svg xmlns="http://www.w3.org/2000/svg" xmlns:xlink="http://www.w3.org/1999/xlink" version="1.1" id="Layer_1" x="0px" y="0px" viewBox="0 0 512.058 512.058" style="enable-background:new 0 0 512.058 512.058;" xml:space="preserve" width="512" height="512">
<g id="XMLID_2538_">
	<g id="XMLID_740_">
		<path id="XMLID_743_" d="M474.491,442.698l-33.962-58.824c-2.761-4.783-8.878-6.422-13.66-3.66    c-4.783,2.762-6.422,8.877-3.66,13.66l23.86,41.326l-42.916-5.524l-20.634-35.023c-2.803-4.759-8.934-6.342-13.692-3.54    c-4.758,2.804-6.343,8.934-3.54,13.692l20.578,34.928l-16.632,39.827l-56.187-97.318c15.491-4.006,29.265-14.292,37.393-29.611    c5.7-10.742,15.838-18.107,27.815-20.209c31.602-5.542,52.836-34.769,48.342-66.537c-1.703-12.041,2.17-23.959,10.625-32.698    c22.307-23.06,22.307-59.186,0-82.245c-8.455-8.739-12.327-20.657-10.625-32.698c4.493-31.767-16.741-60.993-48.342-66.537    c-11.978-2.102-22.116-9.467-27.815-20.209C336.401,3.158,302.043-8.004,273.22,6.084c-10.925,5.342-23.456,5.342-34.381,0    c-28.823-14.089-63.182-2.926-78.219,25.415c-5.7,10.742-15.838,18.107-27.815,20.209c-31.601,5.544-52.835,34.771-48.342,66.537    c1.703,12.041-2.17,23.959-10.625,32.698c-22.307,23.06-22.307,59.186,0,82.245c8.455,8.739,12.327,20.657,10.625,32.698    c-3.141,22.206,6.299,43.158,23.053,55.66L37.568,442.698c-1.901,3.293-1.771,7.379,0.337,10.544    c2.108,3.164,5.825,4.866,9.6,4.374l60.245-7.755l23.407,56.051c1.465,3.509,4.793,5.883,8.588,6.126    c0.215,0.014,0.429,0.021,0.642,0.021c3.555,0,6.865-1.894,8.658-5l71.267-123.438c6.266-0.815,12.517-2.635,18.527-5.573    c10.926-5.341,23.458-5.34,34.382,0c6.011,2.938,12.263,4.762,18.53,5.577l71.265,123.434c1.793,3.106,5.103,5,8.658,5    c0.213,0,0.427-0.007,0.642-0.021c3.794-0.243,7.123-2.617,8.588-6.126l23.407-56.051l60.245,7.755    c3.771,0.491,7.491-1.21,9.6-4.374C476.261,450.077,476.392,445.991,474.491,442.698z M141.826,479.561l-16.708-40.009    l13.498-24.668c2.651-4.845,0.873-10.922-3.972-13.572c-4.846-2.653-10.922-0.872-13.573,3.973l-13.36,24.418l-42.72,5.498    l60.383-104.585c2.407,0.745,4.881,1.362,7.431,1.809c11.978,2.102,22.116,9.467,27.815,20.209    c8.127,15.317,21.899,25.61,37.389,29.617L141.826,479.561z M230.055,360.079c-19.078,9.326-41.816,1.938-51.769-16.819    c-8.611-16.23-23.929-27.36-42.027-30.535c-3.609-0.633-7.008-1.742-10.156-3.237c-0.02-0.012-0.038-0.026-0.058-0.037    c-0.38-0.219-0.77-0.401-1.164-0.565c-14.368-7.447-23.011-23.274-20.617-40.197c2.573-18.192-3.278-36.2-16.053-49.405    c-14.764-15.262-14.764-39.171,0-54.433c12.775-13.205,18.626-31.213,16.053-49.405c-2.974-21.024,11.08-40.368,31.995-44.037    c18.097-3.175,33.416-14.305,42.026-30.535c7.04-13.268,20.477-20.847,34.49-20.847c5.798,0,11.695,1.298,17.279,4.027    c16.506,8.068,35.441,8.068,51.947,0h0c19.079-9.328,41.816-1.938,51.769,16.821c8.611,16.229,23.93,27.358,42.026,30.533    c20.915,3.669,34.969,23.013,31.995,44.037c-2.573,18.192,3.278,36.2,16.053,49.405c14.764,15.262,14.764,39.171,0,54.433    c-12.775,13.205-18.626,31.213-16.053,49.405c2.974,21.025-11.08,40.369-31.995,44.037c-18.097,3.175-33.416,14.305-42.026,30.535    c-9.952,18.756-32.69,26.146-51.77,16.819C265.497,352.01,246.563,352.01,230.055,360.079z"/>
		<path id="XMLID_745_" d="M404.792,347.152c-1.86,1.87-2.93,4.45-2.93,7.08s1.07,5.2,2.93,7.07c1.86,1.859,4.44,2.93,7.07,2.93    c2.64,0,5.21-1.07,7.07-2.93c1.87-1.87,2.93-4.44,2.93-7.07s-1.06-5.21-2.93-7.08c-1.86-1.86-4.43-2.92-7.07-2.92    C409.232,344.232,406.652,345.292,404.792,347.152z"/>
		<path id="XMLID_748_" d="M390.029,192.066c0-73.888-60.112-134-134-134s-134,60.112-134,134    c0,73.835,60.027,133.913,133.843,133.998c0.017,0,0.034,0.002,0.052,0.002c0.009,0,0.017-0.001,0.026-0.001    c0.026,0,0.053,0.001,0.079,0.001C329.917,326.066,390.029,265.954,390.029,192.066z M142.029,192.066c0-62.859,51.14-114,114-114    s114,51.141,114,114c0,25.247-8.255,48.599-22.2,67.51c-3.325-13.906-14.42-25.227-28.803-28.372l-29.354-6.418    c7.958-8.349,12.86-19.636,12.86-32.053V163.28c3.545-5.227,5.619-11.529,5.619-18.307v-24.166c0-5.522-4.477-10-10-10h-48.696    c-22.017,0-39.929,17.912-39.929,39.929v16.934c0,0.405,0.031,0.801,0.078,1.193c-0.047,0.392-0.078,0.789-0.078,1.193v22.677    c0,12.402,4.89,23.677,12.831,32.023l-29.351,6.439c-14.373,3.154-25.46,14.477-28.78,28.378    C150.283,240.662,142.029,217.311,142.029,192.066z M275.456,177.67c2.43,0,4.796-0.275,7.076-0.78v15.844    c0,14.613-11.889,26.503-26.503,26.503c-14.614,0-26.503-11.89-26.503-26.503V177.67H275.456z M241.962,237.056    c4.44,1.412,9.165,2.18,14.067,2.18c4.843,0,9.514-0.746,13.907-2.126c1.27,1.428,2.74,2.677,4.383,3.687l-18.395,47.552    L237.53,240.8C239.195,239.777,240.682,238.508,241.962,237.056z M288.151,144.973c0,7.001-5.695,12.696-12.695,12.696h-45.93    v-6.934c0-10.988,8.94-19.929,19.929-19.929h38.696V144.973z M218.156,246.153l22.79,58.914    c-21.78-2.892-41.637-11.954-57.751-25.37v-11.442c0-8.362,5.929-15.732,14.097-17.524L218.156,246.153z M293.697,246.14    l21.057,4.604c8.175,1.787,14.109,9.158,14.109,17.526v11.426c-16.169,13.462-36.106,22.542-57.973,25.401L293.697,246.14z"/>
	</g>
</g>















</svg>
