<?xml version="1.0" encoding="iso-8859-1"?>
<!-- Generator: Adobe Illustrator 19.0.0, SVG Export Plug-In . SVG Version: 6.00 Build 0)  -->
<svg xmlns="http://www.w3.org/2000/svg" xmlns:xlink="http://www.w3.org/1999/xlink" version="1.1" id="Layer_1" x="0px" y="0px" viewBox="0 0 512 512" style="enable-background:new 0 0 512 512;" xml:space="preserve" width="512" height="512">
<g id="XMLID_1037_">
	<g id="XMLID_1076_">
		<path id="XMLID_1079_" d="M223.788,126.561c1.831,0,3.683-0.502,5.344-1.555l76.326-48.369c1.093,3.047,3.638,5.508,7.016,6.342    c0.805,0.199,1.611,0.294,2.405,0.294c4.492,0,8.575-3.048,9.701-7.604l4.579-18.541c0.737-2.984,0.06-6.143-1.835-8.563    c-1.896-2.421-4.799-3.835-7.873-3.835h-18.542c-5.523,0-10,4.478-10,10c0,2.307,0.789,4.426,2.102,6.118l-74.585,47.266    c-4.665,2.956-6.05,9.134-3.094,13.799C217.236,124.917,220.477,126.561,223.788,126.561z"/>
		<path id="XMLID_1174_" d="M240.84,322.99c2.63,0,5.21-1.07,7.07-2.931c1.86-1.859,2.93-4.439,2.93-7.069    c0-2.631-1.07-5.21-2.93-7.07c-1.86-1.86-4.44-2.93-7.07-2.93c-2.64,0-5.21,1.069-7.07,2.93c-1.86,1.86-2.93,4.439-2.93,7.07    c0,2.63,1.07,5.21,2.93,7.069C235.63,321.92,238.21,322.99,240.84,322.99z"/>
		<path id="XMLID_1190_" d="M50,273.12c-2.63,0-5.21,1.069-7.07,2.93c-1.86,1.86-2.93,4.43-2.93,7.07c0,2.63,1.07,5.21,2.93,7.069    c1.86,1.86,4.44,2.931,7.07,2.931c2.63,0,5.21-1.07,7.07-2.931c1.86-1.87,2.93-4.439,2.93-7.069s-1.07-5.21-2.93-7.07    S52.63,273.12,50,273.12z"/>
		<path id="XMLID_1507_" d="M481.766,313.227V40.033C481.766,17.959,463.807,0,441.732,0H40.034C17.959,0,0,17.959,0,40.033v169.582    c0,0.003,0,0.007,0,0.01v106.342C0,338.041,17.959,356,40.034,356h150.804v34.051c-28.851,1.057-52,24.844-52,53.949    c0,5.522,4.477,10,10,10h141.332c20.893,34.687,58.902,57.948,102.251,57.998c0.015,0,0.03,0.002,0.046,0.002    c0.008,0,0.015-0.001,0.023-0.001c0.023,0,0.046,0.001,0.07,0.001C458.419,512,512,458.419,512,392.559    C512,362.136,500.561,334.339,481.766,313.227z M112.353,140.424l72.353,72.353v60.34h-72.353V140.424z M204.706,214.46    l72.353-45.852v104.509h-72.353V214.46z M297.059,155.934l72.354-45.852v163.036h-72.354V155.934z M389.413,273.117V97.407    l72.353-45.852v221.562H389.413z M461.765,293.117l0,2.146c-1.027-0.732-2.069-1.445-3.12-2.146H461.765z M40.034,20h401.698    c7.269,0,13.626,3.904,17.138,9.713L196.314,196.101l-86.397-86.397c-3.904-3.904-10.237-3.904-14.142,0L20,185.478V40.033    C20,28.987,28.987,20,40.034,20z M20,315.967V213.763l72.353-72.353v131.708h-2.358c-5.523,0-10,4.478-10,10s4.477,10,10,10    h236.477c-16.278,10.854-29.755,25.592-39.09,42.883H40.034C28.987,336,20,327.013,20,315.967z M278.847,356    c-3.466,10.754-5.448,22.167-5.698,34h-62.312v-34H278.847z M160.338,434c4.28-13.883,17.23-24,32.5-24h81.557    c1.221,8.306,3.297,16.337,6.141,24H160.338z M455.667,469.352c-13.539,11.146-30.064,18.788-48.177,21.527l19.045-49.234    l17.602,3.849c6.68,1.46,11.529,7.483,11.529,14.322V469.352z M380.519,433.607c3.818,1.138,7.857,1.759,12.039,1.759    c4.131,0,8.122-0.607,11.898-1.718c0.851,0.883,1.796,1.673,2.81,2.375l-14.801,38.261l-14.8-38.258    C378.697,435.311,379.658,434.507,380.519,433.607z M419.735,350.996c0,5.53-4.5,10.03-10.031,10.03h-39.363v-4.944    c0-9.052,7.364-16.415,16.415-16.415h32.979V350.996z M409.705,381.026c1.729,0,3.421-0.155,5.071-0.437v12.558    c0,12.251-9.967,22.218-22.217,22.218s-22.217-9.967-22.217-22.218v-12.121H409.705z M358.401,441.658l19.03,49.193    c-18.036-2.765-34.49-10.394-47.98-21.499v-9.55c0-6.834,4.844-12.856,11.519-14.32L358.401,441.658z M474.059,449.467    c-3.678-11.589-13.349-20.822-25.649-23.511l-23.925-5.231c6.404-7.404,10.292-17.042,10.292-27.577V367.5    c3.131-4.74,4.959-10.411,4.959-16.504v-21.329c0-5.522-4.477-10-10-10h-42.979c-20.079,0-36.415,16.336-36.415,36.415v14.944    c0,0.356,0.02,0.708,0.057,1.055c-0.036,0.346-0.056,0.696-0.056,1.052v20.015c0,10.522,3.878,20.15,10.269,27.551l-23.926,5.249    c-12.291,2.696-21.955,11.93-25.629,23.515c-11.298-16.134-17.939-35.757-17.939-56.904c0-54.832,44.609-99.441,99.441-99.441    S492,337.727,492,392.559C492,413.708,485.358,433.332,474.059,449.467z"/>
		<path id="XMLID_1544_" d="M189.99,147.979c2.63,0,5.2-1.069,7.07-2.939c1.86-1.86,2.93-4.431,2.93-7.061s-1.07-5.21-2.93-7.08    c-1.87-1.859-4.44-2.92-7.07-2.92c-2.64,0-5.21,1.061-7.08,2.92c-1.86,1.87-2.93,4.44-2.93,7.08c0,2.63,1.07,5.21,2.93,7.061    C184.78,146.91,187.35,147.979,189.99,147.979z"/>
	</g>
</g>















</svg>
