<?xml version="1.0" encoding="iso-8859-1"?>
<!-- Generator: Adobe Illustrator 19.0.0, SVG Export Plug-In . SVG Version: 6.00 Build 0)  -->
<svg xmlns="http://www.w3.org/2000/svg" xmlns:xlink="http://www.w3.org/1999/xlink" version="1.1" id="Layer_1" x="0px" y="0px" viewBox="0 0 512 512" style="enable-background:new 0 0 512 512;" xml:space="preserve" width="512" height="512">
<g id="XMLID_1080_">
	<g id="XMLID_1443_">
		<path id="XMLID_1447_" d="M502,467.261h-28.355c1.506-3.708,2.343-7.757,2.343-12V282.166h1.836    c18.838,0,34.164-15.325,34.164-34.163V156.27c0-30.736-23.651-56.039-53.707-58.699c4.405-6.775,6.975-14.848,6.975-23.514    v-6.049c0-23.858-19.41-43.269-43.268-43.269c-23.858,0-43.269,19.41-43.269,43.269v6.049c0,8.666,2.571,16.739,6.975,23.514    c-30.056,2.66-53.707,27.963-53.707,58.699v91.733c0,18.838,15.326,34.163,34.164,34.163h1.836v173.095    c0,4.243,0.837,8.292,2.343,12h-94.12V386c0-5.522-4.477-10-10-10s-10,4.478-10,10v81.134H222V237.212c0-5.522-4.477-10-10-10    h-2.236l29.342-44.128l29.342,44.128h-2.236c-5.523,0-10,4.478-10,10V306c0,5.522,4.477,10,10,10s10-4.478,10-10v-58.788h10.894    c3.686,0,7.073-2.027,8.814-5.276c1.741-3.248,1.554-7.191-0.487-10.261l-48-72.188c-1.854-2.788-4.979-4.463-8.327-4.463    s-6.474,1.675-8.327,4.463l-48,72.188c-2.041,3.069-2.228,7.013-0.487,10.261c1.741,3.249,5.128,5.276,8.814,5.276H202v220.049    h-51.894V358.295H161c3.686,0,7.073-2.027,8.814-5.276c1.741-3.248,1.554-7.191-0.487-10.261l-48-72.188    c-1.854-2.788-4.979-4.463-8.327-4.463s-6.474,1.675-8.327,4.463l-48,72.188c-2.041,3.069-2.228,7.013-0.487,10.261    c1.741,3.249,5.128,5.276,8.814,5.276h10.894v108.966H20v-428c0-5.522-4.477-10-10-10s-10,4.478-10,10v438c0,5.522,4.477,10,10,10    h75.894h54.212H502c5.523,0,10-4.478,10-10S507.523,467.261,502,467.261z M398.72,68.008c0-12.83,10.438-23.269,23.269-23.269    c12.83,0,23.268,10.438,23.268,23.269v6.049c0,12.83-10.438,23.269-23.268,23.269c-12.831,0-23.269-10.438-23.269-23.269V68.008z     M366.152,262.166c-7.81,0-14.164-6.354-14.164-14.163V156.27c0-21.474,17.47-38.944,38.944-38.944h62.112    c21.474,0,38.944,17.471,38.944,38.944v91.733c0,7.81-6.354,14.163-14.164,14.163h-1.836v-83.854c0-5.522-4.477-10-10-10    s-10,4.478-10,10v41.521h-68v-41.521c0-5.522-4.477-10-10-10s-10,4.478-10,10v83.854H366.152z M387.988,455.261V239.833h68    v215.428c0,6.617-5.383,12-12,12s-12-5.383-12-12V290.901v-9.35c0-5.522-4.477-10-10-10s-10,4.478-10,10v9.35v164.359    c0,6.617-5.383,12-12,12S387.988,461.878,387.988,455.261z M95.894,467.261V348.295c0-5.522-4.477-10-10-10h-2.236L113,294.167    l29.342,44.128h-2.236c-5.523,0-10,4.478-10,10v118.966H95.894z"/>
		<path id="XMLID_1456_" d="M93.587,148.215c2.559,0,5.119-0.977,7.071-2.929l72.945-72.945l43.327,43.327    c3.905,3.904,10.237,3.904,14.142,0l53.351-53.351c1.651,3.252,5.018,5.485,8.914,5.485c5.523,0,10-4.478,10-10V39.261    c0-5.522-4.477-10-10-10h-18.542c-5.523,0-10,4.478-10,10c0,3.896,2.233,7.263,5.485,8.914l-46.279,46.279l-43.327-43.326    c-3.905-3.904-10.237-3.904-14.142,0l-80.016,80.016c-3.905,3.905-3.905,10.237,0,14.143    C88.468,147.238,91.028,148.215,93.587,148.215z"/>
		<path id="XMLID_1498_" d="M65.6,176.2c2.64,0,5.21-1.07,7.07-2.931c1.87-1.859,2.93-4.439,2.93-7.069c0-2.631-1.06-5.21-2.93-7.07    c-1.86-1.86-4.43-2.93-7.07-2.93c-2.63,0-5.21,1.069-7.07,2.93s-2.93,4.439-2.93,7.07c0,2.63,1.07,5.21,2.93,7.069    C60.39,175.13,62.97,176.2,65.6,176.2z"/>
		<path id="XMLID_1499_" d="M266.21,336c-2.63,0-5.21,1.069-7.07,2.93c-1.86,1.86-2.93,4.44-2.93,7.07s1.07,5.21,2.93,7.069    c1.86,1.86,4.44,2.931,7.07,2.931s5.21-1.07,7.07-2.931c1.86-1.859,2.93-4.439,2.93-7.069s-1.07-5.21-2.93-7.07    S268.84,336,266.21,336z"/>
	</g>
</g>















</svg>
