<?xml version="1.0" encoding="iso-8859-1"?>
<!-- Generator: Adobe Illustrator 19.0.0, SVG Export Plug-In . SVG Version: 6.00 Build 0)  -->
<svg xmlns="http://www.w3.org/2000/svg" xmlns:xlink="http://www.w3.org/1999/xlink" version="1.1" id="Layer_1" x="0px" y="0px" viewBox="0 0 512 512" style="enable-background:new 0 0 512 512;" xml:space="preserve" width="512" height="512">
<g id="XMLID_2292_">
	<g id="XMLID_1385_">
		<path id="XMLID_1458_" d="M375.938,133.728c-19.337-25.5-46.8-44.519-77.33-53.554c-5.296-1.566-10.859,1.455-12.427,6.751    c-1.567,5.296,1.456,10.859,6.751,12.427c55.087,16.302,93.561,67.855,93.561,125.368c0,29.422-9.777,57.336-27.213,79.884    c-2.634-16.7-15.39-30.636-32.267-34.327l-35.669-7.799c9.796-9.363,15.916-22.54,15.916-37.128v-33.82    c4.011-5.776,6.371-12.781,6.371-20.33V143.8c0-5.522-4.477-10-10-10h-55.212c-24.225,0-43.934,19.709-43.934,43.934v19.198    c0,0.461,0.042,0.911,0.102,1.355c-0.06,0.443-0.102,0.892-0.102,1.351v25.712c0,14.57,6.105,27.732,15.879,37.093l-35.66,7.823    c-16.936,3.715-29.718,17.755-32.273,34.541c-17.708-22.806-27.564-51.116-27.382-80.906    c0.356-58.224,37.944-108.296,93.534-124.6c5.299-1.554,8.335-7.11,6.781-12.41c-1.555-5.3-7.11-8.337-12.41-6.781    c-30.906,9.064-57.584,27.422-77.151,53.089c-19.917,26.126-30.551,57.447-30.754,90.579    c-0.313,51.164,25.019,98.562,67.762,126.788c8.607,5.684,16.534,12.093,23.714,19.138c-1.396,1.719-2.236,3.909-2.236,6.297    v77.359c0,2.652,1.054,5.195,2.929,7.071l10.641,10.641c0.162,0.162,0.334,0.309,0.506,0.458    C211.99,494.432,231.865,512,255.771,512c23.906,0,43.781-17.568,47.405-40.47c0.171-0.149,0.344-0.297,0.506-0.458l10.64-10.641    c1.875-1.876,2.929-4.419,2.929-7.071V376c0-2.407-0.851-4.615-2.268-6.34c7.103-7.035,14.743-13.235,22.847-18.505    c42.995-27.956,68.664-75.222,68.664-126.436C406.494,191.553,395.928,160.089,375.938,133.728z M297.25,386v24h-82.96v-24h1.491    h79.979H297.25z M297.25,449.218L292.468,454h-73.395l-4.783-4.783V430h82.96V449.218z M277.899,206.932    c3.239,0,6.376-0.441,9.361-1.253v19.671c0,17.308-14.081,31.388-31.388,31.388s-31.387-14.08-31.387-31.388v-18.418H277.899z     M239.508,274.05c5.144,1.733,10.644,2.688,16.365,2.688c5.654,0,11.091-0.931,16.183-2.626c1.705,2.088,3.815,3.842,6.217,5.144    l-22.519,58.213l-22.518-58.209C235.663,277.944,237.793,276.168,239.508,274.05z M224.485,177.733    c0-13.197,10.737-23.934,23.934-23.934h45.212v17.399c0,8.675-7.058,15.732-15.732,15.732h-53.414V177.733z M183.834,333.876    c-4.156-2.745-8.112-5.709-11.878-8.853v-14.046c0-10.105,7.164-19.012,17.034-21.177l24.777-5.435L245.347,366h-24.893    C209.951,353.794,197.651,343.001,183.834,333.876z M255.771,492c-11.917,0-22.112-7.486-26.147-18h52.294    C277.883,484.514,267.687,492,255.771,492z M326.927,334.388c-13.131,8.538-25.172,19.159-35.846,31.612h-24.921l31.585-81.65    l24.995,5.465c9.879,2.16,17.049,11.067,17.049,21.18v13.871C335.73,328.268,331.441,331.453,326.927,334.388z"/>
		<path id="XMLID_1471_" d="M255.873,52c5.523,0,10-4.478,10-10V10c0-5.522-4.477-10-10-10s-10,4.478-10,10v32    C245.873,47.522,250.35,52,255.873,52z"/>
		<path id="XMLID_1484_" d="M73.28,214.847h-32c-5.523,0-10,4.478-10,10s4.477,10,10,10h32c5.523,0,10-4.478,10-10    S78.803,214.847,73.28,214.847z"/>
		<path id="XMLID_1485_" d="M470.72,214.593h-32c-5.523,0-10,4.478-10,10s4.477,10,10,10h32c5.523,0,10-4.478,10-10    S476.243,214.593,470.72,214.593z"/>
		<path id="XMLID_1486_" d="M119.637,102.679c1.953,1.952,4.512,2.929,7.071,2.929c2.559,0,5.119-0.977,7.071-2.929    c3.905-3.905,3.906-10.237,0-14.143l-22.627-22.628c-3.905-3.903-10.237-3.904-14.142,0c-3.905,3.905-3.906,10.237,0,14.143    L119.637,102.679z"/>
		<path id="XMLID_1488_" d="M392.363,346.761c-3.905-3.903-10.237-3.904-14.142,0c-3.905,3.905-3.906,10.237,0,14.143l22.627,22.628    c1.953,1.952,4.512,2.929,7.071,2.929c2.559,0,5.119-0.977,7.071-2.929c3.905-3.905,3.906-10.237,0-14.143L392.363,346.761z"/>
		<path id="XMLID_1491_" d="M119.816,346.94l-22.627,22.628c-3.905,3.905-3.905,10.237,0,14.143    c1.953,1.952,4.512,2.929,7.071,2.929s5.119-0.977,7.071-2.929l22.627-22.628c3.905-3.905,3.905-10.237,0-14.143    C130.053,343.036,123.721,343.036,119.816,346.94z"/>
		<path id="XMLID_1492_" d="M385.113,105.428c2.559,0,5.119-0.977,7.071-2.929l22.627-22.628c3.905-3.905,3.905-10.237,0-14.143    c-3.905-3.904-10.237-3.904-14.142,0l-22.627,22.628c-3.905,3.905-3.905,10.237,0,14.143    C379.995,104.451,382.554,105.428,385.113,105.428z"/>
		<path id="XMLID_1497_" d="M254.833,94c2.64,0,5.21-1.07,7.08-2.931c1.86-1.859,2.92-4.439,2.92-7.069s-1.06-5.21-2.92-7.07    c-1.87-1.86-4.44-2.93-7.08-2.93c-2.63,0-5.21,1.069-7.07,2.93c-1.86,1.86-2.93,4.44-2.93,7.07s1.07,5.21,2.93,7.069    C249.633,92.93,252.203,94,254.833,94z"/>
	</g>
</g>















</svg>
