<?xml version="1.0" encoding="iso-8859-1"?>
<!-- Generator: Adobe Illustrator 19.0.0, SVG Export Plug-In . SVG Version: 6.00 Build 0)  -->
<svg xmlns="http://www.w3.org/2000/svg" xmlns:xlink="http://www.w3.org/1999/xlink" version="1.1" id="Layer_1" x="0px" y="0px" viewBox="0 0 512 512" style="enable-background:new 0 0 512 512;" xml:space="preserve" width="512" height="512">
<g id="XMLID_2597_">
	<g id="XMLID_3072_">
		<g id="XMLID_1379_">
			<path id="XMLID_1380_" d="M234.55,321.03c-2.64,0-5.21,1.069-7.07,2.93c-1.86,1.859-2.93,4.439-2.93,7.07     c0,2.64,1.07,5.21,2.93,7.069c1.86,1.86,4.44,2.931,7.07,2.931s5.21-1.07,7.07-2.931c1.86-1.859,2.93-4.439,2.93-7.069     c0-2.631-1.07-5.211-2.93-7.07C239.76,322.1,237.18,321.03,234.55,321.03z"/>
			<path id="XMLID_1434_" d="M489,294.445h-40.451v-19.477c0-12.82-10.43-23.25-23.25-23.25h-37.244L264.783,25.25     c-1.751-3.217-5.121-5.219-8.783-5.219c-3.663,0-7.032,2.002-8.783,5.219l-93.684,172.11L1.217,477.188     c-1.687,3.099-1.616,6.856,0.187,9.89s5.069,4.892,8.597,4.892h479c12.682,0,23-10.317,23-23V317.445     C512,304.763,501.682,294.445,489,294.445z M492,317.445v65.762h-68.993v-17.738c0-5.522-4.477-10-10-10h-55.476     c-5.523,0-10,4.478-10,10v17.738h-62.983v-65.762c0-1.654,1.346-3,3-3h50.451h100.551H489     C490.654,314.445,492,315.791,492,317.445z M367.531,375.469h35.476v25.477c0,5.514-4.486,10-10,10h-15.476     c-5.514,0-10-4.486-10-10V375.469z M428.549,274.969v19.477h-80.551v-19.477c0-1.792,1.458-3.25,3.25-3.25h74.051     C427.091,271.719,428.549,273.177,428.549,274.969z M256,50.948l65.908,121.083H190.092L256,50.948z M98.101,341.031h96.447     c5.523,0,10-4.478,10-10s-4.477-10-10-10h-85.56L171.1,206.923l8.106-14.892h153.589l32.489,59.688h-14.035     c-12.82,0-23.25,10.43-23.25,23.25v19.477h-40.451c-12.682,0-23,10.317-23,23v151.523c0,1.017,0.073,2.017,0.202,3H26.829     L98.101,341.031z M489,471.969H287.548c-1.654,0-3-1.346-3-3v-65.762h63.077c1.161,15.488,14.126,27.738,29.906,27.738h15.476     c15.78,0,28.745-12.25,29.906-27.738H492v65.762C492,470.623,490.654,471.969,489,471.969z"/>
		</g>
	</g>
</g>















</svg>
