<?xml version="1.0" encoding="iso-8859-1"?>
<!-- Generator: Adobe Illustrator 19.0.0, SVG Export Plug-In . SVG Version: 6.00 Build 0)  -->
<svg xmlns="http://www.w3.org/2000/svg" xmlns:xlink="http://www.w3.org/1999/xlink" version="1.1" id="Layer_1" x="0px" y="0px" viewBox="0 0 512.006 512.006" style="enable-background:new 0 0 512.006 512.006;" xml:space="preserve" width="512" height="512">
<g id="XMLID_1291_">
	<g id="XMLID_1308_">
		<path id="XMLID_1309_" d="M114.332,458.003c2.64,0,5.21-1.07,7.069-2.931c1.87-1.859,2.931-4.439,2.931-7.069    s-1.061-5.21-2.931-7.07c-1.859-1.86-4.439-2.93-7.069-2.93s-5.21,1.069-7.07,2.93s-2.93,4.44-2.93,7.07s1.069,5.21,2.93,7.069    C109.122,456.932,111.702,458.003,114.332,458.003z"/>
		<path id="XMLID_1396_" d="M199.842,441.942c-2.63,0-5.2,1.07-7.07,2.931c-1.859,1.859-2.93,4.43-2.93,7.069    c0,2.63,1.07,5.21,2.93,7.07c1.87,1.86,4.44,2.93,7.07,2.93c2.64,0,5.21-1.069,7.08-2.93c1.86-1.86,2.93-4.44,2.93-7.07    s-1.069-5.21-2.93-7.069C205.052,443.013,202.481,441.942,199.842,441.942z"/>
		<path id="XMLID_1399_" d="M511.505,309.641c-1.739-10.263-7.868-19.201-16.814-24.522c-13.949-8.297-31.7-6.072-43.169,5.409    l-50.778,50.831v-51.485c0-25.864-18.339-48.646-43.606-54.171l-56.101-12.267c-1.058-0.231-1.976-0.788-2.693-1.533    c16.428-12.699,27.037-32.579,27.037-54.902v-49.906c5.739-7.783,9.14-17.392,9.14-27.782v-39.31c0-5.522-4.478-10-10-10h-79.211    c-32.358,0-58.685,26.325-58.685,58.684v27.544c0,0.666,0.068,1.315,0.192,1.944c-0.123,0.627-0.191,1.274-0.191,1.938v36.889    c0,22.236,10.527,42.047,26.845,54.752c-0.734,0.828-1.71,1.444-2.841,1.692l-55.799,12.24    c-25.246,5.537-43.569,28.316-43.569,54.162v8.351l-26.304,9.09c-9.826-6.543-22.918-7.407-33.817-1.116L5.002,332.81    c-4.783,2.762-6.422,8.877-3.66,13.66l92.684,160.532c1.326,2.297,3.51,3.973,6.072,4.659c0.852,0.229,1.721,0.341,2.588,0.341    c1.74,0,3.467-0.454,5-1.34l46.138-26.638c7.411-4.279,12.713-11.188,14.928-19.455c2.216-8.267,1.079-16.901-3.2-24.313    L98.329,323.827l70.141-24.238c24.33-8.406,51.262-4.358,72.045,10.829l75.774,55.379c6.099,4.457,4.64,10.727,4.047,12.542    c-0.593,1.816-3.114,7.74-10.669,7.74c-1.728,0-3.458-0.407-5.004-1.177l-69.276-34.506c-3.966-1.976-8.404-3.02-12.834-3.02    h-18.441c-5.522,0-10,4.478-10,10s4.478,10,10,10h18.441c1.352,0,2.706,0.318,3.917,0.922l69.277,34.506    c4.301,2.143,9.114,3.274,13.92,3.274c9.302,0,17.631-3.873,23.377-10.418c0.817,0.216,1.67,0.342,2.555,0.342h14.618    c15.612,0,30.287-6.083,41.32-17.128l74.135-74.212c4.993-5,12.722-5.968,18.794-2.354c3.896,2.316,6.563,6.208,7.32,10.676    c0.758,4.469-0.479,9.022-3.394,12.494l-60.479,72.04c-23.7,28.23-58.435,44.422-95.295,44.422h-92.771c-5.522,0-10,4.478-10,10    s4.478,10,10,10h92.771c42.786,0,83.103-18.794,110.613-51.563l60.479-72.04C510.404,330.364,513.245,319.905,511.505,309.641z     M206.624,98.686c0-21.33,17.354-38.684,38.685-38.684h69.211v29.31c0,14.843-12.075,26.918-26.917,26.918h-80.979V98.686z     M206.625,167.001V136.23h80.978c6.29,0,12.291-1.253,17.777-3.508v34.279c0,27.227-22.15,49.377-49.378,49.377    C228.775,216.378,206.625,194.227,206.625,167.001z M149.432,459.393c-0.832,3.107-2.824,5.703-5.609,7.312l-37.478,21.638    L23.662,345.131l37.478-21.638c5.749-3.319,13.127-1.343,16.447,4.407l70.644,122.357    C149.838,453.043,150.265,456.287,149.432,459.393z M161.938,280.686l-30.678,10.601v-1.44c0-16.523,11.715-31.087,27.854-34.627    l39.188-8.596l11.58,29.935C194.027,273.995,177.555,275.29,161.938,280.686z M234.107,283.745l-16.121-41.673    c5.417-1.943,9.93-5.67,12.92-10.411c7.789,3.034,16.247,4.717,25.096,4.717c8.746,0,17.11-1.643,24.824-4.609    c2.991,4.686,7.478,8.368,12.854,10.296l-24.861,64.267l-16.503-12.061C246.58,290.079,240.472,286.566,234.107,283.745z     M350.217,376.003h-9.32c0.462-10.221-4.11-19.998-12.807-26.354l-42.554-31.1l27.831-71.943l39.499,8.637    c16.153,3.531,27.878,18.097,27.878,34.632v71.506l-3.356,3.36C370.132,372.003,360.482,376.003,350.217,376.003z"/>
		<path id="XMLID_1407_" d="M406.002,92.191h10.895v113.812c0,5.522,4.478,10,10,10h54.211c5.522,0,10-4.478,10-10v-26.585    c0-5.522-4.478-10-10-10s-10,4.478-10,10v16.585h-34.211V82.191c0-5.522-4.478-10-10-10h-2.236l29.342-44.128l29.342,44.128    h-2.236c-5.522,0-10,4.478-10,10v17.227c0,5.522,4.478,10,10,10s10-4.478,10-10v-7.227h10.895c3.686,0,7.072-2.027,8.813-5.276    c1.741-3.248,1.555-7.191-0.486-10.261l-48-72.188c-1.854-2.788-4.979-4.463-8.327-4.463s-6.474,1.675-8.327,4.463l-48,72.188    c-2.041,3.069-2.228,7.013-0.486,10.261C398.93,90.164,402.316,92.191,406.002,92.191z"/>
		<path id="XMLID_1411_" d="M10.002,162.356h10.895v93.646c0,5.522,4.478,10,10,10h54.211c5.522,0,10-4.478,10-10v-93.646h10.895    c3.686,0,7.073-2.027,8.813-5.276c1.741-3.248,1.555-7.191-0.486-10.261l-48-72.188c-1.854-2.788-4.979-4.463-8.327-4.463    s-6.474,1.675-8.327,4.463l-48,72.188c-2.041,3.069-2.228,7.013-0.486,10.261C2.929,160.329,6.316,162.356,10.002,162.356z     M58.002,98.229l29.342,44.127h-2.236c-5.522,0-10,4.478-10,10v93.646H40.896v-93.646c0-5.522-4.478-10-10-10H28.66L58.002,98.229    z"/>
		<path id="XMLID_1412_" d="M481.082,129.423c-2.63,0-5.21,1.06-7.07,2.92c-1.86,1.87-2.93,4.44-2.93,7.07s1.069,5.21,2.93,7.08    c1.86,1.859,4.44,2.92,7.07,2.92c2.64,0,5.21-1.061,7.069-2.92c1.87-1.87,2.931-4.45,2.931-7.08s-1.061-5.2-2.931-7.07    C486.292,130.482,483.722,129.423,481.082,129.423z"/>
	</g>
</g>















</svg>
