<?xml version="1.0" encoding="iso-8859-1"?>
<!-- Generator: Adobe Illustrator 19.0.0, SVG Export Plug-In . SVG Version: 6.00 Build 0)  -->
<svg xmlns="http://www.w3.org/2000/svg" xmlns:xlink="http://www.w3.org/1999/xlink" version="1.1" id="Layer_1" x="0px" y="0px" viewBox="0 0 512.003 512.003" style="enable-background:new 0 0 512.003 512.003;" xml:space="preserve" width="512" height="512">
<g id="XMLID_2816_">
	<g id="XMLID_1285_">
		<path id="XMLID_1365_" d="M511.274,498.258l-79-195.741c-1.526-3.782-5.195-6.258-9.273-6.258h-41.084l-80.054-129.88v-55.065    l102.883-44.613c3.655-1.586,6.021-5.19,6.021-9.175c0-3.985-2.366-7.589-6.021-9.175L295.841,1.129    c-3.094-1.34-6.649-1.033-9.466,0.814c-2.816,1.849-4.513,4.991-4.513,8.36v46.92v47.526v62.119L201.58,328.694H179.32    c-3.605,0-6.931,1.94-8.705,5.079l-5.739,10.151L109,253.168v-20.083l68.646-29.766c3.655-1.586,6.021-5.19,6.021-9.175    s-2.366-7.589-6.021-9.175l-74.667-32.377c-3.093-1.341-6.649-1.033-9.466,0.814c-2.816,1.849-4.513,4.991-4.513,8.36v27.86    v36.894v26.881L25.125,368H10c-5.522,0-10,4.478-10,10s4.478,10,10,10h21c3.627,0,6.969-1.964,8.734-5.132l59.694-107.098    l54.204,88.042L78.295,497.079c-2.718,4.808-1.023,10.908,3.784,13.626c4.805,2.717,10.907,1.024,13.626-3.784l44.81-79.266    h109.088c5.522,0,10-4.478,10-10s-4.478-10-10-10h-97.782l33.332-58.961h22.629c3.799,0,7.27-2.152,8.958-5.556l76.068-153.332    l75.012,121.699c1.82,2.954,5.043,4.753,8.513,4.753h39.919l76.475,189.483c1.572,3.896,5.319,6.261,9.276,6.261    c1.246,0,2.514-0.234,3.739-0.729C510.864,509.206,513.34,503.379,511.274,498.258z M109,177.003l39.53,17.142L109,211.286    v-21.658V177.003z M301.862,25.539l73.768,31.987l-73.768,31.987v-32.29V25.539z"/>
		<path id="XMLID_1367_" d="M289.61,407.649c-2.64,0-5.21,1.07-7.079,2.931c-1.86,1.87-2.931,4.439-2.931,7.069    c0,2.641,1.07,5.21,2.931,7.08c1.869,1.86,4.439,2.92,7.079,2.92c2.631,0,5.2-1.06,7.061-2.92c1.87-1.87,2.93-4.449,2.93-7.08    c0-2.619-1.06-5.199-2.93-7.069C294.81,408.72,292.24,407.649,289.61,407.649z"/>
		<path id="XMLID_1369_" d="M189.252,34.414c5.522,0,10-4.478,10-10V10c0-5.522-4.478-10-10-10s-10,4.478-10,10v14.414    C179.252,29.937,183.73,34.414,189.252,34.414z"/>
		<path id="XMLID_1370_" d="M189.252,100c5.522,0,10-4.478,10-10V75.586c0-5.522-4.478-10-10-10s-10,4.478-10,10V90    C179.252,95.522,183.73,100,189.252,100z"/>
		<path id="XMLID_1371_" d="M214.838,60h14.414c5.522,0,10-4.478,10-10s-4.478-10-10-10h-14.414c-5.522,0-10,4.478-10,10    S209.316,60,214.838,60z"/>
		<path id="XMLID_1372_" d="M149.252,60h14.415c5.522,0,10-4.478,10-10s-4.478-10-10-10h-14.415c-5.522,0-10,4.478-10,10    S143.73,60,149.252,60z"/>
		<path id="XMLID_1373_" d="M462,149.414c5.522,0,10-4.478,10-10V125c0-5.522-4.478-10-10-10s-10,4.478-10,10v14.414    C452,144.937,456.478,149.414,462,149.414z"/>
		<path id="XMLID_1374_" d="M462,215c5.522,0,10-4.478,10-10v-14.414c0-5.522-4.478-10-10-10s-10,4.478-10,10V205    C452,210.522,456.478,215,462,215z"/>
		<path id="XMLID_1375_" d="M487.586,175H502c5.522,0,10-4.478,10-10s-4.478-10-10-10h-14.414c-5.522,0-10,4.478-10,10    S482.064,175,487.586,175z"/>
		<path id="XMLID_1376_" d="M422,175h14.414c5.522,0,10-4.478,10-10s-4.478-10-10-10H422c-5.522,0-10,4.478-10,10    S416.478,175,422,175z"/>
	</g>
</g>















</svg>
