<?xml version="1.0" encoding="iso-8859-1"?>
<!-- Generator: Adobe Illustrator 19.0.0, SVG Export Plug-In . SVG Version: 6.00 Build 0)  -->
<svg xmlns="http://www.w3.org/2000/svg" xmlns:xlink="http://www.w3.org/1999/xlink" version="1.1" id="Layer_1" x="0px" y="0px" viewBox="0 0 512 512" style="enable-background:new 0 0 512 512;" xml:space="preserve" width="512" height="512">
<g id="XMLID_1732_">
	<g id="XMLID_21_">
		<path id="XMLID_64_" d="M489.871,324.86c-5.522,0-10,4.478-10,10v58.116c0,5.115-4.162,9.277-9.277,9.277h-37.141    c1.239-4.316,1.917-8.867,1.917-13.576v-31.927c3.809-5.538,6.045-12.238,6.045-19.453V311.3c0-5.522-4.478-10-10-10h-52.388    c-23.268,0-42.197,18.93-42.197,42.197v18.217c0,0.436,0.037,0.862,0.092,1.284c-0.054,0.421-0.092,0.848-0.092,1.284v24.396    c0,8.952,2.412,17.347,6.603,24.59c-0.305-0.073-0.607-0.154-0.915-0.221l-47.829-10.456c-0.018-0.004-0.035-0.012-0.053-0.017    c13.41-11.129,21.966-27.913,21.966-46.66v-42.078c4.897-6.809,7.793-15.149,7.793-24.157v-33.514    c0-1.175-0.213-2.298-0.586-3.346v-7.811l139.706-26.448c5.994-1.134,11.517-3.443,16.356-6.655v42.957c0,5.522,4.478,10,10,10    s10-4.478,10-10V106.386c0-16.144-13.134-29.277-29.277-29.277h-70.641V45.181c0-14.283-11.62-25.903-25.903-25.903h-13.318    C356.783,8.063,346.089,0,333.541,0H178.414c-12.548,0-23.242,8.063-27.191,19.277h-13.319c-14.283,0-25.903,11.62-25.903,25.903    v31.928h-70.6c-16.144,0-29.277,13.134-29.277,29.277v286.591c0,16.144,13.134,29.277,29.277,29.277h48.462    c0.417,0.447,0.837,0.893,1.27,1.324l-32.896,7.217c-18.238,4.001-31.476,20.457-31.476,39.129V502c0,5.522,4.478,10,10,10    h104.339h73.886h82.002h73.866h104.357c5.522,0,10-4.478,10-10v-32.06c0-18.685-13.249-35.144-31.503-39.135l-32.903-7.194    c0.445-0.442,0.877-0.898,1.305-1.357h48.482c16.144,0,29.277-13.134,29.277-29.277V334.86    C499.871,329.338,495.394,324.86,489.871,324.86z M356.83,371.714h50.169c2.887,0,5.69-0.362,8.371-1.034v17.998    c0,16.14-13.131,29.27-29.271,29.27s-29.27-13.13-29.27-29.27V371.714z M356.83,343.497c0-12.239,9.958-22.197,22.197-22.197    h42.388v15.998c0,7.949-6.467,14.416-14.416,14.416H356.83V343.497z M285.234,420.3l-29.402,59.215l-29.4-59.209    c3.509-1.727,6.494-4.313,8.716-7.457c6.499,2.385,13.515,3.688,20.83,3.688c7.23,0,14.166-1.277,20.601-3.609    C278.794,416.032,281.756,418.588,285.234,420.3z M255.978,396.536c-22.399,0-40.623-18.224-40.623-40.623v-24.76h67.564    c4.794,0,9.396-0.827,13.683-2.33v27.089C296.602,378.313,278.378,396.536,255.978,396.536z M303.809,236.558    c0,0.006,0,0.012,0,0.019V246h-95.663v-9.421c0-0.007,0-0.014,0-0.021v-9.112h95.663V236.558z M304.395,289.678    c0,11.842-9.634,21.476-21.476,21.476h-67.564V297.67c0-17.372,14.134-31.506,31.506-31.506h57.534V289.678z M169.592,28.822    c0-4.864,3.958-8.822,8.822-8.822h155.127c4.864,0,8.822,3.958,8.822,8.822v0.91c0,4.864-3.958,8.822-8.822,8.822H178.414    c-4.864,0-8.822-3.958-8.822-8.822V28.822z M132.001,45.181c0-3.255,2.648-5.903,5.903-5.903h13.319    c3.948,11.215,14.643,19.277,27.191,19.277h155.127c12.548,0,23.242-8.063,27.191-19.277h13.318c3.255,0,5.903,2.648,5.903,5.903    v31.928H132.001V45.181z M41.401,97.108h429.192c5.115,0,9.277,4.162,9.277,9.277v68.29c0,11.84-8.443,22.03-20.076,24.232    l-135.986,25.744v-7.207c0-5.522-4.478-10-10-10H198.146c-5.522,0-10,4.478-10,10v7.206L52.198,198.909    c-11.632-2.202-20.074-12.394-20.074-24.232v-37.568h91.52c5.522,0,10-4.478,10-10s-4.478-10-10-10h-91.52v-10.723    C32.124,101.271,36.286,97.108,41.401,97.108z M41.401,402.254c-5.115,0-9.277-4.162-9.277-9.277V211.905    c4.839,3.212,10.361,5.52,16.354,6.655l139.668,26.447V256c0,5.522,4.478,10,10,10h8.141c-6.84,8.743-10.932,19.734-10.932,31.67    v23.483c0,0.565,0.058,1.115,0.148,1.655c-0.09,0.539-0.148,1.09-0.148,1.655v31.45c0,18.713,8.526,35.469,21.894,46.598    c-0.09,0.029-0.177,0.064-0.271,0.085l-47.572,10.437c-0.285,0.063-0.564,0.138-0.847,0.206c4.18-7.236,6.585-15.62,6.585-24.56    v-31.927c3.809-5.538,6.045-12.238,6.045-19.453V311.3c0-5.522-4.478-10-10-10h-52.387c-23.268,0-42.197,18.93-42.197,42.197    v18.217c0,0.436,0.037,0.862,0.092,1.284c-0.054,0.421-0.092,0.848-0.092,1.284v24.396c0,4.709,0.678,9.26,1.917,13.576H41.401z     M96.604,388.678v-16.964h50.169c2.886,0,5.689-0.362,8.37-1.034v17.998c0,16.14-13.13,29.27-29.27,29.27    S96.604,404.817,96.604,388.678z M161.188,337.298c0,7.949-6.467,14.416-14.415,14.416H96.604v-8.217    c0-12.239,9.958-22.197,22.197-22.197h42.387V337.298z M46.762,469.924c0-9.35,6.629-17.59,15.761-19.594l36.903-8.096    c4.443-0.974,8.286-3.426,11.08-6.755c4.839,1.593,10.002,2.468,15.369,2.468c4.031,0,7.947-0.498,11.7-1.415    c-4.127,7.188-6.474,15.455-6.474,24.118V492H46.762V469.924z M151.101,492v-31.351c0-13.401,9.5-25.211,22.59-28.082    l32.914-7.221L239.701,492h-24.715H151.101z M296.988,492h-25.025l33.104-66.669l33.178,7.254    c13.101,2.864,22.609,14.677,22.609,28.087V492H296.988z M412.336,442.232l37.102,8.112c9.141,1.998,15.774,10.239,15.774,19.596    V492h-84.357v-31.328c0-8.676-2.353-16.953-6.49-24.148c3.764,0.923,7.691,1.424,11.735,1.424c5.302,0,10.407-0.852,15.197-2.409    C404.088,438.837,407.915,441.266,412.336,442.232z"/>
		<path id="XMLID_101_" d="M163.646,137.109c2.63,0,5.21-1.069,7.07-2.93c1.859-1.87,2.93-4.439,2.93-7.07    c0-2.63-1.07-5.21-2.93-7.069c-1.86-1.86-4.44-2.931-7.07-2.931c-2.64,0-5.21,1.07-7.07,2.931c-1.87,1.859-2.93,4.43-2.93,7.069    c0,2.631,1.06,5.21,2.93,7.07C158.437,136.04,161.007,137.109,163.646,137.109z"/>
		<path id="XMLID_102_" d="M489.866,284.859c-2.63,0-5.21,1.07-7.07,2.931c-1.859,1.859-2.93,4.439-2.93,7.069    c0,2.631,1.07,5.21,2.93,7.07c1.86,1.86,4.44,2.93,7.07,2.93c2.64,0,5.21-1.069,7.07-2.93c1.87-1.86,2.939-4.439,2.939-7.07    c0-2.63-1.069-5.21-2.939-7.069C495.076,285.93,492.506,284.859,489.866,284.859z"/>
	</g>
</g>















</svg>
