<?xml version="1.0" encoding="iso-8859-1"?>
<!-- Generator: Adobe Illustrator 19.0.0, SVG Export Plug-In . SVG Version: 6.00 Build 0)  -->
<svg xmlns="http://www.w3.org/2000/svg" xmlns:xlink="http://www.w3.org/1999/xlink" version="1.1" id="Layer_1" x="0px" y="0px" viewBox="0 0 512 512" style="enable-background:new 0 0 512 512;" xml:space="preserve" width="512" height="512">
<g id="XMLID_3334_">
	<g id="XMLID_3422_">
		<g id="XMLID_681_">
			<path id="XMLID_682_" d="M407.179,103.983c0,5.523,4.478,10,10,10L448,113.982c5.523,0,10-4.478,10-10c0-5.523-4.478-10-10-10     l-30.821,0.001C411.655,93.983,407.179,98.461,407.179,103.983z"/>
			<path id="XMLID_1249_" d="M416.164,170.971c1.953,1.952,4.512,2.929,7.071,2.929c2.559,0,5.118-0.977,7.071-2.929     c3.905-3.905,3.905-10.237,0-14.143l-21.699-21.7c-3.905-3.902-10.235-3.904-14.143,0c-3.905,3.905-3.905,10.237,0,14.143     L416.164,170.971z"/>
			<path id="XMLID_1254_" d="M401.536,75.766c2.56,0,5.118-0.977,7.071-2.929l21.679-21.679c3.905-3.905,3.905-10.237,0-14.143     c-3.906-3.904-10.236-3.904-14.143,0l-21.679,21.679c-3.905,3.905-3.905,10.237,0,14.143     C396.418,74.789,398.977,75.766,401.536,75.766z"/>
			<path id="XMLID_1255_" d="M63.928,113.982l30.821,0.001c5.522,0,10-4.478,10-10s-4.477-10-10-10l-30.821-0.001     c-5.522,0-10,4.478-10,10S58.404,113.982,63.928,113.982z"/>
			<path id="XMLID_1257_" d="M103.32,135.128l-21.699,21.7c-3.905,3.905-3.905,10.237,0,14.143c1.953,1.952,4.512,2.929,7.071,2.929     s5.118-0.977,7.071-2.929l21.699-21.7c3.905-3.905,3.905-10.237,0-14.143C113.557,131.224,107.227,131.224,103.32,135.128z"/>
			<path id="XMLID_1260_" d="M103.32,72.837c1.953,1.952,4.512,2.929,7.071,2.929s5.118-0.977,7.071-2.929     c3.905-3.905,3.905-10.237,0-14.143L95.784,37.016c-3.906-3.904-10.236-3.904-14.143,0c-3.905,3.905-3.905,10.237,0,14.143     L103.32,72.837z"/>
			<path id="XMLID_1267_" d="M354.46,403.99c-2.63,0-5.21,1.069-7.07,2.93s-2.93,4.439-2.93,7.07c0,2.63,1.069,5.21,2.93,7.069     c1.87,1.86,4.44,2.931,7.07,2.931s5.21-1.07,7.069-2.931c1.87-1.859,2.931-4.439,2.931-7.069c0-2.631-1.061-5.21-2.931-7.07     C359.67,405.06,357.09,403.99,354.46,403.99z"/>
			<path id="XMLID_1271_" d="M502,403.99h-56v-77.999c0-5.522-4.478-10-10-10h-70v-78c0-5.522-4.478-10-10-10H156     c-5.522,0-10,4.478-10,10v78H76c-5.522,0-10,4.478-10,10v77.999H10c-5.522,0-10,4.478-10,10v88.001c0,5.522,4.478,10,10,10h492     c5.522,0,10-4.478,10-10V413.99C512,408.468,507.522,403.99,502,403.99z M166,247.991h180v68H166V247.991z M492,491.991H20     V423.99h294.462c5.522,0,10-4.478,10-10s-4.478-10-10-10H86v-24h90c5.522,0,10-4.478,10-10s-4.478-10-10-10H86v-23.999h70h200h70     v67.999h-31.667c-5.522,0-10,4.478-10,10s4.478,10,10,10H492V491.991z"/>
			<path id="XMLID_1273_" d="M216,359.99c-2.63,0-5.21,1.069-7.07,2.93s-2.93,4.439-2.93,7.07c0,2.63,1.069,5.21,2.93,7.069     c1.86,1.86,4.44,2.931,7.07,2.931s5.21-1.07,7.069-2.931c1.86-1.859,2.931-4.439,2.931-7.069c0-2.631-1.07-5.21-2.931-7.07     C221.21,361.06,218.63,359.99,216,359.99z"/>
			<path id="XMLID_1276_" d="M179.65,204.009H333.27c12.683,0,23-10.317,23-23V66.818c0-12.683-10.317-23-23-23h-27.106v-20.56     c0-12.82-10.43-23.25-23.25-23.25h-52.905c-12.82,0-23.25,10.43-23.25,23.25v20.56H179.65c-12.683,0-23,10.317-23,23v114.19     C156.65,193.691,166.968,204.009,179.65,204.009z M333.27,184.009H179.65c-1.654,0-3-1.346-3-3v-47.095h46.651     c3.542,12.62,15.144,21.904,28.881,21.904h3.81c13.737,0,25.338-9.284,28.881-21.904h51.396v47.095     C336.27,182.663,334.924,184.009,333.27,184.009z M265.992,125.818c0,5.514-4.486,10-10,10h-3.81c-5.514,0-10-4.486-10-10v-13.81     h23.81V125.818z M226.758,23.259c0-1.792,1.458-3.25,3.25-3.25h52.905c1.792,0,3.25,1.458,3.25,3.25v20.56h-59.405V23.259z      M179.65,63.818h37.107h79.405h37.106c1.654,0,3,1.346,3,3v47.096h-50.277v-11.905c0-5.522-4.478-10-10-10h-43.81     c-5.522,0-10,4.478-10,10v11.905H176.65V66.818C176.65,65.164,177.996,63.818,179.65,63.818z"/>
		</g>
	</g>
</g>















</svg>
