<?xml version="1.0" encoding="iso-8859-1"?>
<!-- Generator: Adobe Illustrator 19.0.0, SVG Export Plug-In . SVG Version: 6.00 Build 0)  -->
<svg xmlns="http://www.w3.org/2000/svg" xmlns:xlink="http://www.w3.org/1999/xlink" version="1.1" id="Layer_1" x="0px" y="0px" viewBox="0 0 512 512" style="enable-background:new 0 0 512 512;" xml:space="preserve" width="512" height="512">
<g id="XMLID_1454_">
	<g id="XMLID_58_">
		<path id="XMLID_82_" d="M492,202h-29.535c-4.917-18.908-12.387-36.953-22.279-53.818l20.875-20.875    c7.798-7.798,7.798-20.486,0-28.285l-48.083-48.083c-7.798-7.797-20.485-7.798-28.284,0l-20.876,20.875    c-16.865-9.892-34.91-17.362-53.818-22.279V20c0-11.028-8.972-20-20-20h-68c-11.028,0-20,8.972-20,20v29.601    c-18.88,4.935-36.89,12.412-53.725,22.307l-20.968-20.968c-7.799-7.798-20.486-7.797-28.285,0L50.939,99.022    c-7.798,7.798-7.798,20.486,0,28.284l21.037,21.038C62.128,165.166,54.69,183.153,49.789,202H20c-11.028,0-20,8.972-20,20v68    c0,11.028,8.972,20,20,20h29.854c4.918,18.816,12.365,36.773,22.214,53.564l-21.129,21.129c-7.798,7.798-7.798,20.486,0,28.285    l48.083,48.083c7.799,7.798,20.486,7.799,28.284,0l21.13-21.129c16.791,9.849,34.748,17.295,53.564,22.213V492    c0,11.028,8.972,20,20,20h68c11.028,0,20-8.972,20-20v-29.789c18.847-4.901,36.834-12.339,53.656-22.187l21.037,21.037    c7.799,7.798,20.486,7.797,28.285,0l48.083-48.083c7.798-7.798,7.798-20.486,0-28.284l-20.968-20.969    c9.895-16.835,17.372-34.845,22.307-53.725H492c11.028,0,20-8.972,20-20v-68C512,210.972,503.028,202,492,202z M492,290h-37.473    c-4.69,0-8.75,3.259-9.764,7.838c-4.888,22.074-13.548,42.932-25.741,61.995c-2.53,3.956-1.967,9.139,1.353,12.459l26.543,26.544    l-48.083,48.083l-26.603-26.602c-3.316-3.316-8.489-3.883-12.444-1.363c-19.059,12.142-39.898,20.758-61.938,25.609    c-4.585,1.009-7.851,5.071-7.851,9.766V492h-68v-37.727c0-4.69-3.259-8.75-7.838-9.764c-22.011-4.874-42.819-13.503-61.846-25.648    c-1.654-1.056-3.521-1.571-5.377-1.571c-2.583,0-5.144,0.999-7.074,2.929l-26.7,26.7l-48.083-48.083l26.7-26.7    c3.318-3.318,3.882-8.496,1.358-12.451c-12.145-19.027-20.774-39.835-25.649-61.846c-1.014-4.579-5.074-7.838-9.764-7.838H20v-68    h37.671c4.695,0,8.757-3.266,9.766-7.851c4.851-22.041,13.467-42.879,25.609-61.938c2.519-3.955,1.953-9.128-1.363-12.444    l-26.602-26.603l48.083-48.083l26.544,26.543c3.32,3.32,8.504,3.883,12.459,1.353c19.063-12.193,39.921-20.854,61.995-25.741    c4.579-1.014,7.838-5.074,7.838-9.764V20h68v37.417c0,4.695,3.266,8.757,7.851,9.766c22.102,4.865,42.991,13.512,62.087,25.702    c3.956,2.525,9.134,1.959,12.451-1.358l26.446-26.446l48.083,48.083l-26.446,26.446c-3.318,3.318-3.882,8.496-1.358,12.451    c12.19,19.097,20.837,39.986,25.702,62.087c1.009,4.585,5.071,7.851,9.766,7.851H492V290z"/>
		<path id="XMLID_88_" d="M302.249,117.48c-5.236-1.747-10.903,1.082-12.651,6.32c-1.748,5.239,1.082,10.903,6.32,12.651    C347.406,153.635,382,201.678,382,256c0,28.669-9.631,55.127-25.819,76.323c-2.918-15.829-15.182-28.927-31.295-32.451    l-33.904-7.413c9.28-9.088,15.053-21.744,15.053-35.728v-32.611c3.882-5.624,6.163-12.435,6.163-19.771v-26.504    c0-5.523-4.477-10-10-10H248.79c-23.614,0-42.825,19.211-42.825,42.825v18.572c0,0.445,0.039,0.879,0.095,1.309    c-0.056,0.429-0.095,0.864-0.095,1.309v24.872c0,13.966,5.758,26.608,15.017,35.694l-33.896,7.436    c-16.102,3.532-28.358,16.634-31.27,32.459C139.63,311.124,130,284.667,130,256c0-56.212,37.745-106.094,91.79-121.303    c5.316-1.496,8.413-7.019,6.917-12.335c-1.496-5.316-7.019-8.412-12.335-6.917c-30.029,8.451-57.09,26.798-76.199,51.663    C120.434,192.791,110,223.53,110,256c0,80.447,65.402,145.904,145.828,145.998c0.019,0,0.038,0.002,0.057,0.002    c0.01,0,0.019-0.001,0.029-0.001c0.029,0,0.058,0.001,0.087,0.001c80.505,0,146-65.495,146-146    C402,193.059,361.913,137.392,302.249,117.48z M336.85,339.58v12.979c-18.328,15.371-41.076,25.629-66.036,28.566l25.895-66.941    l23.905,5.227C330.021,321.468,336.85,329.95,336.85,339.58z M286.035,256.732c0,16.562-13.474,30.036-30.035,30.036    s-30.035-13.474-30.035-30.036v-17.489h51.342c3.013,0,5.938-0.384,8.729-1.106V256.732z M240.271,304.221    c4.95,1.644,10.234,2.547,15.729,2.547c5.429,0,10.654-0.881,15.553-2.488c1.589,1.902,3.521,3.513,5.709,4.74l-21.377,55.263    l-21.376-55.258C236.721,307.784,238.672,306.151,240.271,304.221z M225.965,210.671c0-12.585,10.239-22.825,22.825-22.825h43.409    v16.504c0,8.211-6.68,14.892-14.892,14.892h-51.342V210.671z M191.372,319.396l23.694-5.198l25.879,66.898    c-24.865-2.974-47.526-13.216-65.794-28.538v-12.997C175.15,329.939,181.973,321.458,191.372,319.396z"/>
		<path id="XMLID_1046_" d="M259.08,130c2.63,0,5.21-1.07,7.07-2.93s2.93-4.44,2.93-7.07c0-2.63-1.07-5.21-2.93-7.07    c-1.86-1.86-4.44-2.93-7.07-2.93c-2.63,0-5.21,1.07-7.07,2.93c-1.86,1.86-2.93,4.44-2.93,7.07c0,2.63,1.07,5.21,2.93,7.07    S256.45,130,259.08,130z"/>
	</g>
</g>















</svg>
