<?xml version="1.0" encoding="iso-8859-1"?>
<!-- Generator: Adobe Illustrator 19.0.0, SVG Export Plug-In . SVG Version: 6.00 Build 0)  -->
<svg xmlns="http://www.w3.org/2000/svg" xmlns:xlink="http://www.w3.org/1999/xlink" version="1.1" id="Layer_1" x="0px" y="0px" viewBox="0 0 512 512" style="enable-background:new 0 0 512 512;" xml:space="preserve" width="512" height="512">
<g id="XMLID_811_">
	<g id="XMLID_666_">
		<path id="XMLID_686_" d="M502,246.446h-66v-115.35l71.025-41.28c3.079-1.79,4.975-5.083,4.975-8.646s-1.896-6.855-4.975-8.646    l-76-44.171c-3.095-1.799-6.911-1.807-10.013-0.021C417.911,30.117,416,33.422,416,37v55.175v33.167v121.104h-11.333    c-5.522,0-10,4.478-10,10v88.349h-87.334c-5.522,0-10,4.478-10,10v44.639H210c-5.522,0-10,4.478-10,10V465h-20.202    c0.129-0.983,0.202-1.983,0.202-3v-98.878c0-12.683-10.317-23-23-23h-21.634v-15.774c0-12.82-10.43-23.25-23.25-23.25H67.884    c-12.82,0-23.25,10.43-23.25,23.25v15.774H23c-12.683,0-23,10.317-23,23V462c0,12.683,10.317,23,23,23h479c5.522,0,10-4.478,10-10    V256.446C512,250.924,507.522,246.446,502,246.446z M436,54.378l46.1,26.793L436,107.964V92.175V54.378z M64.634,324.348    c0-1.792,1.458-3.25,3.25-3.25h44.232c1.792,0,3.25,1.458,3.25,3.25v15.774H64.634V324.348z M23,360.122h31.634h70.732H157    c1.654,0,3,1.346,3,3v39.438h-42.602v-9.512c0-5.522-4.478-10-10-10H68.374c-5.522,0-10,4.478-10,10v9.512H20v-39.438    C20,361.468,21.346,360.122,23,360.122z M97.398,412.561c0,5.245-4.268,9.513-9.513,9.513s-9.512-4.268-9.512-9.513v-9.512h19.024    V412.561z M143.667,465H23c-1.654,0-3-1.346-3-3v-39.439h40.121c4.106,11.366,15.001,19.513,27.765,19.513    c12.765,0,23.659-8.147,27.766-19.513H160V462c0,1.654-1.346,3-3,3H143.667z M220,419.434h77.333V465H220V419.434z     M317.333,409.434v-44.639h77.334V465h-77.334V409.434z M492,465h-28.667V361.76c0-5.522-4.478-10-10-10s-10,4.478-10,10V465    h-28.666V354.795v-88.349H492V465z"/>
		<path id="XMLID_1229_" d="M299.135,122.106L146.12,275.12c-3.905,3.905-3.905,10.237,0,14.143l35.066,35.066    c1.953,1.952,4.512,2.929,7.071,2.929s5.118-0.977,7.071-2.929l34.334-34.334c3.905-3.905,3.905-10.237,0-14.143    c-3.906-3.904-10.236-3.904-14.143,0l-27.263,27.263l-20.924-20.924l153.015-153.015c3.905-3.905,3.905-10.237,0-14.143    l-0.322-0.322l44.708-8.997l-8.998,44.708l-0.321-0.321c-1.875-1.876-4.419-2.93-7.071-2.93s-5.195,1.054-7.071,2.929    l-69.185,69.185c-3.905,3.905-3.905,10.237,0,14.143c3.906,3.904,10.236,3.904,14.143,0l62.113-62.113l6.443,6.443    c2.606,2.607,6.438,3.57,9.963,2.502c3.528-1.065,6.185-3.985,6.912-7.6l15.646-77.743c0.66-3.281-0.365-6.677-2.732-9.044    c-2.368-2.367-5.762-3.392-9.044-2.732l-77.743,15.646c-3.613,0.728-6.534,3.384-7.6,6.911c-1.066,3.528-0.105,7.357,2.501,9.964    L299.135,122.106z"/>
		<path id="XMLID_1233_" d="M64.285,255.83c1.953,1.952,4.512,2.929,7.071,2.929s5.118-0.977,7.071-2.929l84.879-84.879l6.444,6.444    c2.606,2.606,6.434,3.568,9.964,2.501c3.528-1.065,6.184-3.986,6.911-7.6l15.646-77.743c0.66-3.282-0.365-6.677-2.732-9.044    s-5.76-3.392-9.044-2.732l-77.743,15.646c-3.613,0.728-6.534,3.383-7.6,6.911c-1.066,3.528-0.105,7.357,2.501,9.964l6.444,6.444    l-84.879,84.879c-3.905,3.905-3.905,10.237,0,14.143L64.285,255.83z M135.312,128.814c3.905-3.905,3.905-10.237,0-14.143    l-0.322-0.322l44.708-8.997L170.7,150.06l-0.322-0.322c-3.906-3.904-10.236-3.904-14.143,0l-84.879,84.879l-20.924-20.924    L135.312,128.814z"/>
		<path id="XMLID_1239_" d="M243.689,247.46c-1.859,1.859-2.93,4.439-2.93,7.07c0,2.63,1.07,5.21,2.93,7.069    c1.87,1.86,4.44,2.931,7.08,2.931c2.63,0,5.2-1.07,7.07-2.931c1.86-1.859,2.93-4.439,2.93-7.069c0-2.631-1.069-5.211-2.93-7.07    c-1.87-1.86-4.44-2.93-7.07-2.93C248.13,244.53,245.56,245.6,243.689,247.46z"/>
		<path id="XMLID_1240_" d="M453.33,331.76c2.63,0,5.21-1.07,7.069-2.93c1.86-1.86,2.931-4.44,2.931-7.07s-1.07-5.21-2.931-7.07    c-1.859-1.859-4.439-2.93-7.069-2.93s-5.21,1.07-7.07,2.93c-1.86,1.86-2.93,4.44-2.93,7.07s1.069,5.21,2.93,7.07    C448.12,330.69,450.7,331.76,453.33,331.76z"/>
	</g>
</g>















</svg>
