<?xml version="1.0" encoding="iso-8859-1"?>
<!-- Generator: Adobe Illustrator 19.0.0, SVG Export Plug-In . SVG Version: 6.00 Build 0)  -->
<svg xmlns="http://www.w3.org/2000/svg" xmlns:xlink="http://www.w3.org/1999/xlink" version="1.1" id="Layer_1" x="0px" y="0px" viewBox="0 0 512 512" style="enable-background:new 0 0 512 512;" xml:space="preserve" width="512" height="512">
<g id="XMLID_989_">
	<g id="XMLID_722_">
		<path id="XMLID_1503_" d="M488.989,335.902h-32.792v-18.53c0-12.82-10.43-23.25-23.25-23.25h-59.873    c-0.456-0.301-0.936-0.577-1.452-0.806c-4.735-2.1-9.711-3.727-14.789-4.836l-82.729-18.089c-4.334-0.947-7.773-4.12-9.214-8.144    c25.014-17.681,41.379-46.823,41.379-79.716v-75.192c8.439-10.898,13.479-24.553,13.479-39.372V10c0-5.522-4.477-10-10-10h-116.81    c-45.1,0-81.792,36.691-81.792,81.792v40.617c0,0.995,0.15,1.955,0.421,2.862c-0.271,0.907-0.421,1.867-0.421,2.862v54.397    c0,32.714,16.186,61.717,40.969,79.426c-1.374,4.162-4.864,7.473-9.3,8.446l-82.284,18.051    c-17.092,3.749-32.545,13.322-43.512,26.957C6.051,329.045,0.011,346.19,0.011,363.688V502c0,5.522,4.477,10,10,10h304.978h44.358    c5.523,0,10-4.478,10-10s-4.477-10-10-10h-44.358c-1.654,0-3-1.346-3-3v-55.049h54.455c4.294,14.1,17.418,24.391,32.903,24.391    s28.609-10.29,32.903-24.391h59.739V489c0,1.654-1.346,3-3,3h-49.642c-5.523,0-10,4.478-10,10s4.477,10,10,10h49.642    c12.682,0,23-10.317,23-23V358.902C511.989,346.22,501.671,335.902,488.989,335.902z M436.197,317.372v18.53h-68.415v-18.53    c0-1.792,1.458-3.25,3.25-3.25h61.915C434.739,314.122,436.197,315.58,436.197,317.372z M131.146,81.792    c0-34.072,27.72-61.792,61.792-61.792h106.81v47.968c0,24.505-19.936,44.441-44.441,44.441H131.146V81.792z M131.146,182.531    v-50.122h124.161c11.215,0,21.767-2.886,30.962-7.945v58.067c0,42.768-34.794,77.562-77.562,77.562    C165.94,260.093,131.146,225.299,131.146,182.531z M169.614,271.908c11.976,5.259,25.198,8.185,39.094,8.185    c13.735,0,26.814-2.859,38.68-8.004c4.268,8.854,12.429,15.652,22.444,17.842l1.145,0.25l-52.269,151.458v-95.736    c0-5.522-4.477-10-10-10s-10,4.478-10,10v97.199l-52.769-152.908l1.162-0.255C157.176,287.728,165.374,280.851,169.614,271.908z     M20.011,363.688c0-26.58,18.843-50.005,44.805-55.699l61.453-13.481L194.425,492H79.989v-70c0-5.522-4.477-10-10-10    s-10,4.478-10,10v70H20.011V363.688z M222.485,492l68.165-197.518l59.355,12.978c-1.424,3.009-2.224,6.368-2.224,9.912v18.53    h-32.792c-12.682,0-23,10.317-23,23V489c0,1.017,0.073,2.017,0.202,3H222.485z M399.347,438.342    c-7.935,0-14.391-6.456-14.391-14.391v-14.391h28.781v14.391C413.737,431.886,407.281,438.342,399.347,438.342z M433.737,413.951    v-14.391c0-5.522-4.477-10-10-10h-48.781c-5.523,0-10,4.478-10,10v14.391h-52.967v-55.049c0-1.654,1.346-3,3-3h42.792h88.415    h42.792c1.654,0,3,1.346,3,3v55.049H433.737z"/>
		<path id="XMLID_1560_" d="M501.989,118.985H481.13c-5.523,0-10,4.478-10,10c0,4.527,3.01,8.347,7.137,9.579l-34.533,34.533    l-22.953-22.953c-1.875-1.875-4.419-2.929-7.071-2.929s-5.196,1.054-7.071,2.929l-51.722,51.722    c-3.905,3.905-3.905,10.237,0,14.143c1.953,1.952,4.512,2.929,7.071,2.929s5.119-0.977,7.071-2.929l44.65-44.65l22.953,22.953    c1.875,1.875,4.419,2.929,7.071,2.929s5.196-1.054,7.071-2.929l41.604-41.604c1.232,4.127,5.052,7.138,9.579,7.138    c5.523,0,10-4.478,10-10v-20.859C511.989,123.463,507.512,118.985,501.989,118.985z"/>
		<path id="XMLID_1564_" d="M69.989,392c2.63,0,5.21-1.07,7.07-2.931c1.86-1.859,2.93-4.439,2.93-7.069s-1.07-5.21-2.93-7.07    s-4.44-2.93-7.07-2.93s-5.21,1.069-7.07,2.93c-1.86,1.86-2.93,4.44-2.93,7.07s1.07,5.21,2.93,7.069    C64.779,390.93,67.359,392,69.989,392z"/>
		<path id="XMLID_1565_" d="M399.349,492c-2.63,0-5.21,1.069-7.07,2.93c-1.86,1.86-2.93,4.44-2.93,7.07s1.07,5.21,2.93,7.069    c1.86,1.86,4.44,2.931,7.07,2.931s5.21-1.07,7.07-2.931c1.86-1.859,2.93-4.439,2.93-7.069s-1.07-5.21-2.93-7.07    C404.559,493.069,401.979,492,399.349,492z"/>
	</g>
</g>















</svg>
