<?xml version="1.0" encoding="iso-8859-1"?>
<!-- Generator: Adobe Illustrator 19.0.0, SVG Export Plug-In . SVG Version: 6.00 Build 0)  -->
<svg xmlns="http://www.w3.org/2000/svg" xmlns:xlink="http://www.w3.org/1999/xlink" version="1.1" id="Layer_1" x="0px" y="0px" viewBox="0 0 512 512" style="enable-background:new 0 0 512 512;" xml:space="preserve" width="512" height="512">
<g id="XMLID_1386_">
	<g id="XMLID_1948_">
		<path id="XMLID_1627_" d="M425.359,80.726l13.837-68.753c0.661-3.281-0.365-6.677-2.732-9.044    c-2.367-2.366-5.762-3.39-9.044-2.732l-85.85,17.277c-0.196-0.098-0.389-0.201-0.594-0.288C314.06,5.782,285.47,0,256,0    c-58.23,0-112.975,22.676-154.149,63.851S38,159.771,38,218c0,39.212,10.531,77.664,30.456,111.198    c17.062,28.717,40.567,53.185,68.451,71.41c-7.147,8.809-11.387,19.975-11.387,31.852V502c0,5.522,4.477,10,10,10h240.96    c5.523,0,10-4.478,10-10v-69.518c0-11.885-4.244-23.056-11.397-31.866c27.887-18.224,51.393-42.692,68.457-71.409    C463.467,295.671,474,257.216,474,218C474,167.992,456.761,119.441,425.359,80.726z M431.745,309h-57.13v-81h79.104    C452.264,256.608,444.609,284.176,431.745,309z M332.277,379.867l-35.782-7.824c-0.326-0.071-0.627-0.197-0.913-0.346    c12.767-10.316,21.452-25.493,23.189-42.697h35.135C351.701,347.632,344.235,365.281,332.277,379.867z M256,406.724    c-5.523,0-10,4.478-10,10v32.104l-22.615-58.461c4.343-1.79,8.009-4.833,10.601-8.629c6.858,2.562,14.274,3.97,22.015,3.97    c7.652,0,14.989-1.372,21.781-3.878c2.589,3.748,6.225,6.756,10.531,8.53L266,448.037v-31.313    C266,411.201,261.523,406.724,256,406.724z M179.708,379.837C167.768,365.264,160.3,347.61,158.094,329h35.135    c1.732,17.153,10.369,32.292,23.074,42.607c-0.336,0.201-0.705,0.357-1.102,0.444L179.708,379.837z M80.256,309    c-12.864-24.824-20.519-52.393-21.974-81h15.511c-0.77,1.439-1.185,3.058-1.185,4.72c0,2.652,1.054,5.195,2.929,7.071    l30.58,30.579c1.953,1.952,4.512,2.929,7.071,2.929s5.119-0.977,7.071-2.929l17.127-17.127V309H80.256z M80.189,127h57.197v36.799    L93.185,208H58.251C59.705,178.919,67.469,151.474,80.189,127z M266,20.615c26.616,2.724,51.163,16.224,67.746,37.438    l-40.132,40.132L266,70.57V20.615z M246,20.598v36.703c-1.788,0.425-3.443,1.327-4.764,2.647L194.184,107h-36.101    C163.503,61.395,200.163,25.235,246,20.598z M174.184,127l-16.799,16.799V127H174.184z M419.698,106.611    c0.089,0.13,0.18,0.259,0.269,0.389h-0.5C419.543,106.87,419.626,106.744,419.698,106.611z M374.243,107l13.816-13.816    L401.875,107H374.243z M354.242,127h0.372v81h-37.349H266v-47.985l20.543,20.543c3.904,3.904,10.236,3.904,14.142,0L354.242,127z     M256,365.707c-23.761,0-43.093-19.331-43.093-43.093v-26.455h71.349c5.212,0,10.21-0.933,14.837-2.639v29.094    C299.093,346.376,279.761,365.707,256,365.707z M307.266,253.149c0,12.688-10.322,23.01-23.01,23.01h-71.349v-14.628    c0-18.489,15.042-33.531,33.531-33.531h60.828V253.149z M246,208h-63.371L246,144.629V208z M157.385,233.243l5.243-5.243h42.124    c-7.401,9.183-11.846,20.845-11.846,33.531v24.628c0,0.593,0.062,1.171,0.161,1.736c-0.099,0.565-0.161,1.143-0.161,1.736V309    h-35.522V233.243z M319.093,309v-30.671c5.135-7.084,8.173-15.781,8.173-25.18V228h27.349v81H319.093z M374.615,208v-81h57.229    c12.929,25.001,20.457,52.628,21.894,81H374.615z M416.622,22.771l-11.843,58.849l-9.648-9.648    c-3.905-3.904-10.237-3.904-14.142,0l-87.375,87.373l-38.235-38.235c-3.905-3.903-10.236-3.904-14.143,0L113.188,249.157    L96.75,232.72L248.307,81.162l38.235,38.236c1.875,1.875,4.419,2.929,7.071,2.929c2.652,0,5.196-1.054,7.071-2.929l63.865-63.865    c3.905-3.905,3.905-10.237,0-14.143l-6.777-6.777L416.622,22.771z M165.807,41.762C150.482,59.7,140.4,82.243,137.963,107H92.12    C110.769,79.555,136.121,57.016,165.807,41.762z M92.13,329h45.832c1.979,20.126,9.068,39.409,20.582,56    c-1.799,0.672-3.549,1.441-5.24,2.305C128.614,372.293,107.883,352.281,92.13,329z M145.52,432.46    c0-14.282,10.125-26.869,24.075-29.929l34.153-7.492L241.257,492H145.52V432.46z M366.48,492h-96.042l37.515-96.979l34.432,7.528    c13.962,3.053,24.096,15.642,24.096,29.933V492z M358.677,387.316c-1.688-0.861-3.434-1.627-5.229-2.297    c11.526-16.596,18.615-35.871,20.592-56.019h45.831C404.114,352.287,383.375,372.304,358.677,387.316z"/>
	</g>
</g>















</svg>
