<?xml version="1.0" encoding="iso-8859-1"?>
<!-- Generator: Adobe Illustrator 19.0.0, SVG Export Plug-In . SVG Version: 6.00 Build 0)  -->
<svg xmlns="http://www.w3.org/2000/svg" xmlns:xlink="http://www.w3.org/1999/xlink" version="1.1" id="Layer_1" x="0px" y="0px" viewBox="0 0 512.656 512.656" style="enable-background:new 0 0 512.656 512.656;" xml:space="preserve" width="512" height="512">
<g id="XMLID_1587_">
	<g id="XMLID_1724_">
		<path id="XMLID_1767_" d="M407.225,239.258h-53.398v-23.089c0-10.94-8.9-19.841-19.841-19.841h-16.285v-84.459h29.853    c4.045,0,7.691-2.437,9.239-6.174c1.548-3.736,0.692-8.038-2.168-10.897L263.07,3.257c-3.904-3.904-10.236-3.904-14.141,0    l-91.555,91.541c-2.86,2.859-3.716,7.161-2.168,10.897c1.547,3.737,5.194,6.174,9.239,6.174h29.854v84.459h-16.285    c-10.94,0-19.841,8.9-19.841,19.841v23.089h-53.398c-14.023,0-25.431,11.408-25.431,25.431v222.209    c0,14.022,11.408,25.431,25.431,25.431h197.519c5.523,0,10-4.478,10-10s-4.477-10-10-10H104.775c-2.995,0-5.431-2.437-5.431-5.431    V363.608c3.54,1.774,7.417,2.994,11.529,3.521l88.833,11.389v6.631c0,5.522,4.477,10,10,10h5.431v12.375    c0,22.531,18.331,40.862,40.862,40.862s40.862-18.331,40.862-40.862v-12.375h5.431c5.523,0,10-4.478,10-10v-6.631l88.834-11.389    c4.112-0.527,7.989-1.747,11.529-3.521v32.245v91.044c0,2.994-2.437,5.431-5.431,5.431h-24.569c-5.523,0-10,4.478-10,10    s4.477,10,10,10h24.569c14.023,0,25.431-11.408,25.431-25.431v-91.044V264.688C432.656,250.666,421.248,239.258,407.225,239.258z     M333.827,239.258h-16.125v-22.93h16.125V239.258z M214.299,239.258v-22.93h83.403v22.93H214.299z M204.299,91.869H188.59    L256,24.47l67.41,67.399h-15.708c-5.523,0-10,4.478-10,10v94.459h-83.403v-94.459C214.299,96.347,209.822,91.869,204.299,91.869z     M178.173,216.328h16.126v22.93h-16.126V216.328z M219.707,375.149v-10.862h72.587v10.862h-5.431h-61.725H219.707z     M276.862,407.524c0,11.504-9.359,20.862-20.862,20.862s-20.862-9.358-20.862-20.862v-12.375h41.725V407.524z M398.584,347.292    l-86.291,11.063v-4.068c0-5.522-4.477-10-10-10h-92.587c-5.523,0-10,4.478-10,10v4.068l-86.29-11.063    c-8.023-1.028-14.073-7.904-14.073-15.992v-23.972h68.182c5.523,0,10-4.478,10-10s-4.477-10-10-10H99.344v-22.64    c0-2.994,2.437-5.431,5.431-5.431h302.45c2.995,0,5.431,2.437,5.431,5.431V331.3C412.656,339.388,406.606,346.264,398.584,347.292    z"/>
		<path id="XMLID_1776_" d="M50,0.328c-5.523,0-10,4.478-10,10v14.414c0,5.522,4.477,10,10,10s10-4.478,10-10V10.328    C60,4.806,55.523,0.328,50,0.328z"/>
		<path id="XMLID_1778_" d="M50,65.914c-5.523,0-10,4.478-10,10v14.414c0,5.522,4.477,10,10,10s10-4.478,10-10V75.914    C60,70.392,55.523,65.914,50,65.914z"/>
		<path id="XMLID_1779_" d="M100,50.328c0-5.522-4.477-10-10-10H75.585c-5.523,0-10,4.478-10,10s4.477,10,10,10H90    C95.523,60.328,100,55.851,100,50.328z"/>
		<path id="XMLID_1780_" d="M24.415,40.328H10c-5.523,0-10,4.478-10,10s4.477,10,10,10h14.415c5.523,0,10-4.478,10-10    S29.938,40.328,24.415,40.328z"/>
		<path id="XMLID_1781_" d="M462.656,119.793c-5.523,0-10,4.478-10,10v14.414c0,5.522,4.477,10,10,10s10-4.478,10-10v-14.414    C472.656,124.271,468.179,119.793,462.656,119.793z"/>
		<path id="XMLID_1784_" d="M462.656,185.379c-5.523,0-10,4.478-10,10v14.414c0,5.522,4.477,10,10,10s10-4.478,10-10v-14.414    C472.656,189.856,468.179,185.379,462.656,185.379z"/>
		<path id="XMLID_1786_" d="M502.656,159.793h-14.415c-5.523,0-10,4.478-10,10s4.477,10,10,10h14.415c5.523,0,10-4.478,10-10    S508.179,159.793,502.656,159.793z"/>
		<path id="XMLID_1789_" d="M437.07,159.793h-14.414c-5.523,0-10,4.478-10,10s4.477,10,10,10h14.414c5.523,0,10-4.478,10-10    S442.593,159.793,437.07,159.793z"/>
		<path id="XMLID_1790_" d="M342.66,492.328c-2.63,0-5.21,1.069-7.08,2.93c-1.86,1.86-2.92,4.44-2.92,7.07s1.06,5.21,2.92,7.069    c1.87,1.86,4.44,2.931,7.08,2.931c2.63,0,5.21-1.07,7.07-2.931c1.86-1.859,2.93-4.439,2.93-7.069s-1.07-5.21-2.93-7.07    C347.87,493.397,345.29,492.328,342.66,492.328z"/>
		<path id="XMLID_1792_" d="M207.52,287.328c-2.63,0-5.2,1.069-7.07,2.93c-1.86,1.86-2.92,4.44-2.92,7.07s1.06,5.21,2.92,7.069    c1.87,1.86,4.45,2.931,7.07,2.931c2.64,0,5.21-1.07,7.08-2.931c1.86-1.859,2.93-4.439,2.93-7.069s-1.07-5.21-2.93-7.07    C212.74,288.397,210.16,287.328,207.52,287.328z"/>
	</g>
</g>















</svg>
