<?xml version="1.0" encoding="iso-8859-1"?>
<!-- Generator: Adobe Illustrator 19.0.0, SVG Export Plug-In . SVG Version: 6.00 Build 0)  -->
<svg xmlns="http://www.w3.org/2000/svg" xmlns:xlink="http://www.w3.org/1999/xlink" version="1.1" id="Layer_1" x="0px" y="0px" viewBox="0 0 511.998 511.998" style="enable-background:new 0 0 511.998 511.998;" xml:space="preserve" width="512" height="512">
<g id="XMLID_1474_">
	<g id="XMLID_1800_">
		<path id="XMLID_1801_" d="M464.159,106.916c-3.221-4.486-9.47-5.513-13.955-2.291c-4.486,3.221-5.512,9.469-2.291,13.955    c67.624,94.19,57.095,222.165-25.036,304.294C378.303,467.449,319.038,491.997,256,491.997s-122.303-24.548-166.877-69.123    C44.548,378.3,20,319.035,20,255.997S44.548,133.695,89.123,89.12C171.359,6.885,299.438-3.571,393.659,64.259    c4.485,3.227,10.732,2.207,13.959-2.273c3.227-4.482,2.208-10.732-2.273-13.959C356.602,12.938,296.595-3.848,236.394,0.744    C175.526,5.393,118.202,31.756,74.98,74.978C26.629,123.33,0,187.617,0,255.997s26.629,132.667,74.98,181.02    c48.353,48.352,112.64,74.98,181.02,74.98s132.667-26.629,181.02-74.98c43.182-43.182,69.541-100.45,74.222-161.258    C515.87,215.615,499.149,155.653,464.159,106.916z"/>
		<path id="XMLID_1853_" d="M295.146,468.283c0.626,0,1.263-0.06,1.9-0.182c41.502-7.987,79.502-27.901,109.891-57.592    c30.343-29.645,51.128-67.102,60.109-108.32c1.176-5.396-2.245-10.724-7.642-11.899c-5.394-1.176-10.724,2.246-11.899,7.642    c-16.697,76.626-77.239,135.713-154.238,150.529c-5.424,1.044-8.974,6.287-7.931,11.71    C286.258,464.955,290.447,468.283,295.146,468.283z"/>
		<path id="XMLID_1854_" d="M54.733,221.937c4.601,0,8.741-3.194,9.761-7.873c16.697-76.626,77.239-135.713,154.238-150.529    c5.424-1.044,8.974-6.287,7.931-11.71c-1.044-5.423-6.286-8.97-11.71-7.931c-41.502,7.987-79.502,27.901-109.891,57.592    c-30.343,29.645-51.128,67.102-60.109,108.32c-1.176,5.396,2.245,10.724,7.642,11.899    C53.312,221.862,54.028,221.937,54.733,221.937z"/>
		<path id="XMLID_1857_" d="M101.488,406.935c29.645,30.343,67.102,51.128,108.32,60.109c0.717,0.156,1.434,0.231,2.139,0.231    c4.601,0,8.741-3.194,9.761-7.873c1.176-5.396-2.245-10.724-7.642-11.899C137.44,430.806,78.354,370.264,63.537,293.265    c-1.044-5.423-6.285-8.974-11.71-7.931c-5.424,1.044-8.974,6.287-7.931,11.71C51.884,338.546,71.798,376.546,101.488,406.935z"/>
		<path id="XMLID_1858_" d="M302.191,44.95c-5.392-1.176-10.724,2.246-11.899,7.642c-1.176,5.396,2.245,10.724,7.642,11.899    c76.626,16.697,135.713,77.239,150.529,154.238c0.921,4.785,5.11,8.112,9.81,8.112c0.626,0,1.263-0.06,1.9-0.182    c5.424-1.044,8.974-6.287,7.931-11.71c-7.987-41.502-27.901-79.502-57.592-109.891C380.867,74.717,343.41,53.932,302.191,44.95z"/>
		<path id="XMLID_1861_" d="M266.152,72.406V49.997c0-5.522-4.478-10-10-10s-10,4.478-10,10v22.408c0,5.522,4.478,10,10,10    S266.152,77.928,266.152,72.406z"/>
		<path id="XMLID_1863_" d="M245.848,432.462v29.535c0,5.522,4.478,10,10,10s10-4.478,10-10v-29.535c0-5.522-4.478-10-10-10    S245.848,426.94,245.848,432.462z"/>
		<path id="XMLID_1865_" d="M472,256.15c0-5.522-4.478-10-10-10h-27c-5.522,0-10,4.478-10,10c0,5.522,4.478,10,10,10h27    C467.522,266.15,472,261.672,472,256.15z"/>
		<path id="XMLID_1866_" d="M40,255.845c0,5.522,4.478,10,10,10h29c5.522,0,10-4.478,10-10c0-5.522-4.478-10-10-10H50    C44.478,245.845,40,250.323,40,255.845z"/>
		<path id="XMLID_1869_" d="M386,351.453v-65.556v-94.444c0-11.641-9.471-21.111-21.111-21.111h-35.649v-8.629    c0-14.809-12.048-26.856-26.856-26.856h-6.98h-85.785c-14.809,0-26.856,12.048-26.856,26.856v8.629h-35.649    c-11.641,0-21.111,9.471-21.111,21.111v160c0,11.641,9.471,21.11,21.111,21.11h113.333c0.344,0,0.684-0.018,1.019-0.052    c0.335,0.034,0.675,0.052,1.019,0.052h102.407C376.529,372.564,386,363.094,386,351.453z M202.761,161.713    c0-3.78,3.076-6.856,6.856-6.856h85.785h6.98c3.78,0,6.856,3.076,6.856,6.856v8.629H202.761V161.713z M146,191.453    c0-0.613,0.499-1.111,1.111-1.111h217.777c0.612,0,1.111,0.498,1.111,1.111v47.963c0,4.419-3.306,8.176-7.689,8.737l-58.978,7.562    v-10.218c0-5.522-4.478-10-10-10h-66.666c-5.522,0-10,4.478-10,10v10.218l-58.978-7.562c-4.384-0.562-7.689-4.318-7.689-8.737    V191.453z M232.667,268.19v-12.692h46.666v12.692h-1.11h-44.445H232.667z M243.777,288.19h24.445v6.111    c0,6.739-5.483,12.223-12.223,12.223s-12.223-5.483-12.223-12.223V288.19z M146,351.453v-84.61    c1.652,0.532,3.372,0.92,5.146,1.148l61.521,7.888v2.311c0,5.522,4.478,10,10,10h1.11v6.111c0,17.768,14.455,32.223,32.223,32.223    s32.223-14.455,32.223-32.223v-6.111h1.11c5.522,0,10-4.478,10-10v-2.311l61.521-7.888c1.774-0.228,3.494-0.616,5.146-1.148    v19.054v65.556c0,0.612-0.498,1.11-1.111,1.11H262.481c-0.344,0-0.684,0.018-1.019,0.052c-0.335-0.034-0.675-0.052-1.019-0.052    H147.111C146.499,352.564,146,352.066,146,351.453z"/>
		<path id="XMLID_1875_" d="M429.95,92.047c2.63,0,5.21-1.07,7.069-2.93c1.86-1.86,2.931-4.44,2.931-7.07s-1.07-5.21-2.931-7.07    c-1.859-1.859-4.439-2.93-7.069-2.93c-2.631,0-5.21,1.07-7.07,2.93c-1.86,1.86-2.93,4.44-2.93,7.07s1.069,5.21,2.93,7.07    C424.74,90.977,427.319,92.047,429.95,92.047z"/>
	</g>
</g>















</svg>
