<?xml version="1.0" encoding="iso-8859-1"?>
<!-- Generator: Adobe Illustrator 19.0.0, SVG Export Plug-In . SVG Version: 6.00 Build 0)  -->
<svg xmlns="http://www.w3.org/2000/svg" xmlns:xlink="http://www.w3.org/1999/xlink" version="1.1" id="Layer_1" x="0px" y="0px" viewBox="0 0 512 512" style="enable-background:new 0 0 512 512;" xml:space="preserve" width="512" height="512">
<g id="XMLID_1574_">
	<g id="XMLID_1120_">
		<path id="XMLID_1126_" d="M484,268.904v-68.566c0-3.738-2.085-7.165-5.406-8.882l-232-120c-2.882-1.49-6.307-1.49-9.188,0    l-232,120C2.085,193.173,0,196.6,0,200.338s2.085,7.165,5.406,8.882l66.645,34.471c-0.032,0.328-0.05,0.659-0.05,0.995v105.629    c0,3.485,1.814,6.719,4.789,8.535l160,97.684c1.6,0.977,3.405,1.465,5.211,1.465s3.611-0.488,5.211-1.465l160-97.684    c2.975-1.816,4.789-5.05,4.789-8.535V244.687c0-0.336-0.018-0.668-0.05-0.995L464,216.769v52.135    c-16.116,4.402-28,19.162-28,36.655V448c0,5.523,4.477,10,10,10h56c5.523,0,10-4.477,10-10V305.559    C512,288.067,500.116,273.306,484,268.904z M242,91.596l190.9,98.742H282c-5.523,0-10,4.477-10,10s4.477,10,10,10h150.9    L242,309.08L31.767,200.338L242,91.596z M392,344.705l-140,85.473v-29.841c0-5.523-4.477-10-10-10s-10,4.477-10,10v29.841    L92,344.705V254.01l145.406,75.21c1.441,0.745,3.018,1.118,4.594,1.118s3.153-0.373,4.594-1.118L392,254.01V344.705z M474,287.56    c9.925,0,18,8.075,18,18v6.883h-36v-6.883C456,295.634,464.075,287.56,474,287.56z M456,438V332.442h36V438H456z"/>
		<path id="XMLID_1138_" d="M249.07,207.41c1.86-1.86,2.93-4.44,2.93-7.07s-1.07-5.21-2.93-7.07c-1.86-1.86-4.44-2.93-7.07-2.93    c-2.63,0-5.21,1.07-7.07,2.93c-1.86,1.86-2.93,4.44-2.93,7.07s1.07,5.21,2.93,7.07c1.86,1.86,4.44,2.93,7.07,2.93    C244.63,210.34,247.21,209.27,249.07,207.41z"/>
		<path id="XMLID_1163_" d="M234.93,353.27c-1.86,1.86-2.93,4.44-2.93,7.07s1.07,5.21,2.93,7.07c1.86,1.86,4.44,2.93,7.07,2.93    c2.63,0,5.21-1.07,7.07-2.93c1.86-1.86,2.93-4.44,2.93-7.07s-1.07-5.21-2.93-7.07c-1.86-1.86-4.44-2.93-7.07-2.93    C239.37,350.34,236.79,351.41,234.93,353.27z"/>
		<path id="XMLID_1244_" d="M50,412c-5.523,0-10,4.477-10,10v14.415c0,5.523,4.477,10,10,10s10-4.477,10-10V422    C60,416.477,55.523,412,50,412z"/>
		<path id="XMLID_1247_" d="M50,477.585c-5.523,0-10,4.477-10,10V502c0,5.523,4.477,10,10,10s10-4.477,10-10v-14.415    C60,482.063,55.523,477.585,50,477.585z"/>
		<path id="XMLID_1248_" d="M90,452H75.585c-5.523,0-10,4.477-10,10s4.477,10,10,10H90c5.523,0,10-4.477,10-10S95.523,452,90,452z"/>
		<path id="XMLID_1296_" d="M24.415,452H10c-5.523,0-10,4.477-10,10s4.477,10,10,10h14.415c5.523,0,10-4.477,10-10    S29.938,452,24.415,452z"/>
		<path id="XMLID_1297_" d="M462,100c5.523,0,10-4.477,10-10V75.585c0-5.523-4.477-10-10-10s-10,4.477-10,10V90    C452,95.523,456.477,100,462,100z"/>
		<path id="XMLID_1299_" d="M462,34.415c5.523,0,10-4.477,10-10V10c0-5.523-4.477-10-10-10s-10,4.477-10,10v14.415    C452,29.938,456.477,34.415,462,34.415z"/>
		<path id="XMLID_1301_" d="M487.585,60H502c5.523,0,10-4.477,10-10s-4.477-10-10-10h-14.415c-5.523,0-10,4.477-10,10    S482.063,60,487.585,60z"/>
		<path id="XMLID_1303_" d="M422,60h14.415c5.523,0,10-4.477,10-10s-4.477-10-10-10H422c-5.523,0-10,4.477-10,10S416.477,60,422,60z    "/>
	</g>
</g>















</svg>
