<?xml version="1.0" encoding="iso-8859-1"?>
<!-- Generator: Adobe Illustrator 19.0.0, SVG Export Plug-In . SVG Version: 6.00 Build 0)  -->
<svg xmlns="http://www.w3.org/2000/svg" xmlns:xlink="http://www.w3.org/1999/xlink" version="1.1" id="Layer_1" x="0px" y="0px" viewBox="0 0 512.011 512.011" style="enable-background:new 0 0 512.011 512.011;" xml:space="preserve" width="512" height="512">
<g id="XMLID_1027_">
	<g id="XMLID_1891_">
		<path id="XMLID_1892_" d="M245.79,452.006c-2.63,0-5.21,1.069-7.07,2.93s-2.92,4.44-2.92,7.07s1.06,5.21,2.92,7.069    c1.86,1.86,4.44,2.931,7.07,2.931c2.64,0,5.21-1.07,7.08-2.931c1.859-1.859,2.93-4.439,2.93-7.069s-1.07-5.21-2.93-7.07    C251.01,453.075,248.43,452.006,245.79,452.006z"/>
		<path id="XMLID_1932_" d="M510.7,128.054c-2.627-9.805-8.915-17.999-17.705-23.073c-8.79-5.075-19.031-6.423-28.835-3.797    c-9.804,2.627-17.999,8.915-23.073,17.705l-9.625,16.671v0v0L404,183.125V34.006c0-18.748-15.252-34-34-34h-92.833H126.833H34    c-18.748,0-34,15.252-34,34v444c0,18.748,15.252,34,34,34h336c18.748,0,34-15.252,34-34V335.124l35.004-60.628    c2.762-4.783,1.123-10.898-3.66-13.66c-4.784-2.762-10.898-1.122-13.66,3.66l-43.494,75.333l-31.177-18l96.77-167.609l31.177,18    l-13.276,22.995c-2.762,4.783-1.123,10.899,3.66,13.66c4.784,2.762,10.899,1.122,13.66-3.66l27.9-48.326    C511.979,148.098,513.327,137.858,510.7,128.054z M384,34.006v183.25c0,0.158,0.017,0.313,0.023,0.469L364,252.407V70.006    c0-16.542-13.458-30-30-30h-46.833v-20H370C377.72,20.006,384,26.286,384,34.006z M267.167,20.006v40.75    c0,6.203-5.047,11.25-11.25,11.25H148.083c-6.203,0-11.25-5.047-11.25-11.25v-40.75H267.167z M370,492.006H34    c-7.72,0-14-6.28-14-14v-444c0-7.72,6.28-14,14-14h82.833v20H70c-16.542,0-30,13.458-30,30v329c0,2.652,1.054,5.195,2.929,7.071    l63,63c1.876,1.875,4.419,2.929,7.071,2.929h92.795c5.522,0,10-4.478,10-10s-4.478-10-10-10H123v-33c0-16.542-13.458-30-30-30H60    v-319c0-5.514,4.486-10,10-10h46.833v0.75c0,17.231,14.019,31.25,31.25,31.25h107.834c17.231,0,31.25-14.019,31.25-31.25v-0.75    H334c5.514,0,10,4.486,10,10v217.042l-19.308,33.442c-0.537,0.93-0.921,1.94-1.137,2.993l-17.786,86.807    c-0.863,4.217,1.068,8.515,4.797,10.667c1.558,0.899,3.282,1.34,4.998,1.34c2.391,0,4.764-0.856,6.639-2.52L344,400.438v41.568    c0,5.514-4.486,10-10,10h-48.205c-5.522,0-10,4.478-10,10s4.478,10,10,10H334c16.542,0,30-13.458,30-30v-59.312l20-17.744v113.056    C384,485.725,377.72,492.006,370,492.006z M103,437.863l-28.857-28.857H93c5.514,0,10,4.486,10,10V437.863z M331.39,384.889    l8.975-43.804l24.473,14.129L331.39,384.889z M453.782,136.899l4.625-8.011c2.404-4.164,6.285-7.142,10.93-8.387    c4.645-1.244,9.494-0.605,13.658,1.799s7.143,6.285,8.387,10.93c1.244,4.644,0.605,9.494-1.798,13.658l-4.625,8.011    L453.782,136.899z"/>
		<path id="XMLID_1939_" d="M450.34,224.855c-2.63,0-5.21,1.07-7.07,2.931c-1.859,1.859-2.93,4.439-2.93,7.069s1.07,5.21,2.93,7.07    c1.87,1.86,4.44,2.93,7.07,2.93s5.21-1.069,7.07-2.93c1.869-1.86,2.93-4.44,2.93-7.07s-1.061-5.21-2.93-7.069    C455.55,225.926,452.979,224.855,450.34,224.855z"/>
		<path id="XMLID_1940_" d="M145.268,199.012c2.56,0,5.118-0.977,7.071-2.929l25.704-25.704l22.952,22.953    c1.875,1.875,4.419,2.929,7.071,2.929s5.195-1.054,7.071-2.929l41.604-41.604c1.232,4.127,5.052,7.138,9.579,7.138    c5.522,0,10-4.478,10-10v-20.859c0-5.522-4.478-10-10-10h-20.859c-5.522,0-10,4.478-10,10c0,4.527,3.011,8.347,7.138,9.579    l-34.533,34.533l-22.952-22.953c-1.875-1.875-4.419-2.929-7.071-2.929s-5.195,1.054-7.071,2.929l-32.775,32.775    c-3.905,3.905-3.905,10.237,0,14.143C140.149,198.035,142.708,199.012,145.268,199.012z"/>
		<path id="XMLID_1941_" d="M113,291.09h124.949c5.522,0,10-4.478,10-10s-4.478-10-10-10H113c-5.522,0-10,4.478-10,10    S107.478,291.09,113,291.09z"/>
		<path id="XMLID_1943_" d="M113,251.09h167.333c5.522,0,10-4.478,10-10s-4.478-10-10-10H113c-5.522,0-10,4.478-10,10    S107.478,251.09,113,251.09z"/>
		<path id="XMLID_1944_" d="M217.54,309.857c-4.359-3.391-10.641-2.607-14.033,1.752l-21.317,27.396l-0.766-1.11    c-2.487-4.704-6.892-7.89-11.967-8.599c-5.274-0.734-10.543,1.324-14.098,5.51l-9.869,11.625l-3.583-4.221    c-3.236-3.81-7.855-6.046-12.673-6.134c-0.099-0.001-0.197-0.002-0.295-0.002c-4.697,0-9.251,2.043-12.533,5.634l-10.787,11.8    c-3.727,4.076-3.442,10.401,0.634,14.128c4.075,3.727,10.401,3.443,14.128-0.634l8.472-9.267l9.015,10.618    c1.9,2.237,4.688,3.527,7.623,3.527s5.723-1.29,7.623-3.527l13.808-16.263l6.557,9.499c1.81,2.622,4.76,4.225,7.944,4.315    c3.166,0.09,6.221-1.34,8.178-3.855l29.692-38.159C222.684,319.532,221.899,313.249,217.54,309.857z"/>
	</g>
</g>















</svg>
