<?xml version="1.0" encoding="iso-8859-1"?>
<!-- Generator: Adobe Illustrator 19.0.0, SVG Export Plug-In . SVG Version: 6.00 Build 0)  -->
<svg xmlns="http://www.w3.org/2000/svg" xmlns:xlink="http://www.w3.org/1999/xlink" version="1.1" id="Layer_1" x="0px" y="0px" viewBox="0 0 512 512" style="enable-background:new 0 0 512 512;" xml:space="preserve" width="512" height="512">
<g id="XMLID_1711_">
	<g id="XMLID_108_">
		<path id="XMLID_139_" d="M461.083,364h-22.75v-16.75c0-12.82-10.43-23.25-23.25-23.25h-46c-12.82,0-23.25,10.43-23.25,23.25v7.763    c-1.55-0.469-3.12-0.881-4.711-1.229l-63.586-13.903c-1.966-0.43-3.615-1.646-4.652-3.266    c18.918-14.104,31.194-36.647,31.194-62.005v-56.995c6.502-8.663,10.36-19.419,10.36-31.06V142c0-5.523-4.478-10-10-10h-89.782    c-35.94,0-65.18,29.24-65.18,65.18v31.219c0,0.757,0.091,1.491,0.25,2.2c-0.159,0.709-0.25,1.443-0.25,2.2v41.811    c0,25.241,12.163,47.692,30.933,61.808c-1.025,1.722-2.727,3.022-4.774,3.471l-63.245,13.874    c-6.091,1.336-11.917,3.604-17.285,6.667v-67.909H106c3.686,0,7.073-2.027,8.813-5.276c1.741-3.249,1.555-7.192-0.486-10.261    l-48-72.188c-1.854-2.788-4.979-4.463-8.327-4.463s-6.474,1.675-8.327,4.463l-48,72.188c-2.041,3.069-2.228,7.012-0.486,10.261    c1.74,3.249,5.128,5.276,8.813,5.276h10.895V368c0,5.523,4.478,10,10,10s10-4.477,10-10v-85.479c0-5.523-4.478-10-10-10h-2.236    L58,228.394l29.342,44.127h-2.236c-5.522,0-10,4.477-10,10V378.7c-7.144,10.272-11.05,22.593-11.05,35.15V492H40.895v-44    c0-5.523-4.478-10-10-10s-10,4.477-10,10v54c0,5.523,4.478,10,10,10h430.188c12.683,0,23-10.318,23-23V387    C484.083,374.318,473.766,364,461.083,364z M464.083,387v41h-44.166v-10c0-5.523-4.478-10-10-10h-40c-5.522,0-10,4.477-10,10v10    h-39.834v-41c0-1.654,1.346-3,3-3h32.75h72.5h32.75C462.737,384,464.083,385.346,464.083,387z M399.917,438    c0,5.514-4.486,10-10,10s-10-4.486-10-10v-10h20V438z M290.964,363.289l19.77,4.323c-6.397,4.089-10.651,11.249-10.651,19.388v102    c0,1.017,0.073,2.017,0.202,3h-59.112L290.964,363.289z M365.833,347.25c0-1.792,1.458-3.25,3.25-3.25h46    c1.792,0,3.25,1.458,3.25,3.25V364h-52.5V347.25z M169.477,197.18c0-24.913,20.268-45.18,45.18-45.18h79.782v34.555    c0,17.559-14.285,31.844-31.844,31.844h-93.118V197.18z M169.477,274.61v-36.21h93.118c7.661,0,14.933-1.684,21.483-4.68v40.89    c0,31.596-25.705,57.301-57.301,57.301S169.477,306.206,169.477,274.61z M226.777,351.911c10.132,0,19.806-1.979,28.681-5.539    c3.441,5.894,9.019,10.468,15.768,12.507l-34.449,89.052v-54.027c0-5.523-4.478-10-10-10s-10,4.477-10,10v55.032l-34.834-90.048    c6.797-2.055,12.41-6.679,15.844-12.638C206.746,349.888,216.528,351.911,226.777,351.911z M84.056,413.85    c0-19.351,13.719-36.405,32.62-40.551l45.535-9.989L211.993,492H84.056V413.85z M461.083,492h-81.585h-56.415    c-1.654,0-3-1.346-3-3v-41h41.554c4.128,11.639,15.243,20,28.28,20s24.152-8.361,28.28-20h45.886v41    C464.083,490.654,462.737,492,461.083,492z"/>
		<path id="XMLID_903_" d="M510.327,76.651l-48-72.188C460.474,1.675,457.348,0,454,0s-6.474,1.675-8.327,4.463l-48,72.188    c-2.041,3.069-2.228,7.012-0.486,10.261c1.74,3.249,5.128,5.276,8.813,5.276h10.895v61.476c0,5.523,4.478,10,10,10s10-4.477,10-10    V82.188c0-5.523-4.478-10-10-10h-2.236L454,28.061l29.342,44.127h-2.236c-5.522,0-10,4.477-10,10V283h-34.211v-49.336    c0-5.523-4.478-10-10-10s-10,4.477-10,10V293c0,5.523,4.478,10,10,10h54.211c5.522,0,10-4.477,10-10V92.188H502    c3.686,0,7.073-2.027,8.813-5.276C512.555,83.663,512.368,79.72,510.327,76.651z"/>
		<path id="XMLID_909_" d="M106.546,74c5.522,0,10-4.477,10-10V49.585c0-5.523-4.478-10-10-10s-10,4.477-10,10V64    C96.546,69.523,101.023,74,106.546,74z"/>
		<path id="XMLID_922_" d="M106.546,139.585c5.522,0,10-4.477,10-10v-14.414c0-5.523-4.478-10-10-10s-10,4.477-10,10v14.414    C96.546,135.108,101.023,139.585,106.546,139.585z"/>
		<path id="XMLID_923_" d="M132.131,99.585h14.415c5.522,0,10-4.477,10-10s-4.478-10-10-10h-14.415c-5.522,0-10,4.477-10,10    S126.608,99.585,132.131,99.585z"/>
		<path id="XMLID_948_" d="M66.546,99.585H80.96c5.522,0,10-4.477,10-10s-4.478-10-10-10H66.546c-5.522,0-10,4.477-10,10    S61.023,99.585,66.546,99.585z"/>
		<path id="XMLID_962_" d="M426.899,203.67c2.631,0,5.2-1.07,7.07-2.94c1.86-1.86,2.92-4.43,2.92-7.07c0-2.63-1.06-5.2-2.92-7.07    c-1.87-1.86-4.45-2.93-7.07-2.93c-2.64,0-5.21,1.07-7.08,2.93c-1.859,1.87-2.93,4.44-2.93,7.07c0,2.64,1.07,5.21,2.93,7.07    C421.689,202.6,424.26,203.67,426.899,203.67z"/>
		<path id="XMLID_963_" d="M30.92,418c2.63,0,5.21-1.07,7.07-2.93c1.859-1.86,2.93-4.44,2.93-7.07c0-2.63-1.07-5.21-2.93-7.07    c-1.86-1.86-4.44-2.93-7.07-2.93c-2.64,0-5.21,1.07-7.07,2.93c-1.87,1.86-2.93,4.44-2.93,7.07c0,2.63,1.06,5.21,2.93,7.07    C25.71,416.93,28.28,418,30.92,418z"/>
	</g>
</g>















</svg>
