<?xml version="1.0" encoding="iso-8859-1"?>
<!-- Generator: Adobe Illustrator 19.0.0, SVG Export Plug-In . SVG Version: 6.00 Build 0)  -->
<svg xmlns="http://www.w3.org/2000/svg" xmlns:xlink="http://www.w3.org/1999/xlink" version="1.1" id="Layer_1" x="0px" y="0px" viewBox="0 0 512 512" style="enable-background:new 0 0 512 512;" xml:space="preserve" width="512" height="512">
<g id="XMLID_1822_">
	<g id="XMLID_136_">
		<path id="XMLID_167_" d="M502,366h-7V104c0-18.748-15.252-34-34-34H354h-0.184H51c-18.748,0-34,15.252-34,34v61.985    c0,5.523,4.478,10,10,10s10-4.477,10-10V104c0-7.72,6.28-14,14-14h302.816H354h107c7.72,0,14,6.28,14,14v262h-20V120    c0-5.523-4.478-10-10-10H67c-5.522,0-10,4.477-10,10v246H37V245.986c0-5.523-4.478-10-10-10s-10,4.477-10,10V366h-7    c-5.522,0-10,4.477-10,10c0,36.393,29.607,66,66,66h380c36.393,0,66-29.607,66-66C512,370.477,507.522,366,502,366z M77,130h358    v236H77V130z M446,422H66c-21.931,0-40.326-15.428-44.905-36H27h40h378h40h5.905C486.326,406.572,467.931,422,446,422z"/>
		<path id="XMLID_172_" d="M27,215.99c2.63,0,5.21-1.07,7.069-2.93c1.86-1.86,2.931-4.44,2.931-7.07c0-2.64-1.07-5.22-2.931-7.07    c-1.859-1.87-4.439-2.93-7.069-2.93c-2.641,0-5.21,1.06-7.07,2.93c-1.86,1.85-2.93,4.43-2.93,7.07c0,2.63,1.069,5.21,2.93,7.07    C21.79,214.92,24.37,215.99,27,215.99z"/>
		<path id="XMLID_175_" d="M179,166c-45.215,0-82,36.785-82,82c0,23.336,9.815,44.41,25.514,59.357    c0.379,0.426,0.791,0.826,1.245,1.187C138.344,321.863,157.738,330,179,330s40.656-8.137,55.242-21.457    c0.454-0.36,0.866-0.76,1.245-1.187C251.185,292.41,261,271.336,261,248C261,202.785,224.215,166,179,166z M142.414,298.012    c7.622-12.761,21.331-20.695,36.586-20.695s28.964,7.935,36.586,20.695C205.323,305.541,192.675,310,179,310    S152.677,305.541,142.414,298.012z M166.171,244.488v-5.708c0-7.074,5.755-12.829,12.829-12.829s12.829,5.755,12.829,12.829v5.708    c0,7.074-5.755,12.829-12.829,12.829S166.171,251.562,166.171,244.488z M229.884,283.361c-6.218-8.689-14.487-15.557-24.01-20.053    c3.747-5.334,5.955-11.822,5.955-18.821v-5.708c0-18.102-14.728-32.829-32.829-32.829s-32.829,14.727-32.829,32.829v5.708    c0,6.998,2.208,13.487,5.955,18.821c-9.523,4.495-17.792,11.363-24.01,20.053C121.119,273.323,117,261.137,117,248    c0-34.187,27.813-62,62-62s62,27.813,62,62C241,261.137,236.881,273.323,229.884,283.361z"/>
		<path id="XMLID_178_" d="M287.59,310c-2.64,0-5.21,1.07-7.07,2.93c-1.87,1.86-2.93,4.44-2.93,7.07c0,2.63,1.06,5.21,2.93,7.07    c1.86,1.86,4.44,2.93,7.07,2.93s5.21-1.07,7.07-2.93c1.859-1.86,2.93-4.44,2.93-7.07c0-2.63-1.07-5.21-2.93-7.07    C292.8,311.07,290.22,310,287.59,310z"/>
		<path id="XMLID_179_" d="M404.75,310h-77.163c-5.522,0-10,4.477-10,10s4.478,10,10,10h77.163c5.522,0,10-4.477,10-10    S410.272,310,404.75,310z"/>
		<path id="XMLID_180_" d="M408.646,183.354h-18.541c-5.522,0-10,4.477-10,10c0,3.896,2.233,7.264,5.485,8.914l-37.602,37.602    l-19.617-19.617c-3.906-3.905-10.236-3.905-14.143,0l-22.866,22.866c-3.905,3.905-3.905,10.237,0,14.142    c3.906,3.906,10.236,3.906,14.143,0l15.795-15.795l19.617,19.617c1.953,1.953,4.512,2.929,7.071,2.929s5.118-0.976,7.071-2.929    l44.672-44.672c1.651,3.252,5.018,5.484,8.914,5.484c5.522,0,10-4.477,10-10v-18.542    C418.646,187.831,414.168,183.354,408.646,183.354z"/>
	</g>
</g>















</svg>
