<?xml version="1.0" encoding="iso-8859-1"?>
<!-- Generator: Adobe Illustrator 19.0.0, SVG Export Plug-In . SVG Version: 6.00 Build 0)  -->
<svg xmlns="http://www.w3.org/2000/svg" xmlns:xlink="http://www.w3.org/1999/xlink" version="1.1" id="Layer_1" x="0px" y="0px" viewBox="0 0 20 20" style="enable-background:new 0 0 20 20;" xml:space="preserve" width="20" height="20">
<g id="XMLID_1045_">
	<g id="XMLID_28_">
		<path id="XMLID_905_" d="M509.071,94.929l-92-92C415.196,1.054,412.652,0,410,0H130c-16.542,0-30,13.458-30,30v113.846    c0,5.523,4.477,10,10,10s10-4.477,10-10V30c0-5.514,4.486-10,10-10h271v61.127c0,16.542,13.458,30,30,30h61V482    c0,5.514-4.486,10-10,10H256v-58.086c0-23.23-16.471-43.692-39.165-48.654l-49.13-10.743c-0.193-0.042-0.379-0.101-0.558-0.174    C181.083,362.964,190,345.66,190,326.307v-43.309c5.029-6.962,8.005-15.501,8.005-24.727v-34.426c0-5.523-4.477-10-10-10h-69.37    C89.612,213.846,66,237.458,66,266.481v59.826c0,19.302,8.869,36.569,22.743,47.949c-0.236,0.114-0.481,0.211-0.745,0.269    l-48.866,10.72C16.458,390.218,0,410.677,0,433.891V502c0,5.523,4.477,10,10,10h472c16.542,0,30-13.458,30-30V102    C512,99.348,510.946,96.804,509.071,94.929z M86,266.481c0-17.995,14.64-32.635,32.635-32.635h59.37v24.426    c0,12.313-10.018,22.331-22.331,22.331H86V266.481z M86,300.602h69.674c5.026,0,9.849-0.885,14.326-2.5v28.205    c0,23.159-18.841,42-42,42s-42-18.841-42-42V300.602z M128,388.307c7.465,0,14.626-1.327,21.261-3.756    c2.514,3.587,6.003,6.472,10.125,8.212L138,448.045v-29.566c0-5.523-4.477-10-10-10s-10,4.477-10,10v30.34l-21.682-56.05    c4.157-1.756,7.673-4.676,10.191-8.308C113.208,386.945,120.447,388.307,128,388.307z M20,433.891    c0-13.892,9.849-26.135,23.417-29.111l33.278-7.3L113.259,492H20V433.891z M142.441,492l36.571-94.538l33.551,7.336    c13.58,2.969,23.437,15.214,23.437,29.116V492H142.441z M421,81.127V35.142l55.985,55.985H431    C425.486,91.127,421,86.641,421,81.127z"/>
		<path id="XMLID_957_" d="M296,337.029c-5.523,0-10,4.477-10,10v100.984c0,5.523,4.477,10,10,10h56c5.523,0,10-4.477,10-10V347.029    c0-5.523-4.477-10-10-10H296z M342,438.013h-36v-80.984h36V438.013z"/>
		<path id="XMLID_985_" d="M382,308.278v139.735c0,5.523,4.477,10,10,10h56c5.523,0,10-4.477,10-10V308.278c0-5.523-4.477-10-10-10    h-56C386.477,298.278,382,302.755,382,308.278z M402,318.278h36v119.735h-36V318.278z"/>
		<path id="XMLID_1759_" d="M286.993,190.988h128.295c5.523,0,10-4.477,10-10s-4.477-10-10-10H286.993c-5.523,0-10,4.477-10,10    S281.47,190.988,286.993,190.988z"/>
		<path id="XMLID_4158_" d="M287.84,111.13c2.63,0,5.21-1.07,7.07-2.93c1.86-1.86,2.93-4.44,2.93-7.07c0-2.64-1.07-5.21-2.93-7.07    c-1.86-1.87-4.44-2.93-7.07-2.93s-5.21,1.06-7.07,2.93c-1.86,1.86-2.93,4.43-2.93,7.07c0,2.63,1.07,5.21,2.93,7.07    C282.63,110.06,285.21,111.13,287.84,111.13z"/>
		<path id="XMLID_4159_" d="M371.895,111.127c5.523,0,10-4.477,10-10s-4.477-10-10-10H328.5c-5.523,0-10,4.477-10,10s4.477,10,10,10    H371.895z"/>
		<path id="XMLID_4162_" d="M196.711,111.127h40c5.523,0,10-4.477,10-10v-40c0-5.523-4.477-10-10-10h-40c-5.523,0-10,4.477-10,10v40    C186.711,106.65,191.188,111.127,196.711,111.127z M206.711,71.127h20v20h-20V71.127z"/>
		<path id="XMLID_4165_" d="M186.711,181.067c0,5.523,4.477,10,10,10h40c5.523,0,10-4.477,10-10v-40c0-5.523-4.477-10-10-10h-40    c-5.523,0-10,4.477-10,10V181.067z M206.711,151.067h20v20h-20V151.067z"/>
		<path id="XMLID_4166_" d="M228.04,313.34c-2.63,0-5.21,1.07-7.07,2.93c-1.86,1.86-2.93,4.44-2.93,7.08c0,2.63,1.07,5.21,2.93,7.07    c1.86,1.86,4.44,2.92,7.07,2.92c2.64,0,5.21-1.06,7.07-2.92s2.93-4.44,2.93-7.07c0-2.64-1.07-5.22-2.93-7.08    C233.25,314.41,230.67,313.34,228.04,313.34z"/>
		<path id="XMLID_4167_" d="M255.561,311.397c1.636,3.77,5.315,6.021,9.178,6.021c1.329,0,2.681-0.267,3.977-0.83l136.625-59.312    c-0.338,3.685,1.379,7.415,4.755,9.467c1.623,0.986,3.415,1.456,5.184,1.456c3.377,0,6.673-1.711,8.555-4.808l15.5-25.505    c1.876-3.087,1.941-6.947,0.17-10.096s-5.103-5.098-8.716-5.098h-31c-5.523,0-10,4.477-10,10c0,3.196,1.505,6.036,3.839,7.866    l-132.876,57.684C255.686,300.441,253.362,306.331,255.561,311.397z"/>
		<path id="XMLID_4168_" d="M117.07,190.92c1.86-1.87,2.93-4.44,2.93-7.07c0-2.64-1.07-5.21-2.93-7.08    c-1.86-1.86-4.44-2.92-7.07-2.92c-2.63,0-5.21,1.06-7.07,2.92c-1.86,1.87-2.93,4.44-2.93,7.08c0,2.63,1.07,5.21,2.93,7.07    c1.86,1.86,4.44,2.93,7.07,2.93C112.63,193.85,115.21,192.78,117.07,190.92z"/>
	</g>
</g>















</svg>
